<svg width="24" height="24" viewBox="0 0 24 24" fill="none" xmlns="http://www.w3.org/2000/svg">
<path d="M4.55625 0.356076C4.2375 0.562325 3.88125 0.881076 3.7875 1.04983C3.6375 1.31233 3.39375 1.36858 2.64375 1.33108C0.95625 1.23733 0 2.17483 0 3.93733C0 4.79983 0.075 4.98733 0.6375 5.54983C0.99375 5.90608 1.3875 6.18733 1.5375 6.18733C1.725 6.18733 1.78125 6.54358 1.78125 7.57483C1.78125 9.20608 2.1 9.80608 3.3 10.4061C4.33125 10.9311 7.63125 10.9498 8.68125 10.4248C9.825 9.86233 10.2188 9.13108 10.2188 7.57483C10.2 6.28108 10.2188 6.22483 10.725 6.03733C12.1125 5.53108 12.4313 3.14983 11.2688 2.00608C10.725 1.46233 10.575 1.40608 9.46875 1.40608C8.45625 1.40608 8.23125 1.34983 8.1375 1.06858C7.8375 0.0935755 5.7 -0.318924 4.55625 0.356076ZM6.6 1.81858C7.03125 2.21233 7.03125 2.66233 6.5625 3.09358C5.71875 3.84358 4.59375 2.71858 5.34375 1.87483C5.75625 1.42483 6.15 1.40608 6.6 1.81858ZM3.0375 3.13108C3.225 3.29983 3.375 3.61858 3.375 3.84358C3.375 4.83733 1.93125 5.00608 1.59375 4.04983C1.44375 3.59983 1.48125 3.46858 1.85625 3.16858C2.4 2.73733 2.5875 2.71858 3.0375 3.13108ZM10.125 3.18733C10.575 3.63733 10.575 3.73108 10.2 4.27483C9.88125 4.72483 9.20625 4.81858 8.85 4.46233C8.53125 4.14358 8.56875 3.44983 8.925 3.11233C9.31875 2.71858 9.675 2.73733 10.125 3.18733ZM7.275 5.43733C8.625 6.26233 9.05625 8.09983 8.0625 8.84983C7.6875 9.13108 7.25625 9.20608 6.075 9.20608C3.75 9.20608 2.9625 8.62483 3.375 7.16233C3.88125 5.34358 5.75625 4.51858 7.275 5.43733Z" fill="black"/>
<path d="M16.4438 0.374943C15.45 1.16244 15.375 2.64369 16.275 3.61869L16.7625 4.14369L16.3125 4.96869C16.05 5.43744 15.7688 5.81244 15.6563 5.81244C15.5625 5.81244 15.1313 5.58744 14.7188 5.34369C13.8375 4.79994 13.2 4.74369 12.975 5.19369C12.75 5.62494 12.8813 6.01869 13.35 6.37494C13.6875 6.65619 13.5938 6.86244 10.6688 11.9062C7.89377 16.6687 7.61252 17.2312 7.61252 18.0562C7.59377 18.8812 7.66877 19.0312 8.30627 19.6124C8.68127 19.9687 9.00002 20.3062 9.00002 20.3624C9.00002 20.4187 8.66252 21.0562 8.23127 21.7874C7.66877 22.7437 7.50002 23.2124 7.57502 23.5499C7.68752 23.9437 7.80002 24.0187 8.30627 23.9624C8.83127 23.9062 9.00002 23.7374 9.73127 22.4812C10.5563 21.0749 10.5563 21.0562 11.0438 21.2999C11.6438 21.6187 12.7125 21.6187 13.275 21.2999C13.8375 20.9999 13.9313 20.8499 17.1938 15.1499C19.2938 11.5124 20.0438 10.3499 20.25 10.4249C20.8875 10.6874 21.1125 10.6874 21.45 10.4437C22.05 10.0124 21.7125 9.33744 20.625 8.73744C20.1188 8.45619 19.6875 8.17494 19.6875 8.13744C19.6875 8.08119 19.8938 7.66869 20.1563 7.23744L20.625 6.44994L21.7125 6.52494C22.7438 6.59994 22.8375 6.56244 23.4 5.99994C23.9063 5.49369 24 5.26869 24 4.51869C24 3.26244 23.625 2.86869 20.925 1.33119C18.9938 0.224943 18.4688 -5.72205e-05 17.775 -5.72205e-05C17.2125 -5.72205e-05 16.7625 0.131193 16.4438 0.374943ZM20.175 2.79369C22.4063 4.08744 22.7813 4.49994 22.125 4.91244C21.9188 5.04369 21.2625 4.76244 19.6125 3.80619C18.3938 3.11244 17.3438 2.41869 17.3063 2.28744C17.2125 2.04369 17.5688 1.49994 17.8125 1.49994C17.8875 1.49994 18.9563 2.08119 20.175 2.79369ZM18.8063 6.31869C18.2438 7.31244 18.15 7.36869 17.6438 7.01244L17.25 6.73119L17.7375 5.81244L18.225 4.91244L18.7313 5.21244L19.2563 5.49369L18.8063 6.31869ZM16.875 8.45619C17.8125 8.98119 18.5625 9.44994 18.5625 9.48744C18.5625 9.52494 18.1125 10.2937 17.5875 11.2124L16.5938 12.8999L15 11.9812C14.1188 11.4749 13.3875 10.9874 13.35 10.8937C13.3125 10.7812 13.3875 10.5374 13.5 10.3312L13.7063 9.93744L14.4375 10.3124C15.2813 10.7437 15.7688 10.7812 16.0875 10.4624C16.6125 9.93744 16.2 9.37494 14.6625 8.51244C14.5875 8.47494 15.0375 7.49994 15.1313 7.49994C15.1688 7.49994 15.9563 7.93119 16.875 8.45619ZM14.1 13.3312C15.0188 13.8749 15.7313 14.3624 15.7125 14.4187C15.375 15.1499 12.6563 19.7249 12.45 19.8937C12.1125 20.1749 9.30002 18.5999 9.22502 18.0749C9.15002 17.4562 9.43127 17.1937 9.97502 17.4562C10.9875 17.9062 11.6625 16.9124 10.875 16.1249C10.425 15.6749 10.425 15.5624 10.7438 15.1124C10.9875 14.7937 11.025 14.7937 11.6438 15.1687C12.3563 15.6187 12.9375 15.6749 13.275 15.3374C13.8 14.8124 13.3875 14.2499 11.85 13.3874C11.775 13.3499 12.225 12.3749 12.3375 12.3749C12.375 12.3749 13.1813 12.8062 14.1 13.3312Z" fill="black"/>
</svg>
