<svg width="24" height="24" viewBox="0 0 24 24" fill="none" xmlns="http://www.w3.org/2000/svg">
<path d="M9.61875 0.65625C8.94375 0.9375 8.4375 1.78125 8.4375 2.625V3.1875H6.8625C5.08125 3.1875 4.44375 3.35625 3.7125 4.06875C3.15 4.6125 3.01875 5.1 2.38125 9L1.95 11.5312L1.275 11.85C0.35625 12.3 0 12.8438 0 13.8937C0 14.925 0.46875 15.6375 1.36875 15.9187L1.96875 16.125L2.49375 18.975C2.8125 20.6812 3.16875 22.0687 3.39375 22.425C4.0875 23.5687 4.48125 23.625 12.0375 23.625C18.4125 23.625 18.8625 23.6062 19.5938 23.25C20.0063 23.0437 20.4938 22.65 20.6625 22.35C20.8313 22.05 21.225 20.5312 21.5063 18.975L22.0312 16.125L22.6313 15.9187C23.5312 15.6375 24 14.925 24 13.8937C24 12.8438 23.6438 12.3 22.725 11.85L22.05 11.5312L21.6188 9C20.9813 5.1 20.85 4.6125 20.2875 4.06875C19.5563 3.35625 18.9188 3.1875 17.1375 3.1875H15.5625V2.625C15.5625 1.7625 15.0563 0.9375 14.3438 0.637499C13.5 0.299999 10.425 0.299999 9.61875 0.65625ZM13.8375 2.2875C13.9688 2.41875 14.0625 2.6625 14.0625 2.85C14.0625 3.15 13.8563 3.1875 12 3.1875C10.1438 3.1875 9.9375 3.15 9.9375 2.85C9.9375 2.2125 10.3313 2.0625 12 2.0625C13.0125 2.0625 13.7063 2.15625 13.8375 2.2875ZM19.1813 5.2875C19.3313 5.53125 19.6313 6.9 19.8563 8.34375C20.0813 9.7875 20.325 11.1187 20.3625 11.2875C20.4563 11.5875 20.325 11.625 19.425 11.625H18.375V9.0375C18.375 7.275 18.3 6.375 18.15 6.225C17.8313 5.90625 6.16875 5.90625 5.85 6.225C5.7 6.375 5.625 7.275 5.625 9.0375V11.625H4.575C3.675 11.625 3.54375 11.5875 3.6375 11.2875C3.675 11.1187 3.91875 9.7875 4.14375 8.34375C4.36875 6.9 4.66875 5.53125 4.81875 5.2875L5.0625 4.875H12H18.9375L19.1813 5.2875ZM9.375 8.25V8.8125H8.25H7.125V8.25V7.6875H8.25H9.375V8.25ZM13.125 8.25V8.8125H12H10.875V8.25V7.6875H12H13.125V8.25ZM16.875 8.25V8.8125H15.75H14.625V8.25V7.6875H15.75H16.875V8.25ZM9.375 11.0625V11.625H8.25H7.125V11.0625V10.5H8.25H9.375V11.0625ZM13.125 11.0625V11.625H12H10.875V11.0625V10.5H12H13.125V11.0625ZM16.875 11.0625V11.625H15.75H14.625V11.0625V10.5H15.75H16.875V11.0625ZM22.3125 13.5938C22.5 13.8187 22.5 13.9312 22.3125 14.1562C21.9563 14.5875 2.04375 14.5875 1.6875 14.1562C1.5 13.9312 1.5 13.8187 1.6875 13.5938C2.04375 13.1625 21.9563 13.1625 22.3125 13.5938ZM20.2875 16.6875L20.2125 17.25H12H3.7875L3.7125 16.6875L3.61875 16.125H12H20.3813L20.2875 16.6875ZM19.8188 19.275C19.7625 19.4437 19.6688 19.9312 19.5938 20.3437C19.5188 20.7562 19.35 21.2812 19.2 21.525L18.9375 21.9375H12H5.0625L4.8 21.5062C4.65 21.2812 4.48125 20.7562 4.40625 20.3437C4.33125 19.9312 4.2375 19.4437 4.18125 19.2562C4.10625 18.9562 4.575 18.9375 12 18.9375C19.425 18.9375 19.8938 18.9562 19.8188 19.275Z" fill="black"/>
</svg>
