<svg width="26" height="24" viewBox="0 0 26 24" fill="none" xmlns="http://www.w3.org/2000/svg">
<path d="M10.6562 3.5625C10.3374 3.65625 9.83118 3.99375 9.53119 4.3125C9.17493 4.6875 8.79993 4.875 8.46243 4.875C8.04993 4.875 7.61868 5.175 6.60618 6.16875C5.49994 7.2375 5.25619 7.59375 5.18119 8.2125C5.08744 8.85 5.01243 8.98125 4.54369 9.075C3.83119 9.20625 3.75619 9.4125 3.04369 13.1625C2.55619 15.75 2.40619 16.3125 2.10619 16.4063C1.11244 16.725 0.624935 18.6938 1.29994 19.6688C1.97494 20.6063 2.10619 20.625 12.9999 20.625C23.8937 20.625 24.0249 20.6063 24.6999 19.6688C25.3749 18.6938 24.8874 16.725 23.8937 16.4063C23.5937 16.3125 23.4437 15.75 22.9562 13.1625C22.2437 9.4125 22.1687 9.20625 21.4562 9.075C20.9874 8.98125 20.9124 8.85 20.8187 8.2125C20.7437 7.59375 20.4999 7.2375 19.3749 6.15C18.1187 4.9125 18.0062 4.85625 17.2562 4.89375C16.8062 4.9125 16.2249 4.8 15.8687 4.63125C15.5312 4.4625 14.9312 4.3125 14.4999 4.3125C14.0312 4.3125 13.5437 4.1625 13.2249 3.9375C12.6249 3.50625 11.4249 3.31875 10.6562 3.5625ZM12.5312 5.55C12.9437 6 13.0749 6.0375 13.8437 5.925C14.6312 5.79375 14.7624 5.83125 15.3624 6.35625C16.0937 7.0125 16.2999 7.05 16.8249 6.65625C17.2562 6.31875 17.8749 6.6 17.8749 7.10625C17.8749 7.51875 18.1937 7.8 18.7187 7.9125C18.9812 7.95 19.0937 8.11875 19.0937 8.4375V8.90625H12.9999H6.90619V8.4375C6.90619 8.11875 7.01868 7.95 7.28119 7.9125C7.80618 7.8 8.12494 7.51875 8.12494 7.10625C8.12494 6.65625 8.40618 6.50625 9.32493 6.4875C9.92493 6.46875 10.1312 6.375 10.3187 6C10.8249 4.96875 11.7999 4.7625 12.5312 5.55ZM21.2124 12.7875C21.4374 13.95 21.6624 15.1875 21.7374 15.5063L21.8687 16.125H12.9999H4.14994L4.26244 15.5063C4.33744 15.1875 4.56244 13.95 4.78744 12.7875L5.18119 10.6875H12.9999H20.8187L21.2124 12.7875ZM23.3874 18.1125C23.7062 18.9375 23.6124 18.9375 12.9999 18.9375C2.38744 18.9375 2.29369 18.9375 2.61244 18.1125C2.72494 17.85 3.68119 17.8125 12.9999 17.8125C22.3187 17.8125 23.2749 17.85 23.3874 18.1125Z" fill="black"/>
</svg>
