<svg width="24" height="24" viewBox="0 0 24 24" fill="none" xmlns="http://www.w3.org/2000/svg">
<mask id="path-1-outside-1_638_15086" maskUnits="userSpaceOnUse" x="0" y="2" width="24" height="21" fill="black">
<rect fill="white" y="2" width="24" height="21"/>
<path d="M6.09622 2.80841C4.06518 3.44526 2.48166 4.85666 1.5522 6.87049C1.10469 7.79994 1.07026 8.09255 1.01862 10.2957C0.966988 12.1891 1.01862 12.8431 1.22517 13.3423C1.75875 14.5815 2.98081 15.6315 4.25452 15.9413C4.59876 16.0274 4.73646 16.2339 4.97743 17.0429C5.54543 19.0051 7.23222 20.7951 9.24605 21.6041C9.98617 21.8967 10.5542 21.9828 11.9139 22C13.9622 22 14.7195 21.7935 16.1309 20.8468C17.4563 19.969 18.6095 18.4543 19.0226 17.0601C19.2635 16.2339 19.4012 16.0274 19.7455 15.9413C21.0192 15.6315 22.2413 14.5815 22.7748 13.3423C22.9814 12.8431 23.033 12.1891 22.9814 10.2957C22.9297 8.09255 22.8953 7.79994 22.4478 6.87049C21.5011 4.83945 19.9348 3.44526 17.8694 2.80841C16.8883 2.49859 16.303 2.46417 11.9312 2.48138C7.69695 2.48138 6.97404 2.5158 6.09622 2.80841ZM17.7144 4.3403C19.9348 5.21812 21.4151 7.30079 21.5872 9.83098C21.7249 11.776 21.5528 12.6882 20.9159 13.4111C20.6233 13.7381 20.1586 14.134 19.9004 14.2717L19.4012 14.5299V11.2596C19.4012 7.76552 19.3496 7.54176 18.5062 7.66225L18.1103 7.71388L18.0071 11.7587C17.8866 16.6298 17.7144 17.2494 16.1481 18.833C13.7729 21.191 10.2271 21.191 7.85186 18.833C6.26834 17.2494 6.11343 16.6298 5.99295 11.7587L5.88967 7.71388L5.49379 7.66225C4.6504 7.54176 4.59876 7.76552 4.59876 11.2596V14.5299L4.09961 14.2717C3.27342 13.8414 2.56772 12.8775 2.43002 11.9997C2.22348 10.6227 2.44724 8.60892 2.92918 7.55897C3.75536 5.75169 5.42494 4.42636 7.35271 4.01326C7.78301 3.9272 10.0722 3.87557 12.4303 3.90999C16.4407 3.94441 16.8022 3.97884 17.7144 4.3403Z"/>
</mask>
<path d="M6.09622 2.80841C4.06518 3.44526 2.48166 4.85666 1.5522 6.87049C1.10469 7.79994 1.07026 8.09255 1.01862 10.2957C0.966988 12.1891 1.01862 12.8431 1.22517 13.3423C1.75875 14.5815 2.98081 15.6315 4.25452 15.9413C4.59876 16.0274 4.73646 16.2339 4.97743 17.0429C5.54543 19.0051 7.23222 20.7951 9.24605 21.6041C9.98617 21.8967 10.5542 21.9828 11.9139 22C13.9622 22 14.7195 21.7935 16.1309 20.8468C17.4563 19.969 18.6095 18.4543 19.0226 17.0601C19.2635 16.2339 19.4012 16.0274 19.7455 15.9413C21.0192 15.6315 22.2413 14.5815 22.7748 13.3423C22.9814 12.8431 23.033 12.1891 22.9814 10.2957C22.9297 8.09255 22.8953 7.79994 22.4478 6.87049C21.5011 4.83945 19.9348 3.44526 17.8694 2.80841C16.8883 2.49859 16.303 2.46417 11.9312 2.48138C7.69695 2.48138 6.97404 2.5158 6.09622 2.80841ZM17.7144 4.3403C19.9348 5.21812 21.4151 7.30079 21.5872 9.83098C21.7249 11.776 21.5528 12.6882 20.9159 13.4111C20.6233 13.7381 20.1586 14.134 19.9004 14.2717L19.4012 14.5299V11.2596C19.4012 7.76552 19.3496 7.54176 18.5062 7.66225L18.1103 7.71388L18.0071 11.7587C17.8866 16.6298 17.7144 17.2494 16.1481 18.833C13.7729 21.191 10.2271 21.191 7.85186 18.833C6.26834 17.2494 6.11343 16.6298 5.99295 11.7587L5.88967 7.71388L5.49379 7.66225C4.6504 7.54176 4.59876 7.76552 4.59876 11.2596V14.5299L4.09961 14.2717C3.27342 13.8414 2.56772 12.8775 2.43002 11.9997C2.22348 10.6227 2.44724 8.60892 2.92918 7.55897C3.75536 5.75169 5.42494 4.42636 7.35271 4.01326C7.78301 3.9272 10.0722 3.87557 12.4303 3.90999C16.4407 3.94441 16.8022 3.97884 17.7144 4.3403Z" fill="black"/>
<path d="M6.09622 2.80841C4.06518 3.44526 2.48166 4.85666 1.5522 6.87049C1.10469 7.79994 1.07026 8.09255 1.01862 10.2957C0.966988 12.1891 1.01862 12.8431 1.22517 13.3423C1.75875 14.5815 2.98081 15.6315 4.25452 15.9413C4.59876 16.0274 4.73646 16.2339 4.97743 17.0429C5.54543 19.0051 7.23222 20.7951 9.24605 21.6041C9.98617 21.8967 10.5542 21.9828 11.9139 22C13.9622 22 14.7195 21.7935 16.1309 20.8468C17.4563 19.969 18.6095 18.4543 19.0226 17.0601C19.2635 16.2339 19.4012 16.0274 19.7455 15.9413C21.0192 15.6315 22.2413 14.5815 22.7748 13.3423C22.9814 12.8431 23.033 12.1891 22.9814 10.2957C22.9297 8.09255 22.8953 7.79994 22.4478 6.87049C21.5011 4.83945 19.9348 3.44526 17.8694 2.80841C16.8883 2.49859 16.303 2.46417 11.9312 2.48138C7.69695 2.48138 6.97404 2.5158 6.09622 2.80841ZM17.7144 4.3403C19.9348 5.21812 21.4151 7.30079 21.5872 9.83098C21.7249 11.776 21.5528 12.6882 20.9159 13.4111C20.6233 13.7381 20.1586 14.134 19.9004 14.2717L19.4012 14.5299V11.2596C19.4012 7.76552 19.3496 7.54176 18.5062 7.66225L18.1103 7.71388L18.0071 11.7587C17.8866 16.6298 17.7144 17.2494 16.1481 18.833C13.7729 21.191 10.2271 21.191 7.85186 18.833C6.26834 17.2494 6.11343 16.6298 5.99295 11.7587L5.88967 7.71388L5.49379 7.66225C4.6504 7.54176 4.59876 7.76552 4.59876 11.2596V14.5299L4.09961 14.2717C3.27342 13.8414 2.56772 12.8775 2.43002 11.9997C2.22348 10.6227 2.44724 8.60892 2.92918 7.55897C3.75536 5.75169 5.42494 4.42636 7.35271 4.01326C7.78301 3.9272 10.0722 3.87557 12.4303 3.90999C16.4407 3.94441 16.8022 3.97884 17.7144 4.3403Z" stroke="black" stroke-width="0.4" mask="url(#path-1-outside-1_638_15086)"/>
<mask id="path-2-outside-2_638_15086" maskUnits="userSpaceOnUse" x="7.40234" y="9.25764" width="3" height="4" fill="black">
<rect fill="white" x="7.40234" y="9.25764" width="3" height="4"/>
<path d="M8.45468 9.9342C8.40304 10.0547 8.38583 10.6227 8.42025 11.1735C8.47189 12.0857 8.50631 12.189 8.86777 12.2406C9.50462 12.3439 9.7628 11.9825 9.7628 11.0014C9.7628 10.5022 9.67674 10.0203 9.55626 9.89978C9.28086 9.62438 8.57516 9.64159 8.45468 9.9342Z"/>
</mask>
<path d="M8.45468 9.9342C8.40304 10.0547 8.38583 10.6227 8.42025 11.1735C8.47189 12.0857 8.50631 12.189 8.86777 12.2406C9.50462 12.3439 9.7628 11.9825 9.7628 11.0014C9.7628 10.5022 9.67674 10.0203 9.55626 9.89978C9.28086 9.62438 8.57516 9.64159 8.45468 9.9342Z" fill="black"/>
<path d="M8.45468 9.9342C8.40304 10.0547 8.38583 10.6227 8.42025 11.1735C8.47189 12.0857 8.50631 12.189 8.86777 12.2406C9.50462 12.3439 9.7628 11.9825 9.7628 11.0014C9.7628 10.5022 9.67674 10.0203 9.55626 9.89978C9.28086 9.62438 8.57516 9.64159 8.45468 9.9342Z" stroke="black" stroke-width="0.4" mask="url(#path-2-outside-2_638_15086)"/>
<mask id="path-3-outside-3_638_15086" maskUnits="userSpaceOnUse" x="13.2373" y="9.25764" width="3" height="4" fill="black">
<rect fill="white" x="13.2373" y="9.25764" width="3" height="4"/>
<path d="M14.4439 9.89978C14.3406 10.0031 14.2373 10.5022 14.2373 11.0014C14.2373 11.9825 14.4955 12.3439 15.1323 12.2406C15.511 12.189 15.5282 12.1029 15.5282 10.9841C15.5282 9.83093 15.511 9.77929 15.0979 9.72766C14.8569 9.69323 14.5643 9.77929 14.4439 9.89978Z"/>
</mask>
<path d="M14.4439 9.89978C14.3406 10.0031 14.2373 10.5022 14.2373 11.0014C14.2373 11.9825 14.4955 12.3439 15.1323 12.2406C15.511 12.189 15.5282 12.1029 15.5282 10.9841C15.5282 9.83093 15.511 9.77929 15.0979 9.72766C14.8569 9.69323 14.5643 9.77929 14.4439 9.89978Z" fill="black"/>
<path d="M14.4439 9.89978C14.3406 10.0031 14.2373 10.5022 14.2373 11.0014C14.2373 11.9825 14.4955 12.3439 15.1323 12.2406C15.511 12.189 15.5282 12.1029 15.5282 10.9841C15.5282 9.83093 15.511 9.77929 15.0979 9.72766C14.8569 9.69323 14.5643 9.77929 14.4439 9.89978Z" stroke="black" stroke-width="0.4" mask="url(#path-3-outside-3_638_15086)"/>
<mask id="path-4-outside-4_638_15086" maskUnits="userSpaceOnUse" x="8.41797" y="13.9682" width="7" height="5" fill="black">
<rect fill="white" x="8.41797" y="13.9682" width="7" height="5"/>
<path d="M10.3474 14.6678C9.8827 14.8743 9.41797 15.5111 9.41797 15.9759C9.41797 16.5095 10.0376 17.3873 10.64 17.6971C11.3285 18.0586 12.6711 18.0586 13.3768 17.6971C13.9792 17.3873 14.5816 16.5095 14.5816 15.9415C14.5816 15.7349 14.3923 15.339 14.1685 15.0808C13.7727 14.6333 13.6522 14.5989 12.2236 14.5645C11.3974 14.5301 10.5368 14.5817 10.3474 14.6678ZM12.6194 16.3201C12.4301 16.4578 12.1547 16.5783 11.9998 16.5783C11.8449 16.5783 11.5695 16.4578 11.3802 16.3201C11.0876 16.0964 11.122 16.0792 11.9998 16.0792C12.8776 16.0792 12.912 16.0964 12.6194 16.3201Z"/>
</mask>
<path d="M10.3474 14.6678C9.8827 14.8743 9.41797 15.5111 9.41797 15.9759C9.41797 16.5095 10.0376 17.3873 10.64 17.6971C11.3285 18.0586 12.6711 18.0586 13.3768 17.6971C13.9792 17.3873 14.5816 16.5095 14.5816 15.9415C14.5816 15.7349 14.3923 15.339 14.1685 15.0808C13.7727 14.6333 13.6522 14.5989 12.2236 14.5645C11.3974 14.5301 10.5368 14.5817 10.3474 14.6678ZM12.6194 16.3201C12.4301 16.4578 12.1547 16.5783 11.9998 16.5783C11.8449 16.5783 11.5695 16.4578 11.3802 16.3201C11.0876 16.0964 11.122 16.0792 11.9998 16.0792C12.8776 16.0792 12.912 16.0964 12.6194 16.3201Z" fill="black"/>
<path d="M10.3474 14.6678C9.8827 14.8743 9.41797 15.5111 9.41797 15.9759C9.41797 16.5095 10.0376 17.3873 10.64 17.6971C11.3285 18.0586 12.6711 18.0586 13.3768 17.6971C13.9792 17.3873 14.5816 16.5095 14.5816 15.9415C14.5816 15.7349 14.3923 15.339 14.1685 15.0808C13.7727 14.6333 13.6522 14.5989 12.2236 14.5645C11.3974 14.5301 10.5368 14.5817 10.3474 14.6678ZM12.6194 16.3201C12.4301 16.4578 12.1547 16.5783 11.9998 16.5783C11.8449 16.5783 11.5695 16.4578 11.3802 16.3201C11.0876 16.0964 11.122 16.0792 11.9998 16.0792C12.8776 16.0792 12.912 16.0964 12.6194 16.3201Z" stroke="black" stroke-width="0.4" mask="url(#path-4-outside-4_638_15086)"/>
</svg>
