<svg width="24" height="24" viewBox="0 0 24 24" fill="none" xmlns="http://www.w3.org/2000/svg">
<mask id="path-1-outside-1_1269_3750" maskUnits="userSpaceOnUse" x="0" y="2" width="24" height="21" fill="black">
<rect fill="white" y="2" width="24" height="21"/>
<path d="M6.09622 2.80841C4.06518 3.44526 2.48166 4.85666 1.5522 6.87049C1.10469 7.79995 1.07026 8.09255 1.01862 10.2957C0.966988 12.1891 1.01862 12.8431 1.22517 13.3423C1.75875 14.5815 2.98081 15.6315 4.25452 15.9413C4.59876 16.0274 4.73646 16.2339 4.97743 17.0429C5.54543 19.0051 7.23222 20.7951 9.24605 21.6041C9.98617 21.8967 10.5542 21.9828 11.9139 22C13.9622 22 14.7195 21.7935 16.1309 20.8468C17.4563 19.969 18.6095 18.4543 19.0226 17.0601C19.2635 16.2339 19.4012 16.0274 19.7455 15.9413C21.0192 15.6315 22.2413 14.5815 22.7748 13.3423C22.9814 12.8431 23.033 12.1891 22.9814 10.2957C22.9297 8.09255 22.8953 7.79995 22.4478 6.87049C21.5011 4.83945 19.9348 3.44526 17.8694 2.80841C16.8883 2.49859 16.303 2.46417 11.9312 2.48138C7.69695 2.48138 6.97404 2.5158 6.09622 2.80841ZM17.7144 4.3403C19.9348 5.21812 21.4151 7.30079 21.5872 9.83098C21.7249 11.776 21.5528 12.6882 20.9159 13.4111C20.6233 13.7381 20.1586 14.134 19.9004 14.2717L19.4012 14.5299V11.2596C19.4012 7.76552 19.3496 7.54176 18.5062 7.66225L18.1103 7.71388L18.0071 11.7587C17.8866 16.6298 17.7144 17.2494 16.1481 18.833C13.7729 21.191 10.2271 21.191 7.85186 18.833C6.26834 17.2494 6.11343 16.6298 5.99295 11.7587L5.88967 7.71388L5.49379 7.66225C4.6504 7.54176 4.59876 7.76552 4.59876 11.2596V14.5299L4.09961 14.2717C3.27342 13.8414 2.56772 12.8775 2.43002 11.9997C2.22348 10.6227 2.44724 8.60892 2.92918 7.55897C3.75536 5.75169 5.42494 4.42636 7.35271 4.01326C7.78301 3.9272 10.0722 3.87557 12.4303 3.90999C16.4407 3.94441 16.8022 3.97884 17.7144 4.3403Z"/>
</mask>
<path d="M6.09622 2.80841C4.06518 3.44526 2.48166 4.85666 1.5522 6.87049C1.10469 7.79995 1.07026 8.09255 1.01862 10.2957C0.966988 12.1891 1.01862 12.8431 1.22517 13.3423C1.75875 14.5815 2.98081 15.6315 4.25452 15.9413C4.59876 16.0274 4.73646 16.2339 4.97743 17.0429C5.54543 19.0051 7.23222 20.7951 9.24605 21.6041C9.98617 21.8967 10.5542 21.9828 11.9139 22C13.9622 22 14.7195 21.7935 16.1309 20.8468C17.4563 19.969 18.6095 18.4543 19.0226 17.0601C19.2635 16.2339 19.4012 16.0274 19.7455 15.9413C21.0192 15.6315 22.2413 14.5815 22.7748 13.3423C22.9814 12.8431 23.033 12.1891 22.9814 10.2957C22.9297 8.09255 22.8953 7.79995 22.4478 6.87049C21.5011 4.83945 19.9348 3.44526 17.8694 2.80841C16.8883 2.49859 16.303 2.46417 11.9312 2.48138C7.69695 2.48138 6.97404 2.5158 6.09622 2.80841ZM17.7144 4.3403C19.9348 5.21812 21.4151 7.30079 21.5872 9.83098C21.7249 11.776 21.5528 12.6882 20.9159 13.4111C20.6233 13.7381 20.1586 14.134 19.9004 14.2717L19.4012 14.5299V11.2596C19.4012 7.76552 19.3496 7.54176 18.5062 7.66225L18.1103 7.71388L18.0071 11.7587C17.8866 16.6298 17.7144 17.2494 16.1481 18.833C13.7729 21.191 10.2271 21.191 7.85186 18.833C6.26834 17.2494 6.11343 16.6298 5.99295 11.7587L5.88967 7.71388L5.49379 7.66225C4.6504 7.54176 4.59876 7.76552 4.59876 11.2596V14.5299L4.09961 14.2717C3.27342 13.8414 2.56772 12.8775 2.43002 11.9997C2.22348 10.6227 2.44724 8.60892 2.92918 7.55897C3.75536 5.75169 5.42494 4.42636 7.35271 4.01326C7.78301 3.9272 10.0722 3.87557 12.4303 3.90999C16.4407 3.94441 16.8022 3.97884 17.7144 4.3403Z" fill="#9FA7BB"/>
<path d="M6.09622 2.80841C4.06518 3.44526 2.48166 4.85666 1.5522 6.87049C1.10469 7.79995 1.07026 8.09255 1.01862 10.2957C0.966988 12.1891 1.01862 12.8431 1.22517 13.3423C1.75875 14.5815 2.98081 15.6315 4.25452 15.9413C4.59876 16.0274 4.73646 16.2339 4.97743 17.0429C5.54543 19.0051 7.23222 20.7951 9.24605 21.6041C9.98617 21.8967 10.5542 21.9828 11.9139 22C13.9622 22 14.7195 21.7935 16.1309 20.8468C17.4563 19.969 18.6095 18.4543 19.0226 17.0601C19.2635 16.2339 19.4012 16.0274 19.7455 15.9413C21.0192 15.6315 22.2413 14.5815 22.7748 13.3423C22.9814 12.8431 23.033 12.1891 22.9814 10.2957C22.9297 8.09255 22.8953 7.79995 22.4478 6.87049C21.5011 4.83945 19.9348 3.44526 17.8694 2.80841C16.8883 2.49859 16.303 2.46417 11.9312 2.48138C7.69695 2.48138 6.97404 2.5158 6.09622 2.80841ZM17.7144 4.3403C19.9348 5.21812 21.4151 7.30079 21.5872 9.83098C21.7249 11.776 21.5528 12.6882 20.9159 13.4111C20.6233 13.7381 20.1586 14.134 19.9004 14.2717L19.4012 14.5299V11.2596C19.4012 7.76552 19.3496 7.54176 18.5062 7.66225L18.1103 7.71388L18.0071 11.7587C17.8866 16.6298 17.7144 17.2494 16.1481 18.833C13.7729 21.191 10.2271 21.191 7.85186 18.833C6.26834 17.2494 6.11343 16.6298 5.99295 11.7587L5.88967 7.71388L5.49379 7.66225C4.6504 7.54176 4.59876 7.76552 4.59876 11.2596V14.5299L4.09961 14.2717C3.27342 13.8414 2.56772 12.8775 2.43002 11.9997C2.22348 10.6227 2.44724 8.60892 2.92918 7.55897C3.75536 5.75169 5.42494 4.42636 7.35271 4.01326C7.78301 3.9272 10.0722 3.87557 12.4303 3.90999C16.4407 3.94441 16.8022 3.97884 17.7144 4.3403Z" stroke="#9FA7BB" stroke-width="0.4" mask="url(#path-1-outside-1_1269_3750)"/>
<mask id="path-2-outside-2_1269_3750" maskUnits="userSpaceOnUse" x="7.40186" y="9.25757" width="3" height="4" fill="black">
<rect fill="white" x="7.40186" y="9.25757" width="3" height="4"/>
<path d="M8.45419 9.93413C8.40255 10.0546 8.38534 10.6226 8.41977 11.1734C8.4714 12.0857 8.50583 12.1889 8.86728 12.2406C9.50413 12.3438 9.76232 11.9824 9.76232 11.0013C9.76232 10.5021 9.67625 10.0202 9.55577 9.89971C9.28037 9.62431 8.57467 9.64152 8.45419 9.93413Z"/>
</mask>
<path d="M8.45419 9.93413C8.40255 10.0546 8.38534 10.6226 8.41977 11.1734C8.4714 12.0857 8.50583 12.1889 8.86728 12.2406C9.50413 12.3438 9.76232 11.9824 9.76232 11.0013C9.76232 10.5021 9.67625 10.0202 9.55577 9.89971C9.28037 9.62431 8.57467 9.64152 8.45419 9.93413Z" fill="#9FA7BB"/>
<path d="M8.45419 9.93413C8.40255 10.0546 8.38534 10.6226 8.41977 11.1734C8.4714 12.0857 8.50583 12.1889 8.86728 12.2406C9.50413 12.3438 9.76232 11.9824 9.76232 11.0013C9.76232 10.5021 9.67625 10.0202 9.55577 9.89971C9.28037 9.62431 8.57467 9.64152 8.45419 9.93413Z" stroke="#9FA7BB" stroke-width="0.4" mask="url(#path-2-outside-2_1269_3750)"/>
<mask id="path-3-outside-3_1269_3750" maskUnits="userSpaceOnUse" x="13.2375" y="9.25757" width="3" height="4" fill="black">
<rect fill="white" x="13.2375" y="9.25757" width="3" height="4"/>
<path d="M14.4441 9.89971C14.3408 10.003 14.2375 10.5021 14.2375 11.0013C14.2375 11.9824 14.4957 12.3438 15.1326 12.2406C15.5113 12.1889 15.5285 12.1029 15.5285 10.9841C15.5285 9.83086 15.5113 9.77922 15.0982 9.72758C14.8572 9.69316 14.5646 9.77922 14.4441 9.89971Z"/>
</mask>
<path d="M14.4441 9.89971C14.3408 10.003 14.2375 10.5021 14.2375 11.0013C14.2375 11.9824 14.4957 12.3438 15.1326 12.2406C15.5113 12.1889 15.5285 12.1029 15.5285 10.9841C15.5285 9.83086 15.5113 9.77922 15.0982 9.72758C14.8572 9.69316 14.5646 9.77922 14.4441 9.89971Z" fill="#9FA7BB"/>
<path d="M14.4441 9.89971C14.3408 10.003 14.2375 10.5021 14.2375 11.0013C14.2375 11.9824 14.4957 12.3438 15.1326 12.2406C15.5113 12.1889 15.5285 12.1029 15.5285 10.9841C15.5285 9.83086 15.5113 9.77922 15.0982 9.72758C14.8572 9.69316 14.5646 9.77922 14.4441 9.89971Z" stroke="#9FA7BB" stroke-width="0.4" mask="url(#path-3-outside-3_1269_3750)"/>
<mask id="path-4-outside-4_1269_3750" maskUnits="userSpaceOnUse" x="8.41821" y="13.9683" width="7" height="5" fill="black">
<rect fill="white" x="8.41821" y="13.9683" width="7" height="5"/>
<path d="M10.3477 14.6678C9.88294 14.8744 9.41821 15.5112 9.41821 15.976C9.41821 16.5095 10.0379 17.3874 10.6403 17.6972C11.3288 18.0586 12.6713 18.0586 13.377 17.6972C13.9794 17.3874 14.5819 16.5095 14.5819 15.9415C14.5819 15.735 14.3925 15.3391 14.1688 15.0809C13.7729 14.6334 13.6524 14.599 12.2238 14.5646C11.3976 14.5301 10.537 14.5818 10.3477 14.6678ZM12.6197 16.3202C12.4303 16.4579 12.155 16.5784 12 16.5784C11.8451 16.5784 11.5697 16.4579 11.3804 16.3202C11.0878 16.0964 11.1222 16.0792 12 16.0792C12.8779 16.0792 12.9123 16.0964 12.6197 16.3202Z"/>
</mask>
<path d="M10.3477 14.6678C9.88294 14.8744 9.41821 15.5112 9.41821 15.976C9.41821 16.5095 10.0379 17.3874 10.6403 17.6972C11.3288 18.0586 12.6713 18.0586 13.377 17.6972C13.9794 17.3874 14.5819 16.5095 14.5819 15.9415C14.5819 15.735 14.3925 15.3391 14.1688 15.0809C13.7729 14.6334 13.6524 14.599 12.2238 14.5646C11.3976 14.5301 10.537 14.5818 10.3477 14.6678ZM12.6197 16.3202C12.4303 16.4579 12.155 16.5784 12 16.5784C11.8451 16.5784 11.5697 16.4579 11.3804 16.3202C11.0878 16.0964 11.1222 16.0792 12 16.0792C12.8779 16.0792 12.9123 16.0964 12.6197 16.3202Z" fill="#9FA7BB"/>
<path d="M10.3477 14.6678C9.88294 14.8744 9.41821 15.5112 9.41821 15.976C9.41821 16.5095 10.0379 17.3874 10.6403 17.6972C11.3288 18.0586 12.6713 18.0586 13.377 17.6972C13.9794 17.3874 14.5819 16.5095 14.5819 15.9415C14.5819 15.735 14.3925 15.3391 14.1688 15.0809C13.7729 14.6334 13.6524 14.599 12.2238 14.5646C11.3976 14.5301 10.537 14.5818 10.3477 14.6678ZM12.6197 16.3202C12.4303 16.4579 12.155 16.5784 12 16.5784C11.8451 16.5784 11.5697 16.4579 11.3804 16.3202C11.0878 16.0964 11.1222 16.0792 12 16.0792C12.8779 16.0792 12.9123 16.0964 12.6197 16.3202Z" stroke="#9FA7BB" stroke-width="0.4" mask="url(#path-4-outside-4_1269_3750)"/>
</svg>
