<svg width="28" height="28" viewBox="0 0 28 28" fill="none" xmlns="http://www.w3.org/2000/svg">
<rect width="28" height="28" rx="14" fill="white"/>
<path d="M10.6196 14C10.6196 14.1728 10.6818 14.3249 10.8132 14.4562L16.2947 19.8133C16.4122 19.9378 16.5643 20 16.744 20C17.1035 20 17.38 19.7304 17.38 19.3709C17.38 19.1912 17.3039 19.0391 17.1933 18.9216L12.1611 14L17.1933 9.07834C17.3039 8.96083 17.38 8.80184 17.38 8.62903C17.38 8.26958 17.1035 8 16.744 8C16.5643 8 16.4122 8.06221 16.2947 8.17972L10.8132 13.5438C10.6818 13.6682 10.6196 13.8272 10.6196 14Z" fill="#303030"/>
</svg>
