<svg width="16" height="16" viewBox="0 0 16 16" fill="none" xmlns="http://www.w3.org/2000/svg">
<path d="M11.2016 0.151912C10.8391 0.439412 10.7141 0.964412 10.9141 1.43941C11.0641 1.78941 11.2016 1.90191 11.6641 2.02691L12.2391 2.20191L11.6266 2.80191L11.0141 3.41441L10.6391 3.13941C10.1641 2.80191 9.33906 2.46441 8.56406 2.26441C7.71406 2.05191 5.95156 2.07691 5.06406 2.31441C2.67656 2.93941 0.639063 5.07691 0.114063 7.51441C-0.110937 8.52691 0.0140629 10.5144 0.339063 11.4394C1.12656 13.5894 2.97656 15.2519 5.23906 15.8269C6.32656 16.1019 8.25156 16.0144 9.30156 15.6394C11.2891 14.9269 12.9141 13.2519 13.5516 11.2144C14.1641 9.27691 13.8641 6.78941 12.8266 5.33941L12.5766 4.97691L13.2891 4.27691L13.9891 3.56441V4.03941C13.9891 4.66441 14.1391 4.92691 14.6141 5.12691C15.0516 5.31441 15.6641 5.12691 15.8641 4.73941C15.9391 4.61441 15.9891 3.61441 15.9891 2.51441C15.9891 -0.160588 16.1516 0.00191169 13.4516 0.00191169C12.0141 0.00191169 11.3516 0.0519117 11.2016 0.151912ZM8.95156 4.68941C9.90156 5.11441 10.8766 6.08941 11.3266 7.05191C11.6391 7.72691 11.6766 7.95191 11.6766 9.06441C11.6766 10.1644 11.6391 10.4019 11.3391 11.0269C10.8766 12.0269 10.0016 12.9269 9.00156 13.4144C8.23906 13.7894 8.08906 13.8144 6.92656 13.8144C5.76406 13.8144 5.61406 13.7894 4.85156 13.4144C1.82656 11.9269 1.16406 7.98941 3.52656 5.65191C5.00156 4.20191 7.08906 3.82691 8.95156 4.68941Z" fill="black"/>
</svg>
