<svg width="24" height="24" viewBox="0 0 24 24" fill="none" xmlns="http://www.w3.org/2000/svg">
<path d="M9.76562 2.35938C6.82812 3.45312 5 6.03125 5 9.10938C5 11.1406 5.53125 12.5938 6.78125 13.9844C7.6875 14.9844 8.6875 15.6406 10.0469 16.0781L11.0938 16.4219V17.0156V17.625H10.2656C9.29688 17.625 8.95312 17.8281 8.8125 18.4844C8.67188 19.2656 9.125 19.6875 10.2031 19.7812L11.0938 19.8438V20.6719C11.0938 21.6406 11.3906 22 12.2188 22C12.9844 22 13.2812 21.6094 13.2812 20.6406V19.8438L14.1719 19.7812C15.25 19.6875 15.7031 19.2656 15.5625 18.4844C15.4219 17.8281 15.0781 17.625 14.1094 17.625H13.2812V17.0156V16.4219L14.3438 16.0781C15.6875 15.6406 16.6875 14.9844 17.5938 13.9844C18.8438 12.5938 19.375 11.1406 19.375 9.10938C19.375 5.98438 17.4688 3.34375 14.4531 2.3125C13.1562 1.875 11.0312 1.89062 9.76562 2.35938ZM14.2969 4.65625C15.2812 5.14062 16.2344 6.09375 16.7344 7.07812C17.2812 8.20312 17.2812 10.1875 16.7188 11.2812C16.2188 12.2656 15.2656 13.2188 14.2812 13.7188C13.6406 14.0469 13.2969 14.1094 12.1875 14.1094C10.625 14.1094 9.75 13.75 8.6875 12.6875C6.07812 10.0781 7.0625 5.75 10.5938 4.42188C11.5 4.0625 13.3438 4.1875 14.2969 4.65625Z" fill="#FF7979"/>
</svg>
