<svg width="24" height="24" viewBox="0 0 24 24" fill="none" xmlns="http://www.w3.org/2000/svg">
<path d="M3.39531 2.40278C3.03417 2.6326 2.57454 3.09223 2.36114 3.45336L2 4.10998L2.03283 13.5324L2.08208 22.9384L8.69748 22.9877C12.3253 23.0041 15.3129 23.0041 15.3293 22.9877C15.3457 22.9549 15.4114 18.654 15.4606 13.4175C15.5427 4.53678 15.5591 3.86375 15.8546 3.32204C16.0188 3.01015 16.3142 2.58335 16.4948 2.36995L16.8231 2.00881H10.4375H4.05192L3.39531 2.40278ZM12.6372 5.1934C12.67 5.35755 12.4894 5.71869 12.194 6.01417C11.6851 6.53946 11.6687 6.57229 11.8657 7.29457C12.1447 8.29591 11.8492 9.34649 11.0777 10.118C8.68107 12.5147 4.80703 9.72405 6.268 6.67078C6.99028 5.17698 8.77956 4.58603 10.2405 5.34114L11.0121 5.7351L11.4717 5.25906C11.9641 4.73376 12.5551 4.70094 12.6372 5.1934ZM4.87269 14.1562C4.87269 14.4517 4.7742 14.583 4.49514 14.6158C4.05192 14.6815 3.83852 14.2547 4.134 13.8936C4.44589 13.5324 4.87269 13.6802 4.87269 14.1562ZM13.3102 13.8936C13.5564 14.189 13.3923 14.5994 12.9491 14.7143C12.3253 14.8785 7.08877 14.8292 6.74405 14.6487C6.38291 14.4517 6.33367 14.1562 6.62914 13.8607C6.92462 13.5652 13.064 13.5817 13.3102 13.8936ZM4.87269 16.6185C4.87269 16.914 4.7742 17.0453 4.49514 17.0781C4.05192 17.1438 3.83852 16.717 4.134 16.3559C4.44589 15.9947 4.87269 16.1425 4.87269 16.6185ZM13.3102 16.3559C13.5564 16.6513 13.3923 17.0617 12.9491 17.1766C12.3253 17.3408 7.08877 17.2915 6.74405 17.111C6.38291 16.914 6.33367 16.6185 6.62914 16.323C6.92462 16.0276 13.064 16.044 13.3102 16.3559ZM4.87269 19.0808C4.87269 19.3763 4.7742 19.5076 4.49514 19.5405C4.05192 19.6061 3.83852 19.1793 4.134 18.8182C4.44589 18.457 4.87269 18.6048 4.87269 19.0808ZM13.3102 18.8182C13.5564 19.1137 13.3923 19.524 12.9491 19.6389C12.3253 19.8031 7.08877 19.7539 6.74405 19.5733C6.38291 19.3763 6.33367 19.0808 6.62914 18.7853C6.92462 18.4899 13.064 18.5063 13.3102 18.8182Z" fill="#EF8547"/>
<path d="M7.58136 6.57231C6.94115 7.21251 6.80983 8.04969 7.18739 8.85405C8.10665 10.7254 10.8644 10.1673 10.8644 8.11536V7.36025L10.0765 8.13177C9.64969 8.55857 9.17365 8.90329 9.04233 8.90329C8.66477 8.90329 7.67985 7.81988 7.79476 7.5244C7.92608 7.19609 8.46779 7.17968 8.73043 7.50799C8.92742 7.7378 9.02591 7.68856 9.58403 7.14685C10.1586 6.58872 10.1914 6.50665 9.92876 6.32608C9.78102 6.21117 9.28856 6.11268 8.84534 6.11268C8.18872 6.11268 7.97532 6.19475 7.58136 6.57231Z" fill="#EF8547"/>
<path d="M18.0213 2.40284C17.6766 2.61624 17.217 3.07587 17.0036 3.4206C16.6096 4.04438 16.6096 4.12646 16.6096 8.59145C16.6096 11.8909 16.6589 13.1549 16.8066 13.3027C17.0857 13.5817 22.2073 13.5817 22.4863 13.3027C22.749 13.04 22.7654 4.55326 22.5027 3.86381C22.2893 3.30569 21.5999 2.55058 21.0089 2.23869C20.2867 1.86113 18.7765 1.94321 18.0213 2.40284Z" fill="#EF8547"/>
</svg>
