<svg width="21" height="18" viewBox="0 0 21 18" fill="none" xmlns="http://www.w3.org/2000/svg">
<path d="M6.50073 0.799572C5.39136 1.48707 4.86011 2.5027 4.86011 3.89332C4.87573 7.20582 8.64136 8.47145 10.3289 5.73707C10.7507 5.0652 10.907 3.64332 10.657 2.72145C10.4539 1.98707 9.71948 1.0652 9.06323 0.721447C8.43823 0.408947 7.07886 0.440197 6.50073 0.799572ZM8.45386 1.98707C9.04761 2.29957 9.42261 3.01832 9.42261 3.86207C9.42261 4.73707 9.07886 5.3777 8.39136 5.73707C7.86011 6.01832 7.81323 6.01832 7.28198 5.76832C6.53198 5.40895 6.03198 4.36207 6.18823 3.45582C6.31323 2.72145 7.15698 1.7527 7.65698 1.7527C7.84448 1.7527 8.20386 1.86207 8.45386 1.98707Z" fill="black"/>
<path d="M12.7507 2.36215C11.5945 3.06527 11.032 4.2059 11.1413 5.67465C11.2195 6.7059 11.5163 7.23715 12.3601 7.79965C12.9695 8.22152 14.1726 8.28402 14.8288 7.94027C16.4538 7.09652 17.1257 4.8309 16.2195 3.2684C15.9695 2.84652 15.5945 2.47152 15.2663 2.31527C14.5476 1.97152 13.3445 1.98715 12.7507 2.36215ZM14.6413 3.54965C15.7195 4.29965 15.3757 6.2059 14.0788 6.75277C13.4382 7.0184 12.8601 6.72152 12.5632 5.98715C11.9538 4.54965 13.5007 2.73715 14.6413 3.54965Z" fill="black"/>
<path d="M1.3288 4.56519C-0.171196 5.31519 -0.468071 7.73706 0.781929 9.15894C1.17255 9.59644 2.1413 10.0339 2.75068 10.0339C4.17255 10.0339 5.04755 9.14331 5.1413 7.61206C5.23505 6.14331 4.56318 5.03394 3.2663 4.48706C2.50068 4.17456 2.09443 4.19019 1.3288 4.56519ZM3.29755 6.12769C4.4538 7.36206 3.6413 9.20581 2.23505 8.51831C1.71943 8.26831 1.2663 7.48706 1.2663 6.86206C1.2663 6.65894 1.40693 6.29956 1.59443 6.06519C2.04755 5.50269 2.71943 5.51831 3.29755 6.12769Z" fill="black"/>
<path d="M16.8914 7.23706C15.5945 7.62769 14.7039 8.86206 14.7039 10.2839C14.7039 12.8308 17.9695 13.5964 19.4851 11.4246C20.032 10.6121 20.1882 9.11206 19.7976 8.34644C19.2976 7.37769 18.0476 6.89331 16.8914 7.23706ZM18.4382 8.87769C18.8445 9.39331 18.8445 9.81519 18.4539 10.4558C17.8289 11.5027 16.6257 11.6746 16.1726 10.7839C15.8601 10.1902 16.0945 9.42456 16.7507 8.86206C17.3757 8.34644 18.0164 8.34644 18.4382 8.87769Z" fill="black"/>
<path d="M8.09452 7.69027C6.53202 8.08089 5.70389 8.87777 3.96952 11.5653C2.68827 13.5653 2.61014 13.7684 2.54764 14.6746C2.37577 17.2528 4.48514 18.6121 7.25077 17.7059C8.59452 17.2528 10.032 17.2528 11.3758 17.7059C12.7976 18.1746 14.0164 18.0809 14.8133 17.4403C15.9539 16.534 16.407 14.9559 15.8914 13.7215C15.4695 12.7215 13.0008 9.14339 12.407 8.65902C12.0789 8.40902 11.532 8.08089 11.1883 7.94027C10.4226 7.61214 8.89139 7.48714 8.09452 7.69027ZM10.9851 9.37777C11.8289 9.87777 12.1101 10.2059 13.4539 12.2996C14.9539 14.6434 15.0789 15.2528 14.2195 16.1278C13.5789 16.7528 13.0789 16.8153 11.8914 16.4246C10.407 15.9246 8.15702 15.9403 6.62577 16.4403C5.53202 16.7996 5.46952 16.7996 4.95389 16.5496C4.31327 16.2528 3.93827 15.7371 3.82889 15.0184C3.75077 14.5496 3.89139 14.2371 4.93827 12.6121C5.59452 11.5809 6.32889 10.4871 6.56327 10.1903C7.57889 8.92464 9.57889 8.54964 10.9851 9.37777Z" fill="black"/>
</svg>
