<svg width="16" height="16" viewBox="0 0 16 16" fill="none" xmlns="http://www.w3.org/2000/svg">
<rect width="16" height="16" fill="#1E1E1E"/>
<path d="M-2096 -760C-2096 -761.105 -2095.1 -762 -2094 -762H9030C9031.1 -762 9032 -761.105 9032 -760V3552C9032 3553.1 9031.1 3554 9030 3554H-2094C-2095.1 3554 -2096 3553.1 -2096 3552V-760Z" fill="#C9D2D5"/>
<g clip-path="url(#clip0_1_3)">
<rect x="-308" y="-221" width="390" height="1043" rx="16" fill="#EF8547"/>
<g opacity="0.2" clip-path="url(#clip1_1_3)">
<path d="M60.0204 -103.592C47.3657 -108.082 36.6766 -111.973 23.9351 -116.413C17.2407 -118.794 9.41861 -120.523 2.14476 -119.099C0.990281 -118.895 -0.11412 -118.605 -1.16844 -118.227C-3.5373 -117.322 -5.87932 -115.97 -8.1346 -114.668C-10.3899 -113.366 -12.7319 -112.014 -14.7368 -110.278C-15.5908 -109.554 -16.3947 -108.743 -17.1485 -107.845C-22.0185 -102.257 -24.3452 -94.6685 -25.7177 -87.6307C-28.1561 -74.4261 -30.1312 -63.2237 -32.6563 -49.969C-37.4589 -32.0453 -44.1627 -11.4048 -31.3941 4.70132C-23.7704 12.0966 -12.3802 17.2017 0.435313 13.1567C7.51866 10.8019 24.7747 -5.98452 46.2867 -18.4044L47.848 -19.3059C69.3599 -31.7258 92.4754 -38.3635 98.1064 -43.2338C108.017 -52.3098 109.241 -64.8133 106.699 -75.0265C99.1712 -94.2743 77.9441 -98.7889 60.0204 -103.592Z" fill="white"/>
</g>
<rect width="390" height="730" transform="translate(-308 12)" fill="#F7F7F7"/>
<g filter="url(#filter0_d_1_3)">
<rect x="-284" y="-88" width="342" height="200" rx="8" fill="white" shape-rendering="crispEdges"/>
<rect x="-260" y="-14" width="294" height="44" rx="4" fill="#F3F3F3"/>
<mask id="path-7-outside-1_1_3" maskUnits="userSpaceOnUse" x="-0.333252" y="1.33337" width="16" height="13" fill="black">
<rect fill="white" x="-0.333252" y="1.33337" width="16" height="13"/>
<path d="M2.53761 1.86566C2.49142 1.9003 2.45677 2.99742 2.45677 4.29085C2.45677 6.13862 2.42213 6.77379 2.272 7.21264L2.08722 7.77852L1.37121 7.81316L0.666748 7.84781V8.25201V8.65621L1.33656 8.69085L1.99483 8.7255V9.17589V9.62629L1.33656 9.66093L0.666748 9.69558V10.0998V10.504L1.42895 10.5386L2.17961 10.5733L2.34129 11.0006C2.58381 11.6704 3.77331 12.7906 4.57016 13.0793C5.18223 13.3103 5.44785 13.3334 8.00008 13.3334C10.5523 13.3334 10.8179 13.3103 11.43 13.0793C12.2269 12.7906 13.4164 11.6704 13.6589 11.0006L13.8206 10.5733L14.5712 10.5386L15.3334 10.504V10.0998V9.69558L14.6751 9.66093L14.0053 9.62629V9.17589V8.7255L14.6751 8.69085L15.3334 8.65621V8.25201V7.84781L14.6174 7.81316C13.9014 7.77852 13.9014 7.77852 13.7513 7.35122C13.6704 7.09715 13.5896 5.93075 13.5434 4.38324L13.4856 1.84256L12.8967 1.80791C12.0767 1.76172 11.1875 2.11972 10.4022 2.82419C9.80166 3.36697 9.74391 3.39007 9.37436 3.28613C8.86622 3.136 7.13394 3.136 6.6258 3.28613C6.25625 3.39007 6.19851 3.36697 5.59798 2.82419C5.23998 2.50083 4.6741 2.14282 4.33919 2.01579C3.73866 1.79637 2.68775 1.70398 2.53761 1.86566ZM4.16596 3.04361C4.39693 3.1591 4.72029 3.39007 4.85887 3.55175L5.13604 3.84046L4.89352 3.97904C4.75494 4.04833 4.36229 4.33705 4.01583 4.62576L3.38066 5.1339V3.97904C3.38066 2.6856 3.40376 2.65096 4.16596 3.04361ZM12.6195 3.97904V5.1339L11.9843 4.62576C11.6379 4.33705 11.2452 4.04833 11.1066 3.97904L10.8641 3.84046L11.1413 3.55175C11.4531 3.21684 12.1229 2.83574 12.4232 2.82419C12.5964 2.82419 12.6195 2.95122 12.6195 3.97904ZM9.0741 4.26776C9.50139 4.36014 10.1135 4.56802 10.4253 4.74125C11.3954 5.27248 12.4809 6.55437 12.7812 7.52445C12.8505 7.74387 12.8158 7.79007 12.6426 7.79007C12.3192 7.79007 12.1229 8.07878 12.2038 8.42524C12.2615 8.66776 12.3423 8.71395 12.6772 8.71395C13.0699 8.71395 13.0814 8.7255 13.0814 9.17589C13.0814 9.60319 13.0583 9.63784 12.7465 9.63784C12.5618 9.63784 12.3539 9.71868 12.273 9.81106C12.0652 10.0536 12.2269 10.5386 12.5156 10.5848C12.7581 10.6195 12.7465 10.6426 12.377 11.1276C12.1576 11.4048 11.6956 11.7974 11.3492 11.9937L10.714 12.3517H8.04628H5.39011L4.70874 12.0053C4.2699 11.7859 3.87725 11.4625 3.63473 11.1391C3.25362 10.6426 3.24208 10.6195 3.4846 10.5848C3.77331 10.5386 3.93499 10.0536 3.72712 9.81106C3.64628 9.71868 3.4384 9.63784 3.25362 9.63784C2.94181 9.63784 2.91872 9.60319 2.91872 9.17589C2.91872 8.7255 2.93027 8.71395 3.32292 8.71395C3.65782 8.71395 3.73866 8.66776 3.79641 8.42524C3.87725 8.07878 3.68092 7.79007 3.35756 7.79007C3.09194 7.79007 3.13814 7.5591 3.58853 6.71605C4.2237 5.52655 5.51714 4.56802 6.87987 4.26776C7.8153 4.05988 8.12712 4.05988 9.0741 4.26776Z"/>
</mask>
<path d="M2.53761 1.86566C2.49142 1.9003 2.45677 2.99742 2.45677 4.29085C2.45677 6.13862 2.42213 6.77379 2.272 7.21264L2.08722 7.77852L1.37121 7.81316L0.666748 7.84781V8.25201V8.65621L1.33656 8.69085L1.99483 8.7255V9.17589V9.62629L1.33656 9.66093L0.666748 9.69558V10.0998V10.504L1.42895 10.5386L2.17961 10.5733L2.34129 11.0006C2.58381 11.6704 3.77331 12.7906 4.57016 13.0793C5.18223 13.3103 5.44785 13.3334 8.00008 13.3334C10.5523 13.3334 10.8179 13.3103 11.43 13.0793C12.2269 12.7906 13.4164 11.6704 13.6589 11.0006L13.8206 10.5733L14.5712 10.5386L15.3334 10.504V10.0998V9.69558L14.6751 9.66093L14.0053 9.62629V9.17589V8.7255L14.6751 8.69085L15.3334 8.65621V8.25201V7.84781L14.6174 7.81316C13.9014 7.77852 13.9014 7.77852 13.7513 7.35122C13.6704 7.09715 13.5896 5.93075 13.5434 4.38324L13.4856 1.84256L12.8967 1.80791C12.0767 1.76172 11.1875 2.11972 10.4022 2.82419C9.80166 3.36697 9.74391 3.39007 9.37436 3.28613C8.86622 3.136 7.13394 3.136 6.6258 3.28613C6.25625 3.39007 6.19851 3.36697 5.59798 2.82419C5.23998 2.50083 4.6741 2.14282 4.33919 2.01579C3.73866 1.79637 2.68775 1.70398 2.53761 1.86566ZM4.16596 3.04361C4.39693 3.1591 4.72029 3.39007 4.85887 3.55175L5.13604 3.84046L4.89352 3.97904C4.75494 4.04833 4.36229 4.33705 4.01583 4.62576L3.38066 5.1339V3.97904C3.38066 2.6856 3.40376 2.65096 4.16596 3.04361ZM12.6195 3.97904V5.1339L11.9843 4.62576C11.6379 4.33705 11.2452 4.04833 11.1066 3.97904L10.8641 3.84046L11.1413 3.55175C11.4531 3.21684 12.1229 2.83574 12.4232 2.82419C12.5964 2.82419 12.6195 2.95122 12.6195 3.97904ZM9.0741 4.26776C9.50139 4.36014 10.1135 4.56802 10.4253 4.74125C11.3954 5.27248 12.4809 6.55437 12.7812 7.52445C12.8505 7.74387 12.8158 7.79007 12.6426 7.79007C12.3192 7.79007 12.1229 8.07878 12.2038 8.42524C12.2615 8.66776 12.3423 8.71395 12.6772 8.71395C13.0699 8.71395 13.0814 8.7255 13.0814 9.17589C13.0814 9.60319 13.0583 9.63784 12.7465 9.63784C12.5618 9.63784 12.3539 9.71868 12.273 9.81106C12.0652 10.0536 12.2269 10.5386 12.5156 10.5848C12.7581 10.6195 12.7465 10.6426 12.377 11.1276C12.1576 11.4048 11.6956 11.7974 11.3492 11.9937L10.714 12.3517H8.04628H5.39011L4.70874 12.0053C4.2699 11.7859 3.87725 11.4625 3.63473 11.1391C3.25362 10.6426 3.24208 10.6195 3.4846 10.5848C3.77331 10.5386 3.93499 10.0536 3.72712 9.81106C3.64628 9.71868 3.4384 9.63784 3.25362 9.63784C2.94181 9.63784 2.91872 9.60319 2.91872 9.17589C2.91872 8.7255 2.93027 8.71395 3.32292 8.71395C3.65782 8.71395 3.73866 8.66776 3.79641 8.42524C3.87725 8.07878 3.68092 7.79007 3.35756 7.79007C3.09194 7.79007 3.13814 7.5591 3.58853 6.71605C4.2237 5.52655 5.51714 4.56802 6.87987 4.26776C7.8153 4.05988 8.12712 4.05988 9.0741 4.26776Z" fill="#9FA7BB"/>
<path d="M2.53761 1.86566C2.49142 1.9003 2.45677 2.99742 2.45677 4.29085C2.45677 6.13862 2.42213 6.77379 2.272 7.21264L2.08722 7.77852L1.37121 7.81316L0.666748 7.84781V8.25201V8.65621L1.33656 8.69085L1.99483 8.7255V9.17589V9.62629L1.33656 9.66093L0.666748 9.69558V10.0998V10.504L1.42895 10.5386L2.17961 10.5733L2.34129 11.0006C2.58381 11.6704 3.77331 12.7906 4.57016 13.0793C5.18223 13.3103 5.44785 13.3334 8.00008 13.3334C10.5523 13.3334 10.8179 13.3103 11.43 13.0793C12.2269 12.7906 13.4164 11.6704 13.6589 11.0006L13.8206 10.5733L14.5712 10.5386L15.3334 10.504V10.0998V9.69558L14.6751 9.66093L14.0053 9.62629V9.17589V8.7255L14.6751 8.69085L15.3334 8.65621V8.25201V7.84781L14.6174 7.81316C13.9014 7.77852 13.9014 7.77852 13.7513 7.35122C13.6704 7.09715 13.5896 5.93075 13.5434 4.38324L13.4856 1.84256L12.8967 1.80791C12.0767 1.76172 11.1875 2.11972 10.4022 2.82419C9.80166 3.36697 9.74391 3.39007 9.37436 3.28613C8.86622 3.136 7.13394 3.136 6.6258 3.28613C6.25625 3.39007 6.19851 3.36697 5.59798 2.82419C5.23998 2.50083 4.6741 2.14282 4.33919 2.01579C3.73866 1.79637 2.68775 1.70398 2.53761 1.86566ZM4.16596 3.04361C4.39693 3.1591 4.72029 3.39007 4.85887 3.55175L5.13604 3.84046L4.89352 3.97904C4.75494 4.04833 4.36229 4.33705 4.01583 4.62576L3.38066 5.1339V3.97904C3.38066 2.6856 3.40376 2.65096 4.16596 3.04361ZM12.6195 3.97904V5.1339L11.9843 4.62576C11.6379 4.33705 11.2452 4.04833 11.1066 3.97904L10.8641 3.84046L11.1413 3.55175C11.4531 3.21684 12.1229 2.83574 12.4232 2.82419C12.5964 2.82419 12.6195 2.95122 12.6195 3.97904ZM9.0741 4.26776C9.50139 4.36014 10.1135 4.56802 10.4253 4.74125C11.3954 5.27248 12.4809 6.55437 12.7812 7.52445C12.8505 7.74387 12.8158 7.79007 12.6426 7.79007C12.3192 7.79007 12.1229 8.07878 12.2038 8.42524C12.2615 8.66776 12.3423 8.71395 12.6772 8.71395C13.0699 8.71395 13.0814 8.7255 13.0814 9.17589C13.0814 9.60319 13.0583 9.63784 12.7465 9.63784C12.5618 9.63784 12.3539 9.71868 12.273 9.81106C12.0652 10.0536 12.2269 10.5386 12.5156 10.5848C12.7581 10.6195 12.7465 10.6426 12.377 11.1276C12.1576 11.4048 11.6956 11.7974 11.3492 11.9937L10.714 12.3517H8.04628H5.39011L4.70874 12.0053C4.2699 11.7859 3.87725 11.4625 3.63473 11.1391C3.25362 10.6426 3.24208 10.6195 3.4846 10.5848C3.77331 10.5386 3.93499 10.0536 3.72712 9.81106C3.64628 9.71868 3.4384 9.63784 3.25362 9.63784C2.94181 9.63784 2.91872 9.60319 2.91872 9.17589C2.91872 8.7255 2.93027 8.71395 3.32292 8.71395C3.65782 8.71395 3.73866 8.66776 3.79641 8.42524C3.87725 8.07878 3.68092 7.79007 3.35756 7.79007C3.09194 7.79007 3.13814 7.5591 3.58853 6.71605C4.2237 5.52655 5.51714 4.56802 6.87987 4.26776C7.8153 4.05988 8.12712 4.05988 9.0741 4.26776Z" stroke="#9FA7BB" stroke-width="0.2" mask="url(#path-7-outside-1_1_3)"/>
<mask id="path-8-outside-2_1_3" maskUnits="userSpaceOnUse" x="4.24243" y="5.28503" width="3" height="3" fill="black">
<rect fill="white" x="4.24243" y="5.28503" width="3" height="3"/>
<path d="M5.54024 6.35812C5.27462 6.50825 5.21688 6.60064 5.25152 6.9009L5.28617 7.27046L6.03683 7.282C6.86832 7.3051 7.0762 7.20116 7.0762 6.79696C7.0762 6.61219 6.96071 6.4736 6.72974 6.34657C6.31399 6.12715 5.95599 6.12715 5.54024 6.35812Z"/>
</mask>
<path d="M5.54024 6.35812C5.27462 6.50825 5.21688 6.60064 5.25152 6.9009L5.28617 7.27046L6.03683 7.282C6.86832 7.3051 7.0762 7.20116 7.0762 6.79696C7.0762 6.61219 6.96071 6.4736 6.72974 6.34657C6.31399 6.12715 5.95599 6.12715 5.54024 6.35812Z" fill="#9FA7BB"/>
<path d="M5.54024 6.35812C5.27462 6.50825 5.21688 6.60064 5.25152 6.9009L5.28617 7.27046L6.03683 7.282C6.86832 7.3051 7.0762 7.20116 7.0762 6.79696C7.0762 6.61219 6.96071 6.4736 6.72974 6.34657C6.31399 6.12715 5.95599 6.12715 5.54024 6.35812Z" stroke="#9FA7BB" stroke-width="0.2" mask="url(#path-8-outside-2_1_3)"/>
<mask id="path-9-outside-3_1_3" maskUnits="userSpaceOnUse" x="7.92041" y="5.28369" width="3" height="3" fill="black">
<rect fill="white" x="7.92041" y="5.28369" width="3" height="3"/>
<path d="M9.24723 6.35803C8.90077 6.5428 8.80838 6.98165 9.074 7.18952C9.14329 7.24726 9.54749 7.29346 9.96324 7.28191L10.7139 7.27036L10.7485 6.90081C10.7832 6.589 10.7254 6.50816 10.4367 6.35803C10.0094 6.12705 9.65143 6.12705 9.24723 6.35803Z"/>
</mask>
<path d="M9.24723 6.35803C8.90077 6.5428 8.80838 6.98165 9.074 7.18952C9.14329 7.24726 9.54749 7.29346 9.96324 7.28191L10.7139 7.27036L10.7485 6.90081C10.7832 6.589 10.7254 6.50816 10.4367 6.35803C10.0094 6.12705 9.65143 6.12705 9.24723 6.35803Z" fill="#9FA7BB"/>
<path d="M9.24723 6.35803C8.90077 6.5428 8.80838 6.98165 9.074 7.18952C9.14329 7.24726 9.54749 7.29346 9.96324 7.28191L10.7139 7.27036L10.7485 6.90081C10.7832 6.589 10.7254 6.50816 10.4367 6.35803C10.0094 6.12705 9.65143 6.12705 9.24723 6.35803Z" stroke="#9FA7BB" stroke-width="0.2" mask="url(#path-9-outside-3_1_3)"/>
<mask id="path-10-outside-4_1_3" maskUnits="userSpaceOnUse" x="4.70386" y="7.54797" width="6" height="4" fill="black">
<rect fill="white" x="4.70386" y="7.54797" width="6" height="4"/>
<path d="M7.15695 7.85946C7.11076 7.90565 7.07611 8.10198 7.07611 8.28675C7.07611 8.51773 7.14541 8.63321 7.30709 8.67941C7.58425 8.7487 7.6189 9.19909 7.35328 9.45316C7.06457 9.75342 6.85669 9.66103 6.60262 9.11825C6.47559 8.85263 6.3601 8.77179 6.09449 8.77179C5.77113 8.77179 5.74803 8.80644 5.71338 9.26838C5.67874 9.70723 5.72493 9.81116 6.08294 10.1692C6.48714 10.5734 6.52178 10.5849 7.15695 10.5156C7.52651 10.481 7.90761 10.4463 8 10.4463C8.09239 10.4463 8.47349 10.481 8.84304 10.5156C9.47821 10.5849 9.51286 10.5734 9.91706 10.1692C10.2751 9.81116 10.3213 9.70723 10.2866 9.26838C10.252 8.80644 10.2289 8.77179 9.90551 8.77179C9.63989 8.77179 9.52441 8.85263 9.39737 9.11825C9.14331 9.66103 8.93543 9.75342 8.64672 9.45316C8.3811 9.18754 8.41575 8.7487 8.70446 8.67941C8.88924 8.63321 8.93543 8.54082 8.90079 8.22901L8.86614 7.84791L8.05774 7.81326C7.60735 7.80172 7.20315 7.81326 7.15695 7.85946Z"/>
</mask>
<path d="M7.15695 7.85946C7.11076 7.90565 7.07611 8.10198 7.07611 8.28675C7.07611 8.51773 7.14541 8.63321 7.30709 8.67941C7.58425 8.7487 7.6189 9.19909 7.35328 9.45316C7.06457 9.75342 6.85669 9.66103 6.60262 9.11825C6.47559 8.85263 6.3601 8.77179 6.09449 8.77179C5.77113 8.77179 5.74803 8.80644 5.71338 9.26838C5.67874 9.70723 5.72493 9.81116 6.08294 10.1692C6.48714 10.5734 6.52178 10.5849 7.15695 10.5156C7.52651 10.481 7.90761 10.4463 8 10.4463C8.09239 10.4463 8.47349 10.481 8.84304 10.5156C9.47821 10.5849 9.51286 10.5734 9.91706 10.1692C10.2751 9.81116 10.3213 9.70723 10.2866 9.26838C10.252 8.80644 10.2289 8.77179 9.90551 8.77179C9.63989 8.77179 9.52441 8.85263 9.39737 9.11825C9.14331 9.66103 8.93543 9.75342 8.64672 9.45316C8.3811 9.18754 8.41575 8.7487 8.70446 8.67941C8.88924 8.63321 8.93543 8.54082 8.90079 8.22901L8.86614 7.84791L8.05774 7.81326C7.60735 7.80172 7.20315 7.81326 7.15695 7.85946Z" fill="#9FA7BB"/>
<path d="M7.15695 7.85946C7.11076 7.90565 7.07611 8.10198 7.07611 8.28675C7.07611 8.51773 7.14541 8.63321 7.30709 8.67941C7.58425 8.7487 7.6189 9.19909 7.35328 9.45316C7.06457 9.75342 6.85669 9.66103 6.60262 9.11825C6.47559 8.85263 6.3601 8.77179 6.09449 8.77179C5.77113 8.77179 5.74803 8.80644 5.71338 9.26838C5.67874 9.70723 5.72493 9.81116 6.08294 10.1692C6.48714 10.5734 6.52178 10.5849 7.15695 10.5156C7.52651 10.481 7.90761 10.4463 8 10.4463C8.09239 10.4463 8.47349 10.481 8.84304 10.5156C9.47821 10.5849 9.51286 10.5734 9.91706 10.1692C10.2751 9.81116 10.3213 9.70723 10.2866 9.26838C10.252 8.80644 10.2289 8.77179 9.90551 8.77179C9.63989 8.77179 9.52441 8.85263 9.39737 9.11825C9.14331 9.66103 8.93543 9.75342 8.64672 9.45316C8.3811 9.18754 8.41575 8.7487 8.70446 8.67941C8.88924 8.63321 8.93543 8.54082 8.90079 8.22901L8.86614 7.84791L8.05774 7.81326C7.60735 7.80172 7.20315 7.81326 7.15695 7.85946Z" stroke="#9FA7BB" stroke-width="0.2" mask="url(#path-10-outside-4_1_3)"/>
</g>
</g>
<g filter="url(#filter1_d_1_3)">
<path d="M104 -205C104 -210.601 104 -213.401 105.09 -215.54C106.049 -217.422 107.578 -218.951 109.46 -219.91C111.599 -221 114.399 -221 120 -221H481C486.601 -221 489.401 -221 491.54 -219.91C493.422 -218.951 494.951 -217.422 495.91 -215.54C497 -213.401 497 -210.601 497 -205V579H104V-205Z" fill="white" shape-rendering="crispEdges"/>
</g>
<path d="M-2094 -761H9030V-763H-2094V-761ZM9031 -760V3552H9033V-760H9031ZM9030 3553H-2094V3555H9030V3553ZM-2095 3552V-760H-2097V3552H-2095ZM-2094 3553C-2094.55 3553 -2095 3552.55 -2095 3552H-2097C-2097 3553.66 -2095.66 3555 -2094 3555V3553ZM9031 3552C9031 3552.55 9030.55 3553 9030 3553V3555C9031.66 3555 9033 3553.66 9033 3552H9031ZM9030 -761C9030.55 -761 9031 -760.552 9031 -760H9033C9033 -761.657 9031.66 -763 9030 -763V-761ZM-2094 -763C-2095.66 -763 -2097 -761.657 -2097 -760H-2095C-2095 -760.552 -2094.55 -761 -2094 -761V-763Z" fill="black" fill-opacity="0.1"/>
<defs>
<filter id="filter0_d_1_3" x="-300" y="-100" width="374" height="232" filterUnits="userSpaceOnUse" color-interpolation-filters="sRGB">
<feFlood flood-opacity="0" result="BackgroundImageFix"/>
<feColorMatrix in="SourceAlpha" type="matrix" values="0 0 0 0 0 0 0 0 0 0 0 0 0 0 0 0 0 0 127 0" result="hardAlpha"/>
<feOffset dy="4"/>
<feGaussianBlur stdDeviation="8"/>
<feComposite in2="hardAlpha" operator="out"/>
<feColorMatrix type="matrix" values="0 0 0 0 0.358333 0 0 0 0 0.132509 0 0 0 0 0 0 0 0 0.1 0"/>
<feBlend mode="normal" in2="BackgroundImageFix" result="effect1_dropShadow_1_3"/>
<feBlend mode="normal" in="SourceGraphic" in2="effect1_dropShadow_1_3" result="shape"/>
</filter>
<filter id="filter1_d_1_3" x="4" y="-321" width="593" height="1000" filterUnits="userSpaceOnUse" color-interpolation-filters="sRGB">
<feFlood flood-opacity="0" result="BackgroundImageFix"/>
<feColorMatrix in="SourceAlpha" type="matrix" values="0 0 0 0 0 0 0 0 0 0 0 0 0 0 0 0 0 0 127 0" result="hardAlpha"/>
<feOffset/>
<feGaussianBlur stdDeviation="50"/>
<feComposite in2="hardAlpha" operator="out"/>
<feColorMatrix type="matrix" values="0 0 0 0 0 0 0 0 0 0 0 0 0 0 0 0 0 0 0.05 0"/>
<feBlend mode="normal" in2="BackgroundImageFix" result="effect1_dropShadow_1_3"/>
<feBlend mode="normal" in="SourceGraphic" in2="effect1_dropShadow_1_3" result="shape"/>
</filter>
<clipPath id="clip0_1_3">
<rect x="-308" y="-221" width="390" height="1043" rx="16" fill="white"/>
</clipPath>
<clipPath id="clip1_1_3">
<rect width="240.386" height="240.386" fill="white" transform="translate(-164.809 -145.65) rotate(-30)"/>
</clipPath>
</defs>
</svg>
