<svg width="24" height="24" viewBox="0 0 24 24" fill="none" xmlns="http://www.w3.org/2000/svg">
<path d="M7.475 20.775C7.60625 20.9062 8 21 8.375 21C8.99375 21 9.33125 20.7187 13.025 17.0062C16.6812 13.35 17 12.975 17 12.375C17 11.775 16.6812 11.4 13.0062 7.725C9.33125 4.05 8.975 3.75 8.35625 3.75C7.53125 3.75 7.25 4.03125 7.25 4.85625C7.25 5.475 7.53125 5.79375 10.6625 8.94375L14.0937 12.375L10.6625 15.8062C7.53125 18.9562 7.25 19.275 7.25 19.8937C7.25 20.25 7.34375 20.6437 7.475 20.775Z" fill="black"/>
</svg>
