<svg width="116" height="116" viewBox="0 0 116 116" fill="none" xmlns="http://www.w3.org/2000/svg">
<g clip-path="url(#clip0_3677_6304)">
<path d="M89.5938 57.4027C89.5938 58.6672 89.2481 59.851 88.6435 60.8675C88.136 61.4966 87.6081 62.1071 87.0629 62.6982C80.0594 70.2839 70.0684 74.7101 59.5933 74.7101C40.1305 74.7101 23.8359 59.6612 22.497 40.4487L22.5329 40.4456C22.4602 39.7034 22.418 38.9518 22.4094 38.2112C22.4078 38.0988 22.4062 37.9857 22.4062 37.8734C22.4062 37.761 22.4078 37.6471 22.4094 37.5348C22.4805 31.8682 24.3505 26.4976 27.8159 22.0024C29.0914 20.3475 30.5602 18.8522 32.183 17.5305C34.2704 15.8315 36.6659 14.5407 39.1466 13.5018C40.6685 12.8649 42.2264 12.3187 43.7969 11.8128C46.6162 10.9032 49.4583 10.0998 52.3629 9.50167L52.7665 3.39346V3.38029L52.7673 3.3741L52.79 3.03165V3.02545C52.9675 1.69132 54.1273 0.684904 55.4881 0.684904C56.0129 0.684904 56.5213 0.832108 56.9584 1.11257C56.9584 1.11257 56.978 1.12419 56.9788 1.12497C57.1532 1.23808 57.3143 1.36979 57.4582 1.52087L57.6138 1.69751L57.6193 1.70371L63.2307 8.08696C64.6478 8.00638 66.0759 7.9661 67.5134 7.9661C69.9456 7.9661 72.3505 8.08231 74.7218 8.30932L77.1079 5.366L77.122 5.34818L80.1713 1.5875L80.1736 1.5844L80.4888 1.19547L80.4935 1.19005C81.0104 0.663985 81.7026 0.375 82.444 0.375C83.6124 0.375 84.6487 1.11025 85.0225 2.20653L85.1688 3.09518C85.5215 5.23894 85.857 7.3796 86.1815 9.52491C86.6344 12.5287 87.3938 15.4859 87.6542 18.5176C88.136 24.1276 86.399 29.7973 81.9513 33.5107C81.6736 33.7424 81.3874 33.9639 81.0941 34.1762C80.0415 34.9425 78.9012 35.5909 77.7359 36.179C74.1055 38.0097 70.1849 39.2679 66.1658 39.918C62.2727 40.5471 58.3818 40.3751 54.4675 40.3751H47.4359C47.4359 40.3751 47.4359 40.53 47.4343 40.53V40.3758C44.977 40.3758 42.978 42.3577 42.978 44.792C42.978 45.0531 43.0007 45.3111 43.0461 45.5644C43.0906 45.8185 43.1579 46.0665 43.2478 46.3082L43.2533 46.3245C43.2643 46.3539 43.2752 46.3818 43.2862 46.4112C43.3237 46.5096 43.3628 46.608 43.4027 46.7056C46.0813 54.4416 53.4884 60.0021 62.2054 60.0021C68.2133 60.0021 73.5979 57.3617 77.2416 53.188C77.3535 53.061 77.4629 52.9316 77.5709 52.8014L77.5732 52.7991C78.8363 51.4232 80.6593 50.5593 82.6849 50.5593C86.5006 50.5593 89.5938 53.6235 89.5938 57.4027Z" fill="#F3803D"/>
<path d="M22.2344 111.328C20.599 111.328 19.1823 110.979 17.9844 110.281C16.7865 109.583 15.8594 108.589 15.2031 107.297C14.5573 106.005 14.2344 104.474 14.2344 102.703V102.688C14.2344 100.927 14.5625 99.4062 15.2188 98.125C15.875 96.8333 16.7969 95.8385 17.9844 95.1406C19.1823 94.4427 20.5833 94.0938 22.1875 94.0938C23.6458 94.0938 24.9062 94.375 25.9688 94.9375C27.0312 95.4896 27.8646 96.224 28.4688 97.1406C29.0729 98.0573 29.4167 99.0677 29.5 100.172V100.281H25.8438L25.8125 100.156C25.6562 99.3542 25.276 98.6719 24.6719 98.1094C24.0781 97.5365 23.2656 97.25 22.2344 97.25C21.4219 97.25 20.7083 97.474 20.0938 97.9219C19.4896 98.3594 19.0208 98.9844 18.6875 99.7969C18.3542 100.609 18.1875 101.583 18.1875 102.719V102.734C18.1875 103.88 18.3542 104.859 18.6875 105.672C19.0312 106.484 19.5052 107.109 20.1094 107.547C20.724 107.974 21.4375 108.188 22.25 108.188C23.2396 108.188 24.0365 107.922 24.6406 107.391C25.2552 106.849 25.651 106.146 25.8281 105.281L25.8594 105.141H29.5312L29.5156 105.25C29.4115 106.396 29.0469 107.427 28.4219 108.344C27.7969 109.26 26.9583 109.99 25.9062 110.531C24.8542 111.062 23.6302 111.328 22.2344 111.328ZM36.75 111.281C35.6562 111.281 34.6875 111.073 33.8438 110.656C33.0104 110.229 32.3594 109.641 31.8906 108.891C31.4323 108.13 31.2031 107.26 31.2031 106.281V106.25C31.2031 105.26 31.4479 104.417 31.9375 103.719C32.4375 103.01 33.1562 102.453 34.0938 102.047C35.0312 101.63 36.1667 101.38 37.5 101.297L43.8281 100.906V103.484L38.0469 103.844C37.0885 103.906 36.3542 104.135 35.8438 104.531C35.3333 104.927 35.0781 105.453 35.0781 106.109V106.125C35.0781 106.802 35.3333 107.339 35.8438 107.734C36.3646 108.12 37.0521 108.312 37.9062 108.312C38.6562 108.312 39.3229 108.161 39.9062 107.859C40.5 107.557 40.9688 107.146 41.3125 106.625C41.6562 106.104 41.8281 105.516 41.8281 104.859V99.8906C41.8281 99.0573 41.5625 98.401 41.0312 97.9219C40.5104 97.4323 39.7552 97.1875 38.7656 97.1875C37.849 97.1875 37.1146 97.3854 36.5625 97.7812C36.0104 98.1667 35.6667 98.6667 35.5312 99.2812L35.5 99.4219H31.9062L31.9219 99.2344C32.0052 98.2552 32.3333 97.3802 32.9062 96.6094C33.4792 95.8281 34.2708 95.2135 35.2812 94.7656C36.3021 94.3177 37.5104 94.0938 38.9062 94.0938C40.2917 94.0938 41.4896 94.3229 42.5 94.7812C43.5208 95.2396 44.3073 95.8802 44.8594 96.7031C45.4219 97.526 45.7031 98.4948 45.7031 99.6094V111H41.8281V108.453H41.7344C41.4219 109.026 41.0156 109.526 40.5156 109.953C40.0156 110.38 39.4427 110.708 38.7969 110.938C38.1615 111.167 37.4792 111.281 36.75 111.281ZM55 111.328C53.2812 111.328 52 110.953 51.1562 110.203C50.3229 109.453 49.9062 108.224 49.9062 106.516V97.4375H47.5625V94.4375H49.9062V90.2344H53.8594V94.4375H56.9375V97.4375H53.8594V106.203C53.8594 107.005 54.0365 107.562 54.3906 107.875C54.7552 108.177 55.2865 108.328 55.9844 108.328C56.1823 108.328 56.3542 108.323 56.5 108.312C56.6562 108.292 56.8021 108.276 56.9375 108.266V111.188C56.7083 111.219 56.4271 111.25 56.0938 111.281C55.7708 111.312 55.4062 111.328 55 111.328ZM59.6094 111V94.4375H63.4844V97.0312H63.5781C64.0052 96.1354 64.6406 95.4219 65.4844 94.8906C66.3385 94.3594 67.3906 94.0938 68.6406 94.0938C70.4635 94.0938 71.8698 94.6458 72.8594 95.75C73.8594 96.8542 74.3594 98.3646 74.3594 100.281V111H70.4688V101.062C70.4688 99.8854 70.1927 98.9792 69.6406 98.3438C69.0885 97.6979 68.2604 97.375 67.1562 97.375C66.4167 97.375 65.7708 97.5469 65.2188 97.8906C64.6667 98.224 64.2396 98.6927 63.9375 99.2969C63.6354 99.8906 63.4844 100.589 63.4844 101.391V111H59.6094ZM77.5938 111V94.4375H81.4844V111H77.5938ZM79.5312 92.0625C78.9271 92.0625 78.4167 91.8542 78 91.4375C77.5833 91.0208 77.375 90.5208 77.375 89.9375C77.375 89.3438 77.5833 88.8438 78 88.4375C78.4167 88.0208 78.9271 87.8125 79.5312 87.8125C80.1458 87.8125 80.6615 88.0208 81.0781 88.4375C81.4948 88.8438 81.7031 89.3438 81.7031 89.9375C81.7031 90.5208 81.4948 91.0208 81.0781 91.4375C80.6615 91.8542 80.1458 92.0625 79.5312 92.0625ZM84.7969 116.469V94.4375H88.6719V97.2969H88.7656C89.0885 96.6302 89.4948 96.0625 89.9844 95.5938C90.4844 95.1146 91.0625 94.7448 91.7188 94.4844C92.3854 94.224 93.1094 94.0938 93.8906 94.0938C95.2969 94.0938 96.5104 94.4427 97.5312 95.1406C98.5625 95.8281 99.3542 96.8177 99.9062 98.1094C100.469 99.401 100.75 100.938 100.75 102.719V102.734C100.75 104.505 100.469 106.036 99.9062 107.328C99.3542 108.609 98.5677 109.599 97.5469 110.297C96.5365 110.984 95.3385 111.328 93.9531 111.328C93.1719 111.328 92.4427 111.203 91.7656 110.953C91.099 110.703 90.5104 110.344 90 109.875C89.4896 109.406 89.0781 108.849 88.7656 108.203H88.6719V116.469H84.7969ZM92.75 108.062C93.5833 108.062 94.3021 107.844 94.9062 107.406C95.5104 106.969 95.974 106.354 96.2969 105.562C96.6302 104.76 96.7969 103.818 96.7969 102.734V102.719C96.7969 101.604 96.6302 100.651 96.2969 99.8594C95.974 99.0573 95.5052 98.4427 94.8906 98.0156C94.2865 97.5885 93.5729 97.375 92.75 97.375C91.9479 97.375 91.2396 97.5938 90.625 98.0312C90.0104 98.4688 89.526 99.0885 89.1719 99.8906C88.8281 100.682 88.6562 101.625 88.6562 102.719V102.734C88.6562 103.818 88.8281 104.76 89.1719 105.562C89.526 106.354 90.0104 106.969 90.625 107.406C91.2396 107.844 91.9479 108.062 92.75 108.062Z" fill="#F3803D"/>
</g>
<defs>
<clipPath id="clip0_3677_6304">
<rect width="116" height="116" fill="white"/>
</clipPath>
</defs>
</svg>
