<svg width="212" height="69" viewBox="0 0 212 69" fill="none" xmlns="http://www.w3.org/2000/svg">
<g clip-path="url(#clip0_4688_19034)">
<path d="M55.8837 47.2548C55.885 48.2645 55.6118 49.2561 55.0924 50.1261C54.6692 50.6477 54.231 51.1535 53.7777 51.6434C50.8752 54.7736 47.3456 57.2746 43.4125 58.9882C39.4794 60.7017 35.2286 61.5904 30.9293 61.5979C14.7389 61.5979 1.18687 49.1269 0.072205 33.2057H0.10229C0.0421196 32.5911 0.00601709 31.969 0 31.3544C0 31.2608 0 31.1673 0 31.0752C0 30.9832 0 30.8867 0 30.7946C0.04581 26.1365 1.62377 21.6192 4.49627 17.9228C5.55832 16.5517 6.77735 15.3062 8.12908 14.2112C9.86501 12.8053 11.8582 11.7364 13.922 10.8753C15.1871 10.3467 16.4793 9.89541 17.7895 9.47526C20.1275 8.70875 22.5063 8.0694 24.9152 7.56007L25.2507 2.49895V2.48261L25.2703 2.19905C25.3424 1.66164 25.6096 1.1683 26.0224 0.810627C26.4351 0.452952 26.9654 0.255234 27.5146 0.254175C27.9485 0.253052 28.3734 0.37632 28.7376 0.609003L28.7542 0.619396C28.8996 0.712906 29.0334 0.823036 29.1528 0.9475L29.2822 1.09596L33.9454 6.38573C35.1227 6.31941 36.3101 6.28576 37.5075 6.28477C39.5313 6.28477 41.5299 6.37979 43.5035 6.56982L45.4877 4.13056L45.4997 4.11572L48.0359 0.997978L48.2992 0.675812C48.5696 0.401731 48.9069 0.200741 49.2786 0.0920745C49.6503 -0.0165924 50.044 -0.0293011 50.4221 0.0551643C50.8002 0.13963 51.15 0.318443 51.4381 0.574496C51.7262 0.830549 51.9428 1.15527 52.0674 1.5176L52.1892 2.25992C52.483 4.04148 52.7638 5.81761 53.0316 7.58828C53.4077 10.078 54.0395 12.5277 54.2561 15.0412C54.6562 19.6896 53.2121 24.3944 49.5116 27.4646C49.2814 27.6576 49.0438 27.8402 48.7986 28.0169C47.9216 28.64 46.9949 29.1921 46.0277 29.6678C42.9994 31.1837 39.752 32.2289 36.4004 32.7662C33.1617 33.2874 29.932 33.1448 26.6692 33.1448H20.8161C20.2738 33.1449 19.7381 33.2624 19.2468 33.489C18.7555 33.7156 18.3205 34.0458 17.9725 34.4563C17.6245 34.8668 17.372 35.3477 17.2328 35.865C17.0936 36.3823 17.071 36.9234 17.1667 37.4503C17.2034 37.6607 17.2593 37.8674 17.3337 38.0679V38.0812C17.3427 38.105 17.3518 38.1287 17.3623 38.1525C17.3924 38.2342 17.4255 38.3158 17.4586 38.396C18.4029 41.1098 20.0555 43.5299 22.2499 45.4123C24.4442 47.2947 27.1026 48.5728 29.9571 49.1177C32.8116 49.6625 35.7611 49.455 38.5084 48.5159C41.2556 47.5769 43.7035 45.9395 45.605 43.7689C45.6983 43.6635 45.79 43.5566 45.8788 43.4482C46.6589 42.601 47.6804 42.0067 48.8092 41.7433C49.9379 41.4799 51.121 41.5598 52.2029 41.9725C53.2848 42.3852 54.2148 43.1113 54.8707 44.0554C55.5266 44.9996 55.8776 46.1175 55.8777 47.2622L55.8837 47.2548Z" fill="url(#paint0_linear_4688_19034)"/>
<path d="M78.9618 56.7104C77.8076 57.5259 76.6518 58.2608 75.4945 58.9151C74.3349 59.5707 73.058 59.9992 71.7338 60.177C70.1658 60.4924 68.5429 60.4195 67.0104 59.9647C65.5884 59.5444 64.2759 58.8241 63.164 57.8535C62.0658 56.8745 61.2086 55.6609 60.6579 54.3053C60.058 52.8391 59.7688 51.2672 59.8079 49.6866C59.8288 47.9655 60.1144 46.2575 60.6549 44.621C61.1658 43.0414 61.9143 41.5465 62.8752 40.1864C63.8321 38.8464 65.0133 37.6772 66.3681 36.7286C67.7847 35.7346 69.3762 35.0092 71.0614 34.5893C71.7627 34.3654 72.4924 34.2399 73.2291 34.2166C73.9872 34.1899 74.7338 34.131 75.4689 34.04C75.8461 33.9936 76.2266 33.9802 76.6062 33.9999C76.9958 34.0192 77.3778 34.0281 77.7464 34.0251C77.4827 33.1863 77.0183 32.4225 76.3925 31.7982C75.804 31.2097 75.0982 30.7481 74.3197 30.4427C73.5551 30.1469 72.7276 30.0448 71.9128 30.1458C71.0814 30.2434 70.2884 30.5462 69.6068 31.0262C69.1638 31.2527 68.7493 31.5297 68.3718 31.8516C67.9789 32.1834 67.5416 32.4602 67.0721 32.6741C65.5573 33.4164 64.1929 33.1729 62.9474 31.9318C61.6552 30.6995 61.3423 29.2045 61.9876 27.4304C62.9083 25.2212 64.1342 23.5436 65.7483 22.4034C67.3624 21.2632 69.3255 20.5728 71.6496 20.3472C73.5757 20.1646 75.5194 20.3358 77.3824 20.8519C79.1806 21.3512 80.8614 22.1958 82.3284 23.3372C83.8337 24.5193 85.0972 25.9734 86.0515 27.6219C87.102 29.4456 87.8262 31.4345 88.1921 33.501C88.6627 36.1297 88.9452 38.7879 89.0375 41.4557C89.1297 44.1093 89.1964 46.7638 89.2375 49.4193C89.2245 50.3042 89.1959 51.1667 89.1518 52.007C89.1077 52.8474 89.0254 53.6886 88.9051 54.5309C88.8138 55.0614 88.699 55.5915 88.5606 56.121C88.4231 56.6494 88.2211 57.1594 87.9589 57.6398C87.466 58.5191 86.7678 59.2699 85.9221 59.8296C85.2183 60.2977 84.4047 60.5798 83.5589 60.6491C82.7655 60.6995 81.9754 60.5105 81.2935 60.1072C80.5714 59.6975 80.0043 59.0472 79.5831 58.1594C79.442 57.9289 79.3279 57.6834 79.2431 57.4275C79.1519 57.1662 79.0581 56.9271 78.9618 56.7104ZM71.2284 52.5089C71.3783 52.5205 71.529 52.5008 71.6706 52.451C73.0664 51.9298 74.3469 51.1474 75.4418 50.1468C76.5402 49.1316 77.4603 47.9436 78.1646 46.6312C78.5226 46.1066 78.5472 45.6142 78.2383 45.154C78.0922 44.9301 77.8985 44.7402 77.6707 44.5974C77.443 44.4547 77.1865 44.3624 76.919 44.327C76.1643 44.2434 75.4002 44.3402 74.6912 44.6091C73.8881 44.8932 73.1323 45.2935 72.4483 45.7968C71.7436 46.3128 71.1047 46.911 70.5454 47.5784C70.0243 48.169 69.6398 48.8646 69.4187 49.6168C69.1329 50.4794 69.151 51.1742 69.4849 51.6953C69.8189 52.2164 70.3965 52.4955 71.2284 52.5089Z" fill="url(#paint1_linear_4688_19034)"/>
<path d="M100.291 38.9389C99.6337 38.8944 98.847 38.8172 97.9249 38.7058C97.0207 38.5992 96.1326 38.3874 95.2789 38.0749C94.4901 37.7975 93.7793 37.3396 93.2045 36.7387C92.6614 36.1626 92.4207 35.3877 92.4734 34.4123C92.526 33.4369 92.7607 32.6307 93.1849 31.9789C93.6066 31.335 94.1728 30.7955 94.8396 30.4023C95.5535 29.9849 96.332 29.6865 97.1442 29.5189C98.038 29.3286 98.942 29.1884 99.8518 29.0987C99.8007 28.0724 99.742 27.047 99.6758 26.0226C99.5134 24.1509 99.4101 22.2773 99.366 20.4017C99.3201 18.5191 99.4237 16.6357 99.6758 14.769C99.7721 13.3824 100.241 12.2451 101.105 11.3544C101.938 10.4815 103.057 9.92813 104.264 9.79252C105.597 9.63772 106.945 9.913 108.107 10.5772C109.269 11.2414 110.181 12.2588 110.708 13.4774C110.965 14.0471 111.152 14.6452 111.265 15.259C111.375 15.871 111.452 16.4885 111.495 17.1088C111.602 18.635 111.665 20.1281 111.683 21.588C111.701 23.0479 111.722 24.5181 111.745 25.9988C111.76 26.3581 111.773 26.6832 111.784 26.9742C111.799 27.3014 111.832 27.6275 111.883 27.9511C112.543 27.9511 113.154 27.9333 113.711 27.9081C114.261 27.8839 114.811 27.9153 115.355 28.0016C116.285 28.0671 117.185 28.3528 117.98 28.8345C118.723 29.2938 119.35 29.9155 119.812 30.6517C120.293 31.4301 120.583 32.3085 120.659 33.2171C120.735 34.1256 120.596 35.0391 120.251 35.885C119.768 37.0569 119.096 37.9012 118.236 38.4178C117.321 38.958 116.288 39.2741 115.224 39.3398C114.623 39.3849 114.021 39.3963 113.419 39.3739C112.784 39.3512 112.119 39.3398 111.423 39.3398C111.383 40.9996 111.362 42.5476 111.361 43.9837C111.36 45.4199 111.403 46.8223 111.489 48.1912C111.574 49.561 111.683 50.9086 111.817 52.2338C111.95 53.5591 112.125 54.9631 112.342 56.4458C112.428 57.3235 112.314 58.209 112.009 59.0379C111.709 59.8198 111.12 60.4548 110.245 60.9427C108.62 61.8246 107.122 61.694 105.782 60.5597C104.47 59.5605 103.482 58.1947 102.794 56.4665C102.082 54.6437 101.563 52.7531 101.245 50.8249C100.895 48.7853 100.663 46.7278 100.55 44.6622C100.423 42.5852 100.332 40.6759 100.291 38.9389Z" fill="url(#paint2_linear_4688_19034)"/>
<path d="M134.417 23.5003C135.915 23.1381 137.312 22.7659 138.608 22.3839C139.894 22.0007 141.22 21.7622 142.561 21.6727C145.326 21.3624 147.579 21.7648 149.299 22.8753C151.018 23.9858 152.342 25.5343 153.281 27.5177C154.219 29.5012 154.856 31.7876 155.212 34.3738C155.566 36.9455 155.762 39.536 155.8 42.131C155.838 44.7173 155.785 47.1793 155.639 49.5171C155.489 51.8569 155.352 53.7691 155.2 55.2552C155.149 56.0155 154.958 56.7602 154.636 57.4525C154.314 58.1463 153.885 58.7868 153.365 59.3513C152.852 59.9097 152.241 60.3707 151.56 60.7113C150.323 61.256 148.942 61.3934 147.62 61.1032C146.982 60.925 146.365 60.7246 145.77 60.5019C143.941 59.8309 143.054 58.4348 143.11 56.3138C143.21 54.554 143.302 52.7952 143.385 51.0374C143.469 49.2796 143.547 47.5203 143.62 45.7595C143.613 44.451 143.618 43.1317 143.635 41.8014C143.652 40.4712 143.662 39.1296 143.665 37.7766C143.665 37.3312 143.646 36.8754 143.607 36.4241C143.564 35.9621 143.463 35.5072 143.306 35.0701C143.133 34.532 142.829 34.044 142.42 33.6493C142.073 33.311 141.637 33.0763 141.161 32.9723C140.703 32.8827 140.228 32.9416 139.807 33.1401C139.311 33.3796 138.886 33.7411 138.573 34.1897C137.524 35.5822 136.806 37.1904 136.473 38.8945C136.146 40.5798 135.982 42.2918 135.983 44.0076C135.983 46.0386 136.033 48.024 136.133 49.964C136.234 51.9039 136.284 53.8894 136.284 55.9203C136.295 57.1404 136.015 58.3458 135.465 59.4389C135.23 59.7848 134.954 60.1026 134.644 60.3861C134.373 60.6677 134.018 60.8574 133.63 60.928C132.444 61.2804 131.22 61.4941 129.984 61.5649C128.747 61.6244 127.511 61.4245 126.357 60.9785C125.785 60.7613 125.291 60.3835 124.934 59.8917C124.566 59.3788 124.297 58.8036 124.14 58.1948C123.968 57.553 123.86 56.8962 123.818 56.2336C123.773 55.5566 123.757 54.9256 123.77 54.3407C123.949 50.2401 124.087 46.1732 124.182 42.1399C124.277 38.1067 124.338 34.062 124.364 30.006C124.39 29.2253 124.46 28.4467 124.573 27.6736C124.682 26.933 124.833 26.199 125.024 25.4749C125.325 24.1664 125.813 23.094 126.488 22.2577C127.169 21.4157 128.12 20.8285 129.185 20.5934C130.355 20.3658 131.352 20.5221 132.176 21.0625C132.999 21.6029 133.701 22.3918 134.282 23.4291C134.307 23.5028 134.361 23.5636 134.432 23.5983C134.512 23.6235 134.501 23.5894 134.417 23.5003Z" fill="url(#paint3_linear_4688_19034)"/>
<path d="M160.186 38.5307C160.282 37.4911 160.65 36.4939 161.255 35.6372C161.79 34.8727 162.508 34.2505 163.345 33.8259C164.159 33.424 165.066 33.2411 165.975 33.2959C166.944 33.3542 167.875 33.6832 168.662 34.2446C169.606 34.9262 170.336 35.8572 170.768 36.9303C171.168 37.9987 171.29 39.1496 171.121 40.2767C170.922 41.6401 170.847 43.0184 170.897 44.3951C170.947 45.755 171.02 47.1045 171.115 48.4437C171.21 49.7828 171.311 51.1215 171.416 52.4596C171.516 53.7747 171.532 55.0946 171.465 56.4117C171.423 57.4836 171.153 58.3685 170.646 59.0677C170.165 59.7465 169.499 60.2776 168.726 60.5999C167.937 60.9248 167.085 61.0724 166.231 61.0319C165.337 60.9986 164.463 60.7667 163.673 60.3534C162.843 59.9178 162.123 59.3027 161.567 58.554C160.975 57.7751 160.607 56.8017 160.465 55.6338C160.113 52.7635 159.885 49.9021 159.782 47.0496C159.674 44.2038 159.81 41.3541 160.186 38.5307ZM173.176 24.0273C173.107 24.8219 172.873 25.594 172.49 26.2958C172.094 27.0454 171.583 27.7303 170.977 28.3268C170.37 28.9236 169.668 29.4173 168.898 29.7877C168.168 30.1506 167.371 30.3628 166.556 30.4113C165.811 30.4591 165.066 30.3409 164.374 30.0653C163.724 29.807 163.137 29.4141 162.653 28.9133C162.166 28.4031 161.779 27.8081 161.512 27.1584C161.227 26.4755 161.1 25.7386 161.14 25.0012C161.169 23.8386 161.535 22.7084 162.193 21.744C162.795 20.8638 163.597 20.1339 164.534 19.612C165.437 19.1098 166.442 18.8103 167.476 18.7346C168.453 18.6479 169.436 18.7862 170.349 19.1384C171.221 19.4829 171.961 20.0896 172.464 20.8725C172.997 21.6831 173.23 22.7342 173.176 24.0273Z" fill="url(#paint4_linear_4688_19034)"/>
<path d="M192.643 57.7716C192.833 58.8673 193.055 59.9298 193.308 60.9592C193.56 61.9885 193.758 63.008 193.9 64.0175C194.161 65.4205 194.081 66.5028 193.631 67.2659C193.181 68.029 192.264 68.5174 190.869 68.7312C189.286 69.0407 187.661 69.0819 186.063 68.853C184.97 68.7729 183.933 68.3405 183.113 67.6222C182.278 66.8758 181.642 65.9375 181.261 64.8905C181.087 64.5533 180.95 64.1984 180.854 63.8319C180.763 63.4766 180.669 63.1 180.572 62.7021C179.495 58.4086 178.612 54.1085 177.922 49.8021C177.231 45.5093 176.999 41.1567 177.23 36.816C177.297 35.233 177.444 33.6544 177.671 32.0859C177.901 30.4875 178.134 28.8895 178.367 27.292C178.459 26.7702 178.6 26.2582 178.79 25.7629C180.347 21.2021 183.558 18.7643 188.128 18.4555C189.154 18.3872 190.151 18.308 191.117 18.2179C192.084 18.1279 193.064 18.0289 194.058 17.921C198.206 17.2648 201.71 18.1289 204.533 20.4568C209.859 24.7207 211.944 30.4499 211.997 37.7587C212.018 40.7102 211.586 43.3484 210.608 45.6956C209.606 48.0837 208.056 50.2103 206.082 51.9088C204.233 53.5251 202.155 54.8674 199.914 55.8936C197.62 56.934 195.159 57.5696 192.643 57.7716ZM190.31 46.9872C193.985 46.4335 196.946 44.9206 199.298 42.4784C199.501 42.3006 199.673 42.0903 199.806 41.8563C199.963 41.5756 200.091 41.2808 200.191 40.9759C200.903 38.8974 201.154 37.156 200.894 35.7649C200.662 34.4187 200 33.1808 199.006 32.2314C198.243 31.5102 197.367 30.9161 196.411 30.4721C195.504 30.0255 194.509 29.7803 193.496 29.7536C192.564 29.737 191.656 30.0427 190.929 30.6176C190.168 31.2026 189.663 32.2225 189.437 33.6715C189.18 35.8392 189.107 38.0243 189.219 40.2039C189.344 42.4961 189.71 44.7694 190.31 46.9872Z" fill="url(#paint5_linear_4688_19034)"/>
</g>
<defs>
<linearGradient id="paint0_linear_4688_19034" x1="55.956" y1="-0.00267969" x2="0.811164" y2="62.33" gradientUnits="userSpaceOnUse">
<stop stop-color="#F4943E"/>
<stop offset="1" stop-color="#F3693D"/>
</linearGradient>
<linearGradient id="paint1_linear_4688_19034" x1="74.521" y1="20.2764" x2="74.521" y2="60.6571" gradientUnits="userSpaceOnUse">
<stop stop-color="#E38046"/>
<stop offset="1" stop-color="#F3803D"/>
</linearGradient>
<linearGradient id="paint2_linear_4688_19034" x1="106.573" y1="9.75049" x2="106.573" y2="61.5195" gradientUnits="userSpaceOnUse">
<stop stop-color="#E38046"/>
<stop offset="1" stop-color="#F3803D"/>
</linearGradient>
<linearGradient id="paint3_linear_4688_19034" x1="139.789" y1="20.4922" x2="139.789" y2="61.5752" gradientUnits="userSpaceOnUse">
<stop stop-color="#E38046"/>
<stop offset="1" stop-color="#F3803D"/>
</linearGradient>
<linearGradient id="paint4_linear_4688_19034" x1="166.465" y1="18.7095" x2="166.465" y2="61.0385" gradientUnits="userSpaceOnUse">
<stop stop-color="#E38046"/>
<stop offset="1" stop-color="#F3803D"/>
</linearGradient>
<linearGradient id="paint5_linear_4688_19034" x1="194.57" y1="17.708" x2="194.57" y2="68.9986" gradientUnits="userSpaceOnUse">
<stop stop-color="#E38046"/>
<stop offset="1" stop-color="#F3803D"/>
</linearGradient>
<clipPath id="clip0_4688_19034">
<rect width="212" height="69" fill="white"/>
</clipPath>
</defs>
</svg>
