<svg width="24" height="24" viewBox="0 0 24 24" fill="none" xmlns="http://www.w3.org/2000/svg">
<path d="M9.0375 0.28125C8.475 0.412498 7.3125 0.881248 6.4125 1.3125C4.10625 2.45625 2.4 4.2 1.25625 6.58125C0.24375 8.6625 0 9.75 0 12C0 14.25 0.24375 15.3375 1.25625 17.4187C2.4375 19.875 4.125 21.5625 6.58125 22.7437C8.6625 23.7562 9.75 24 12 24C14.25 24 15.3375 23.7562 17.4188 22.7437C18.825 22.0687 19.4438 21.6375 20.5312 20.5312C21.6375 19.4437 22.0688 18.825 22.7438 17.4187C23.7563 15.3375 24 14.25 24 12C24 9.75 23.7563 8.6625 22.7438 6.58125C21.5625 4.125 19.875 2.4375 17.4188 1.25625C16.4438 0.787498 15.2063 0.318748 14.6625 0.206249C13.35 -0.0750008 10.275 -0.0375004 9.0375 0.28125ZM11.2875 2.45625C11.4 4.25625 12.6 4.25625 12.7125 2.475L12.7688 1.51875L13.4625 1.63125C17.2313 2.19375 20.6438 5.025 21.8438 8.60625C22.0875 9.28125 22.3125 10.1625 22.3688 10.5375L22.4813 11.25H21.5625C20.8313 11.25 20.5875 11.325 20.4375 11.625C20.0625 12.3187 20.4938 12.75 21.5625 12.75H22.4813L22.3688 13.4437C22.0312 15.7125 20.8313 17.9812 19.1438 19.5375C17.4563 21.1125 15.5438 22.05 13.4625 22.3687L12.7688 22.4812L12.7125 21.5062L12.6563 20.5312H12H11.3438L11.2875 21.5062L11.2313 22.4812L10.5375 22.3687C6.76875 21.8062 3.35625 18.975 2.15625 15.3937C1.9125 14.7188 1.6875 13.8375 1.63125 13.4625L1.51875 12.7687L2.475 12.7125C4.25625 12.6 4.25625 11.4 2.475 11.2875L1.51875 11.2312L1.63125 10.5375C2.25 6.3375 5.68125 2.68125 9.80625 1.78125C10.4438 1.65 11.025 1.51875 11.1 1.51875C11.175 1.5 11.25 1.93125 11.2875 2.45625Z" fill="black"/>
<path d="M14.4 8.75625L13.1438 10.0312L12.1313 9.975C11.2125 9.91875 11.0625 9.95625 10.5375 10.5C10.0312 11.0062 9.9375 11.2312 9.9375 12C9.9375 12.7687 10.0312 12.9937 10.5188 13.4812C10.9875 13.9687 11.2313 14.0625 11.9625 14.0625H12.8438L15.375 16.5937C17.4375 18.675 18 19.125 18.375 19.0875C18.75 19.05 18.8625 18.9187 18.9 18.4687C18.9375 17.9625 18.675 17.625 16.5 15.4687C14.0813 13.0687 14.0625 13.0312 14.0625 12.1875C14.0625 11.3812 14.1375 11.2687 15.375 10.0312C16.6688 8.7375 16.9313 8.19375 16.4625 7.725C16.0313 7.29375 15.6375 7.5 14.4 8.75625ZM12.375 11.7375C12.5813 11.9625 12.5625 12.075 12.3188 12.3375C12.0188 12.6187 11.9813 12.6187 11.6813 12.3375C11.4375 12.075 11.4188 11.9625 11.625 11.7375C11.7563 11.5687 11.925 11.4375 12 11.4375C12.075 11.4375 12.2438 11.5687 12.375 11.7375Z" fill="black"/>
</svg>
