<svg width="24" height="24" viewBox="0 0 24 24" fill="none" xmlns="http://www.w3.org/2000/svg">
<path d="M15.2016 4.16418C14.8391 4.45168 14.7141 4.97668 14.9141 5.45168C15.0641 5.80168 15.2016 5.91418 15.6641 6.03918L16.2391 6.21418L15.6266 6.81418L15.0141 7.42668L14.6391 7.15168C14.1641 6.81418 13.3391 6.47668 12.5641 6.27668C11.7141 6.06418 9.95156 6.08918 9.06406 6.32668C6.67656 6.95168 4.63906 9.08918 4.11406 11.5267C3.88906 12.5392 4.01406 14.5267 4.33906 15.4517C5.12656 17.6017 6.97656 19.2642 9.23906 19.8392C10.3266 20.1142 12.2516 20.0267 13.3016 19.6517C15.2891 18.9392 16.9141 17.2642 17.5516 15.2267C18.1641 13.2892 17.8641 10.8017 16.8266 9.35168L16.5766 8.98918L17.2891 8.28918L17.9891 7.57668V8.05168C17.9891 8.67668 18.1391 8.93918 18.6141 9.13918C19.0516 9.32668 19.6641 9.13918 19.8641 8.75168C19.9391 8.62668 19.9891 7.62668 19.9891 6.52668C19.9891 3.85168 20.1516 4.01418 17.4516 4.01418C16.0141 4.01418 15.3516 4.06418 15.2016 4.16418ZM12.9516 8.70168C13.9016 9.12668 14.8766 10.1017 15.3266 11.0642C15.6391 11.7392 15.6766 11.9642 15.6766 13.0767C15.6766 14.1767 15.6391 14.4142 15.3391 15.0392C14.8766 16.0392 14.0016 16.9392 13.0016 17.4267C12.2391 17.8017 12.0891 17.8267 10.9266 17.8267C9.76406 17.8267 9.61406 17.8017 8.85156 17.4267C5.82656 15.9392 5.16406 12.0017 7.52656 9.66418C9.00156 8.21418 11.0891 7.83918 12.9516 8.70168Z" fill="#799FFF"/>
</svg>
