<svg width="24" height="24" viewBox="0 0 24 24" fill="none" xmlns="http://www.w3.org/2000/svg">
<path d="M3.71248 1.79997C2.79373 2.45622 2.34373 3.41247 2.36248 4.68747C2.36248 5.56872 2.58748 6.20622 3.80623 8.92497L5.24998 12.15L4.55623 13.7437C3.88123 15.3187 3.86248 15.3375 3.11248 15.4687C2.00623 15.6375 0.899976 16.35 0.412476 17.2125C-0.150024 18.2437 -0.150024 19.8187 0.412476 20.85C1.53748 22.8375 4.57498 23.1937 6.13123 21.525C6.63748 20.9812 7.12498 19.8562 7.12498 19.2375C7.12498 18.7125 7.48123 17.8125 7.68748 17.8125C7.85623 17.8125 8.43748 19.3125 8.43748 19.7625C8.43748 20.4375 9.28123 21.6 10.125 22.0875C11.1 22.6687 12.675 22.7437 13.5937 22.275C15.2437 21.4125 15.9937 19.3687 15.2812 17.6625C14.7187 16.35 13.8375 15.6937 12.3562 15.4687L11.475 15.3375L10.7812 13.7625L10.0687 12.1875L11.55 8.84997C12.7875 6.03747 13.0125 5.38122 12.9937 4.57497C12.9562 3.43122 12.6187 2.66247 11.8125 2.00622C11.0625 1.36872 10.5187 1.21872 10.2187 1.51872C10.0687 1.66872 9.48748 2.83122 8.90623 4.12497C8.32498 5.41872 7.78123 6.52497 7.70622 6.59997C7.63123 6.67497 7.08748 5.62497 6.48748 4.25622C5.43748 1.91247 5.06248 1.31247 4.59373 1.31247C4.49998 1.31247 4.08748 1.53747 3.71248 1.79997ZM5.58748 6.26247L6.78748 8.94372L6.46873 9.56247L6.14998 10.1812L5.04373 7.68747C4.44373 6.31872 3.93748 4.96872 3.93748 4.68747C3.93748 4.08747 4.10623 3.56247 4.29373 3.56247C4.34998 3.56247 4.94998 4.78122 5.58748 6.26247ZM11.4375 4.63122C11.4375 4.85622 10.275 7.66872 8.86872 10.875L6.28123 16.6875L5.84998 16.2562L5.41873 15.825L8.19372 9.67497C10.5937 4.33122 10.9875 3.58122 11.1937 3.86247C11.325 4.04997 11.4375 4.38747 11.4375 4.63122ZM9.63748 15.2062C9.93748 15.9562 9.93748 15.9937 9.58123 16.3312C9.09373 16.7812 9.09373 16.7812 8.81248 16.125C8.62498 15.675 8.62498 15.45 8.81248 15C8.94372 14.6812 9.11248 14.4375 9.18748 14.4375C9.26248 14.4375 9.46873 14.7937 9.63748 15.2062ZM4.49998 17.3812C5.23123 17.8875 5.41873 18.225 5.41873 19.0312C5.41873 19.8375 5.23123 20.175 4.49998 20.6812C3.52498 21.3562 2.19373 20.8875 1.68748 19.7062C1.38748 18.975 1.57498 18.2812 2.24998 17.6062C2.86873 16.9687 3.78748 16.875 4.49998 17.3812ZM12.9375 17.3812C13.6687 17.8875 13.8562 18.225 13.8562 19.0312C13.8562 19.8375 13.6687 20.175 12.9375 20.6812C11.9625 21.3562 10.6312 20.8875 10.125 19.7062C9.82498 18.975 10.0125 18.2812 10.6875 17.6062C11.3062 16.9687 12.225 16.875 12.9375 17.3812Z" fill="black"/>
<path d="M17.2125 1.51875C16.7625 1.7625 16.7812 2.56875 17.2313 2.8125C17.4375 2.90625 18.075 3 18.6375 3C19.6875 3 19.6875 3 19.6875 3.5625C19.6875 4.125 19.6875 4.125 18.6375 4.125C17.3813 4.125 16.875 4.36875 16.875 4.96875C16.875 5.56875 17.3813 5.8125 18.6375 5.8125C19.6875 5.8125 19.6875 5.8125 19.6875 6.375C19.6875 6.9375 19.6875 6.9375 18.6375 6.9375C17.3813 6.9375 16.875 7.18125 16.875 7.78125C16.875 8.38125 17.3813 8.625 18.6375 8.625C19.6875 8.625 19.6875 8.625 19.6875 9.1875C19.6875 9.75 19.6875 9.75 18.6375 9.75C17.3813 9.75 16.875 9.99375 16.875 10.5937C16.875 11.1937 17.3813 11.4375 18.6375 11.4375C19.6875 11.4375 19.6875 11.4375 19.6875 12C19.6875 12.5625 19.6875 12.5625 18.6375 12.5625C17.3813 12.5625 16.875 12.8062 16.875 13.4062C16.875 14.0062 17.3813 14.25 18.6375 14.25C19.6875 14.25 19.6875 14.25 19.6875 14.8125C19.6875 15.375 19.6875 15.375 18.6375 15.375C17.3813 15.375 16.875 15.6187 16.875 16.2187C16.875 16.8187 17.3813 17.0625 18.6375 17.0625C19.6875 17.0625 19.6875 17.0625 19.6875 17.625C19.6875 18.1875 19.6875 18.1875 18.6375 18.1875C17.3813 18.1875 16.875 18.4312 16.875 19.0312C16.875 19.6312 17.3813 19.875 18.6375 19.875C19.6875 19.875 19.6875 19.875 19.6875 20.4375C19.6875 21 19.6875 21 18.6375 21C17.3813 21 16.875 21.2437 16.875 21.8437C16.875 22.5375 17.4 22.6875 19.725 22.6875C22.2563 22.6875 23.1 22.4812 23.625 21.7687C23.9813 21.2437 24 20.9812 24 12C24 3.01875 23.9813 2.75625 23.625 2.23125C23.4 1.93125 22.95 1.6125 22.5375 1.5C21.6375 1.25625 17.625 1.25625 17.2125 1.51875ZM22.3875 3.3C22.5375 3.675 22.5375 20.325 22.3875 20.7C22.3125 20.8875 22.05 21 21.7313 21H21.1875V12V3H21.7313C22.05 3 22.3125 3.1125 22.3875 3.3Z" fill="black"/>
</svg>
