<svg width="24" height="24" viewBox="0 0 24 24" fill="none" xmlns="http://www.w3.org/2000/svg">
<path d="M17.2813 0.300083C15.725 1.10633 15.05 2.23133 15.05 4.05008L15.0688 5.38133L12.0125 7.29383L8.9375 9.18758L8.24375 8.71883C7.34375 8.10008 6.9125 8.00633 5.5625 8.10008C3.44375 8.25008 2 9.84383 2 12.0001C2 14.1563 3.44375 15.7501 5.5625 15.9001C6.9125 15.9938 7.34375 15.9001 8.24375 15.2813L8.9375 14.8126L12.0125 16.7063L15.0688 18.6188L15.05 19.9501C15.05 21.5251 15.3313 22.1626 16.4563 23.1376C17.3563 23.8876 18.05 24.0751 19.55 23.9626C20.8438 23.8501 21.95 23.1188 22.5875 21.9376C22.9625 21.2063 23.0188 20.9063 22.9438 19.8188C22.85 18.2438 22.2125 17.2313 20.9563 16.5563C19.55 15.8251 17.5438 16.0126 16.4 17.0063C16.1188 17.2501 15.7813 17.1001 13.0063 15.3751L9.93125 13.4813L9.95 12.0001L9.96875 10.5001L13.0063 8.62508L16.0438 6.75008L16.7375 7.21883C17.6563 7.83758 18.0875 7.93133 19.4375 7.83758C21.65 7.68758 22.9062 6.22508 22.9062 3.80633C22.9062 2.62508 22.85 2.38133 22.3438 1.66883C21.5563 0.562584 20.4313 8.39233e-05 18.9875 8.39233e-05C18.3125 8.39233e-05 17.6 0.131334 17.2813 0.300083ZM19.8875 1.76258C20.825 2.15633 21.3125 2.88758 21.3125 3.95633C21.3125 4.70633 21.2188 4.95008 20.6938 5.49383C20.3188 5.90633 19.8313 6.20633 19.4 6.28133C18.1063 6.52508 16.625 5.25008 16.625 3.90008C16.625 3.20633 17.2625 2.21258 17.9563 1.83758C18.7063 1.42508 19.0625 1.42508 19.8875 1.76258ZM7.08125 9.97508C8.4125 10.7063 8.75 12.4126 7.775 13.4438C6.74375 14.5688 5.525 14.6813 4.45625 13.7626C3.10625 12.6376 3.44375 10.5563 5.09375 9.82508C5.88125 9.46883 6.25625 9.50633 7.08125 9.97508ZM19.8875 17.8876C20.7875 18.2626 21.3125 19.0876 21.3125 20.1563C21.3125 20.9063 21.2188 21.1313 20.6938 21.6563C19.9062 22.4438 18.9688 22.6501 18.0688 22.2188C16.2875 21.3751 16.1938 18.9001 17.9188 18.0001C18.7438 17.5688 19.0813 17.5501 19.8875 17.8876Z" fill="black"/>
</svg>
