<svg width="21" height="20" viewBox="0 0 21 20" fill="none" xmlns="http://www.w3.org/2000/svg">
<path d="M8.32422 0.179688C8.24609 0.289062 8.12109 0.757812 8.05859 1.19531C7.99609 1.64844 7.87109 2.02344 7.79297 2.02344C7.69922 2.02344 7.21484 2.21094 6.71484 2.42969L5.80859 2.83594L5.10547 2.33594C4.60547 1.96094 4.30859 1.85156 4.02734 1.92969C3.55859 2.03906 1.88672 3.78906 1.88672 4.16406C1.88672 4.33594 2.10547 4.75781 2.37109 5.11719L2.85547 5.78906L2.44922 6.69531C2.23047 7.19531 2.04297 7.67969 2.04297 7.77344C2.04297 7.85156 1.66797 7.97656 1.23047 8.03906C0.777344 8.10156 0.308594 8.22656 0.199219 8.30469C-0.0664062 8.52344 -0.0664062 11.4609 0.199219 11.6797C0.308594 11.7578 0.777344 11.8828 1.23047 11.9453C1.66797 12.0078 2.04297 12.1328 2.04297 12.2109C2.04297 12.3047 2.23047 12.7891 2.44922 13.2891L2.85547 14.1953L2.37109 14.8672C2.10547 15.2266 1.88672 15.6484 1.88672 15.8203C1.88672 16.1953 3.55859 17.9453 4.02734 18.0547C4.30859 18.1328 4.60547 18.0234 5.10547 17.6484L5.80859 17.1484L6.71484 17.5547C7.21484 17.7734 7.69922 17.9609 7.79297 17.9609C7.87109 17.9609 7.99609 18.3359 8.05859 18.7734C8.12109 19.2266 8.24609 19.6953 8.32422 19.7891C8.54297 20.0703 11.4805 20.0703 11.6992 19.7891C11.7773 19.6953 11.9023 19.2266 11.9648 18.7734C12.0273 18.3359 12.1523 17.9609 12.2305 17.9609C12.3242 17.9609 12.8086 17.7734 13.3086 17.5547L14.2148 17.1484L14.918 17.6484C15.418 18.0234 15.7148 18.1328 15.9961 18.0547C16.4648 17.9453 18.1367 16.1953 18.1367 15.8203C18.1367 15.6484 17.918 15.2266 17.6523 14.8672L17.168 14.1953L17.5742 13.2891C17.793 12.7891 17.9805 12.3047 17.9805 12.2109C17.9805 12.1328 18.3555 12.0078 18.8086 11.9453C19.2461 11.8828 19.7148 11.7578 19.8242 11.6797C20.0898 11.4609 20.0898 8.52344 19.8242 8.30469C19.7148 8.22656 19.2461 8.10156 18.8086 8.03906C18.3555 7.97656 17.9805 7.85156 17.9805 7.77344C17.9805 7.67969 17.793 7.19531 17.5742 6.69531L17.168 5.78906L17.668 5.08594C18.043 4.58594 18.1523 4.28906 18.0742 4.00781C17.9648 3.53906 16.2148 1.86719 15.8398 1.86719C15.668 1.86719 15.2461 2.08594 14.8867 2.35156L14.2148 2.83594L13.3086 2.42969C12.8086 2.21094 12.3242 2.02344 12.2305 2.02344C12.1523 2.02344 12.0273 1.64844 11.9648 1.19531C11.9023 0.757812 11.7773 0.289062 11.6992 0.179688C11.5898 0.0546875 11.043 -0.0078125 10.0117 -0.0078125C8.98047 -0.0078125 8.43359 0.0546875 8.32422 0.179688ZM10.7305 1.97656C10.8555 2.92969 10.9648 3.03906 11.9336 3.36719C12.3867 3.50781 13.0898 3.80469 13.4961 4.02344L14.2461 4.41406L14.9961 3.92969L15.7617 3.46094L16.1523 3.85156L16.543 4.24219L16.0742 5.00781L15.5898 5.75781L15.9805 6.50781C16.1992 6.91406 16.4961 7.61719 16.6367 8.07031C16.9648 9.03906 17.0742 9.14844 18.0273 9.27344C18.7617 9.38281 18.7617 9.38281 18.7617 9.99219C18.7617 10.6016 18.7617 10.6016 18.0273 10.7109C17.0742 10.8359 16.9648 10.9453 16.6367 11.9141C16.4961 12.3672 16.1992 13.0703 15.9805 13.4766L15.5898 14.2266L16.0742 14.9766L16.543 15.7422L16.1523 16.1328L15.7617 16.5234L14.9961 16.0547L14.2461 15.5703L13.4961 15.9609C13.0898 16.1797 12.3867 16.4766 11.9336 16.6172C10.9648 16.9453 10.8555 17.0547 10.7305 17.9922C10.6211 18.7422 10.6211 18.7422 10.0117 18.7422C9.40234 18.7422 9.40234 18.7422 9.29297 18.0078C9.16797 17.0547 9.05859 16.9453 8.08984 16.6172C7.63672 16.4766 6.93359 16.1797 6.52734 15.9609L5.77734 15.5703L5.02734 16.0547L4.26172 16.5234L3.87109 16.1328L3.48047 15.7422L3.94922 14.9766L4.43359 14.2266L4.04297 13.4766C3.82422 13.0703 3.52734 12.3672 3.38672 11.9141C3.05859 10.9453 2.94922 10.8359 2.01172 10.7109C1.26172 10.6016 1.26172 10.6016 1.26172 9.99219C1.26172 9.38281 1.26172 9.38281 2.01172 9.27344C2.94922 9.14844 3.05859 9.03906 3.38672 8.07031C3.52734 7.61719 3.82422 6.91406 4.04297 6.50781L4.43359 5.75781L3.94922 5.00781L3.48047 4.24219L3.87109 3.85156L4.26172 3.46094L5.02734 3.92969L5.77734 4.41406L6.52734 4.02344C6.93359 3.80469 7.63672 3.50781 8.08984 3.36719C9.05859 3.03906 9.16797 2.92969 9.29297 1.97656C9.40234 1.24219 9.40234 1.24219 10.0117 1.24219C10.6211 1.24219 10.6211 1.24219 10.7305 1.97656Z" fill="#303030"/>
<path d="M8.35559 4.89844C6.79309 5.39844 5.38684 6.85156 4.91809 8.41406C4.57434 9.57031 4.68371 11.2578 5.16809 12.2734C5.65246 13.2578 6.74621 14.3516 7.74621 14.8359C8.88684 15.3984 11.1368 15.3984 12.2775 14.8359C13.2775 14.3516 14.3712 13.2578 14.8556 12.2578C15.1837 11.6016 15.2462 11.2578 15.2462 9.99219C15.2462 8.72656 15.1837 8.38281 14.8556 7.72656C14.3712 6.72656 13.2775 5.63281 12.2775 5.14844C11.34 4.69531 9.35559 4.57031 8.35559 4.89844ZM11.6525 6.38281C13.5275 7.19531 14.5275 9.69531 13.6993 11.5234L13.4025 12.1641L12.6525 11.5234C11.965 10.9141 11.9337 10.8516 12.1368 10.5547C12.2618 10.3828 12.3556 9.88281 12.3556 9.44531C12.3556 8.02344 11.3868 7.02344 10.0118 7.02344C8.63684 7.02344 7.66809 8.02344 7.66809 9.44531C7.66809 9.88281 7.76184 10.3828 7.88684 10.5547C8.08996 10.8516 8.05871 10.9141 7.37121 11.5234L6.62121 12.1641L6.37121 11.5859C5.98059 10.6484 5.91809 10.1641 6.10559 9.28906C6.63684 6.69531 9.24621 5.33594 11.6525 6.38281ZM10.84 8.77344C11.1993 9.19531 11.1837 9.53906 10.7775 10.0547C10.34 10.6172 9.63684 10.5703 9.18371 9.96094C8.37121 8.86719 9.94934 7.74219 10.84 8.77344ZM11.2306 12.1641C11.5431 12.3203 11.9493 12.6172 12.1212 12.8047C12.4337 13.1484 12.4337 13.1484 12.1212 13.3672C11.7931 13.6172 10.4337 14.0547 10.0118 14.0547C9.58996 14.0547 8.23059 13.6172 7.90246 13.3672C7.58996 13.1484 7.58996 13.1484 7.90246 12.8047C8.71496 11.8984 10.1681 11.6172 11.2306 12.1641Z" fill="#303030"/>
</svg>
