<svg width="24" height="24" viewBox="0 0 24 24" fill="none" xmlns="http://www.w3.org/2000/svg">
<path d="M5.08129 1.70625C3.15004 2.08125 1.40629 3.4125 0.562539 5.15625C-0.112461 6.525 -0.187461 8.85 0.375039 10.4062C0.768789 11.4562 1.18129 11.9062 6.26254 17.0062C9.26254 20.025 11.85 22.5 12 22.5C12.15 22.5 14.7375 20.025 17.7375 17.0062C22.7625 11.9812 23.2313 11.4375 23.6063 10.4437C24.075 9.15 24.1313 6.99375 23.7188 5.83125C23.1 4.06875 21.6375 2.60625 19.8375 1.93125C19.3688 1.7625 18.4313 1.65 17.6063 1.65C15.8063 1.63125 14.4938 2.19375 13.0313 3.58125L12 4.55625L10.9688 3.58125C9.28129 1.96875 7.12504 1.29375 5.08129 1.70625ZM7.93129 3.4875C8.55004 3.69375 9.28129 4.21875 10.2938 5.175C11.1 5.94375 11.8688 6.5625 12 6.5625C12.1313 6.5625 12.9 5.94375 13.7063 5.175C15.8063 3.1875 17.5688 2.7 19.5 3.58125C21.3938 4.425 22.3875 5.9625 22.3875 7.96875C22.3875 9.5625 22.0125 10.3875 20.5875 11.8875L19.5938 12.9187L18.0938 12.675C16.7625 12.4875 16.6313 12.4312 17.0063 12.225C17.2313 12.0938 17.5875 12 17.8125 12C18.5625 12 19.4813 11.4562 20.0438 10.6687C21 9.35625 20.7563 8.34375 19.4063 8.11875C18.9938 8.0625 18.3938 7.78125 18.0563 7.48125C17.7375 7.2 17.2875 6.91875 17.0813 6.84375C16.6125 6.69375 16.575 6.45 16.9875 6.3C17.175 6.225 17.25 6 17.2125 5.5875C17.175 5.1 17.0625 4.95 16.725 4.9125C15.9563 4.8 13.8375 6.31875 12.6563 7.8375L12.0188 8.6625L11.6625 7.93125C10.7063 6.1125 9.13129 5.38125 7.31254 5.925C6.75004 6.075 5.66254 6.28125 4.89379 6.35625C3.71254 6.4875 3.43129 6.58125 3.05629 7.0125C2.55004 7.59375 2.49379 8.4 2.90629 9.1875C3.30004 9.9375 4.68754 10.9688 5.71879 11.25C6.30004 11.4187 6.73129 11.7 7.03129 12.0938C7.51879 12.7125 7.96879 14.2875 8.11879 15.8437L8.21254 16.7625L5.34379 13.875C3.75004 12.2437 2.28754 10.5938 2.04379 10.125C1.44379 8.98125 1.42504 6.99375 2.00629 5.90625C3.18754 3.675 5.60629 2.7 7.93129 3.4875ZM9.69379 7.9125C9.80629 8.04375 10.2188 8.775 10.5938 9.50625C10.9688 10.2562 11.6625 11.3062 12.1313 11.8125C13.3688 13.2 14.4 13.725 16.4625 14.0625L18.1875 14.3438L15.0938 17.4375L12 20.5312L10.875 19.4062L9.75004 18.3V16.8187C9.75004 14.9437 9.28129 12.7125 8.66254 11.5687C8.15629 10.6312 7.20004 9.91875 6.13129 9.675C5.83129 9.6 5.25004 9.225 4.81879 8.8125L4.03129 8.08125L5.21254 8.0625C5.86879 8.0625 6.56254 7.96875 6.76879 7.875C7.05004 7.70625 7.14379 7.74375 7.23754 8.00625C7.72504 9.525 8.13754 9.91875 8.83129 9.54375C9.24379 9.3375 9.24379 9.225 8.88754 7.8C8.77504 7.3125 8.79379 7.29375 9.13129 7.4625C9.33754 7.575 9.60004 7.78125 9.69379 7.9125ZM15.9938 8.11875C16.3313 8.26875 16.875 8.60625 17.1938 8.8875C17.5313 9.16875 18.0375 9.46875 18.3 9.54375C18.7688 9.65625 18.7875 9.69375 18.4875 9.99375C18.3 10.1625 17.9063 10.3125 17.6063 10.3125C16.8938 10.3125 16.1813 10.6875 15.4875 11.4187C14.9438 11.9812 14.9063 11.9812 14.4563 11.7C14.1938 11.5312 13.7438 11.1375 13.4625 10.8375L12.9563 10.2562L13.35 9.675C13.9688 8.775 14.85 7.875 15.1313 7.875C15.2813 7.875 15.6563 7.9875 15.9938 8.11875Z" fill="black"/>
</svg>
