<svg width="16" height="16" viewBox="0 0 16 16" fill="none" xmlns="http://www.w3.org/2000/svg">
<path d="M10.7917 1.39096C10.4788 1.48065 10.1061 1.67843 9.91052 1.85322C9.25478 2.44656 1.98875 9.72772 1.77937 10.0014C1.65973 10.1601 1.49867 10.4843 1.41354 10.7373L1.34681 10.9328L1.33991 12.5634L1.33301 14.1939L1.39283 14.3135C1.46185 14.4584 1.5976 14.5872 1.71955 14.6263C1.83459 14.6631 3.75118 14.6815 4.54497 14.6516C5.07877 14.6309 5.13399 14.6263 5.30425 14.5688C5.54353 14.4883 5.88636 14.3066 6.08423 14.1594C6.25449 14.0306 13.0742 7.22784 13.7414 6.5218C14.2338 5.99975 14.3534 5.84566 14.4731 5.56968C14.641 5.18792 14.664 5.06143 14.6663 4.53938C14.6663 4.10012 14.664 4.07022 14.6019 3.87244C14.5122 3.58266 14.3787 3.30669 14.2269 3.1043C14.0589 2.87892 13.2283 2.0372 12.9867 1.84632C12.6761 1.60254 12.3103 1.43005 11.9698 1.36336C11.8616 1.34266 11.6522 1.33116 11.3946 1.33346C11.031 1.33346 10.9666 1.34036 10.7917 1.39096ZM11.6522 2.65354C11.8685 2.69494 12.0227 2.76853 12.2229 2.93182C12.4322 3.1043 13.0604 3.75285 13.1662 3.90693C13.3434 4.16451 13.4101 4.51408 13.3365 4.80385C13.2651 5.07983 13.1984 5.18332 12.8579 5.52829L12.5427 5.85026L11.3439 4.65437L10.1452 3.45847L10.4627 3.148C10.8101 2.80763 10.962 2.70874 11.2128 2.65354C11.4015 2.61215 11.4452 2.61215 11.6522 2.65354ZM10.4075 5.60418L11.597 6.79318L8.72559 9.66332L5.85645 12.5312L4.66001 11.3353L3.46358 10.1394L6.32812 7.27613C7.90419 5.70077 9.19726 4.41289 9.20416 4.41289C9.21106 4.41289 9.75176 4.94874 10.4075 5.60418ZM4.09171 12.6531L4.76815 13.3292L4.51966 13.343C4.38391 13.3522 3.90074 13.3591 3.44517 13.3591H2.61687L2.63068 12.6301C2.63988 12.2299 2.64678 11.7538 2.64678 11.5699V11.2387L3.03332 11.6066C3.245 11.809 3.72127 12.2805 4.09171 12.6531Z" fill="url(#paint0_linear_4801_25615)"/>
<defs>
<linearGradient id="paint0_linear_4801_25615" x1="7.99967" y1="14.6665" x2="7.99967" y2="1.33317" gradientUnits="userSpaceOnUse">
<stop stop-color="#E38046"/>
<stop offset="1" stop-color="#F3803D"/>
</linearGradient>
</defs>
</svg>
