<svg width="16" height="16" viewBox="0 0 16 16" fill="none" xmlns="http://www.w3.org/2000/svg">
<path d="M7.99967 1.3335C4.32567 1.3335 1.33301 4.32616 1.33301 8.00016C1.33301 11.6742 4.32567 14.6668 7.99967 14.6668C11.6737 14.6668 14.6663 11.6742 14.6663 8.00016C14.6663 4.32616 11.6737 1.3335 7.99967 1.3335ZM7.99967 2.66683C10.9531 2.66683 13.333 5.04675 13.333 8.00016C13.333 10.9536 10.9531 13.3335 7.99967 13.3335C5.04626 13.3335 2.66634 10.9536 2.66634 8.00016C2.66634 5.04675 5.04626 2.66683 7.99967 2.66683ZM7.33301 4.66683V6.00016H8.66634V4.66683H7.33301ZM7.33301 7.3335V11.3335H8.66634V7.3335H7.33301Z" fill="#C5C5C5"/>
</svg>
