<svg width="10" height="18" viewBox="0 0 10 18" fill="none" xmlns="http://www.w3.org/2000/svg">
<path d="M0.474999 0.225C0.60625 0.0937496 1 -3.93403e-07 1.375 -3.77011e-07C1.99375 -3.49964e-07 2.33125 0.28125 6.025 3.99375C9.68125 7.65 10 8.025 10 8.625C10 9.225 9.68125 9.6 6.00625 13.275C2.33125 16.95 1.975 17.25 1.35625 17.25C0.531249 17.25 0.249999 16.9687 0.249999 16.1438C0.249999 15.525 0.531249 15.2062 3.6625 12.0563L7.09375 8.625L3.6625 5.19375C0.53125 2.04375 0.25 1.725 0.25 1.10625C0.25 0.75 0.34375 0.35625 0.474999 0.225Z" fill="#A2A2A2"/>
</svg>
