<svg width="24" height="24" viewBox="0 0 24 24" fill="none" xmlns="http://www.w3.org/2000/svg">
<path d="M1.19996 0.262392C1.03121 0.693642 1.18121 1.16239 1.55621 1.38739C2.02496 1.68739 2.53121 1.31239 2.53121 0.637392C2.53121 0.168642 2.45621 0.0936421 1.91246 0.0373921C1.49996 -0.000107884 1.27496 0.074892 1.19996 0.262392Z" fill="black"/>
<path d="M21.3187 0.131265C21.2437 0.187515 21.1875 0.487515 21.1875 0.787515C21.1875 1.23751 21.1125 1.31252 20.6437 1.31252C19.9687 1.31252 19.6125 1.72501 19.7625 2.34377C19.8562 2.73751 19.9875 2.81252 20.5312 2.81252C21.15 2.81252 21.1875 2.85001 21.1875 3.46876C21.1875 4.01251 21.2625 4.14376 21.6562 4.23751C22.275 4.38751 22.6875 4.03126 22.6875 3.35626C22.6875 2.90626 22.7625 2.83126 23.3062 2.77501C23.8125 2.71877 23.925 2.64376 23.9625 2.17501C24.0375 1.59377 23.775 1.31252 23.1187 1.31252C22.8187 1.31252 22.6875 1.20002 22.6875 0.956265C22.6875 0.281265 22.4625 1.52588e-05 21.9562 1.52588e-05C21.675 1.52588e-05 21.375 0.0562654 21.3187 0.131265Z" fill="black"/>
<path d="M5.90622 3.07483C4.96872 3.50608 4.33122 4.34983 3.74997 6.01858C3.13122 7.78108 3.09372 8.02483 3.39372 9.09358C3.59997 9.80608 4.68747 11.0998 5.21247 11.2686C5.41872 11.3436 5.41872 11.5498 5.15622 12.4686C4.72497 13.9123 4.85622 15.4311 5.53122 16.8186C6.01872 17.7936 6.05622 18.0373 6.07497 20.4748L6.09372 23.0998L6.61872 23.5498C7.33122 24.1686 8.02497 24.1123 9.56247 23.3436C10.6312 22.8186 11.0812 22.6873 12 22.6873C12.9187 22.6873 13.3687 22.8186 14.4375 23.3436C15.975 24.1123 16.6687 24.1686 17.3812 23.5498L17.9062 23.0998L17.925 20.4748C17.9437 18.0373 17.9812 17.7936 18.4687 16.8186C19.1437 15.4311 19.275 13.9123 18.8437 12.4686C18.5812 11.5498 18.5812 11.3436 18.7875 11.2686C18.9187 11.2311 19.3312 10.8936 19.7062 10.5186C20.3625 9.88108 20.8125 8.81233 20.8125 7.96858C20.7937 7.23733 19.6875 4.42483 19.2 3.91858C18.075 2.73733 16.425 2.49358 14.9812 3.26233C14.325 3.59983 14.0437 3.65608 13.6875 3.50608C13.0875 3.28108 10.9125 3.28108 10.3125 3.50608C9.95622 3.65608 9.67497 3.59983 9.01872 3.26233C8.08122 2.75608 6.78747 2.68108 5.90622 3.07483ZM8.21247 4.59358C8.24997 4.63108 8.02497 4.98733 7.72497 5.41858C7.42497 5.83108 6.93747 6.91858 6.65622 7.81858C6.35622 8.73733 6.05622 9.54358 5.98122 9.63733C5.90622 9.73108 5.60622 9.56233 5.34372 9.26233C4.74372 8.60608 4.76247 7.83733 5.45622 6.09358C5.81247 5.21233 6.03747 4.89358 6.56247 4.63108C7.12497 4.34983 7.94997 4.33108 8.21247 4.59358ZM17.7562 4.78108C18.2062 5.08108 18.9375 6.84358 19.0687 7.96858C19.1437 8.58733 19.0875 8.81233 18.6562 9.26233C18.3937 9.56233 18.0937 9.73108 18.0187 9.63733C17.925 9.54358 17.6437 8.73733 17.3812 7.85608C17.1 6.97483 16.6312 5.90608 16.3125 5.47483C15.6562 4.55608 15.6562 4.55608 16.0875 4.44358C16.5187 4.31233 17.25 4.46233 17.7562 4.78108ZM13.3312 5.13733C14.1187 5.47483 14.8687 6.14983 15.2437 6.86233C15.3937 7.16233 15.9562 8.73733 16.4812 10.3498C17.5875 13.7248 17.6812 14.8311 17.0062 16.0123C16.7812 16.4248 16.4625 16.7998 16.3125 16.8748C13.2 18.3373 13.1062 18.3748 12 18.3748C10.8937 18.3748 10.8 18.3373 7.68747 16.8748C7.12497 16.6123 6.56247 15.3186 6.56247 14.2873C6.56247 13.1998 8.13747 8.02483 8.86872 6.69358C9.71247 5.17483 11.7375 4.46233 13.3312 5.13733ZM9.74997 20.5311V21.4873L8.71872 21.9936L7.68747 22.4998V20.5311V18.5623L8.71872 19.0686L9.74997 19.5748V20.5311ZM16.3125 20.5311V22.4998L15.2812 21.9936L14.25 21.4873V20.5311V19.5748L15.2437 19.0873C15.7687 18.8061 16.2375 18.5811 16.275 18.5811C16.2937 18.5623 16.3125 19.4436 16.3125 20.5311ZM12.5625 20.5311C12.5625 21.1311 12.525 21.1873 12 21.1873C11.475 21.1873 11.4375 21.1311 11.4375 20.5311C11.4375 19.9311 11.475 19.8748 12 19.8748C12.525 19.8748 12.5625 19.9311 12.5625 20.5311Z" fill="black"/>
<path d="M9.14992 8.2688C8.58742 8.6813 8.45617 9.37505 8.86867 9.71255C9.11242 9.9188 11.0437 9.90005 11.3999 9.67505C11.8124 9.41255 11.6437 8.66255 11.0812 8.2688C10.3874 7.7813 9.80617 7.7813 9.14992 8.2688Z" fill="black"/>
<path d="M12.8999 8.2688C12.3561 8.6813 12.1874 9.4313 12.5999 9.67505C12.9561 9.90005 14.8874 9.9188 15.1499 9.71255C15.5624 9.37505 15.4124 8.6813 14.8311 8.2688C14.1374 7.7813 13.5561 7.7813 12.8999 8.2688Z" fill="black"/>
<path d="M10.5 10.8937C9.675 11.2312 9.375 11.6437 9.375 12.4312C9.375 13.3312 9.95625 14.3437 10.7063 14.7187C11.175 14.9812 11.25 15.1125 11.25 15.8437C11.25 16.8187 11.7 17.2312 12.375 16.875C12.6563 16.725 12.75 16.4812 12.75 15.8437C12.75 15.1125 12.825 14.9812 13.2938 14.7187C14.3625 14.175 14.9438 12.5625 14.4188 11.5875C14.0063 10.8187 11.7375 10.4062 10.5 10.8937ZM12.9 12.7875C12.75 13.0125 12.4875 13.2937 12.3188 13.3875C11.9438 13.6312 11.5125 13.4062 11.1 12.7875C10.8375 12.375 10.8375 12.375 12 12.375C13.1625 12.375 13.1625 12.375 12.9 12.7875Z" fill="black"/>
<path d="M21.5626 13.5938C21.4313 13.7626 21.3751 14.0626 21.4501 14.3438C21.5626 14.7563 21.6563 14.8313 22.1813 14.7751C22.6876 14.7188 22.8001 14.6251 22.8376 14.1751C22.9313 13.3688 22.0688 12.9751 21.5626 13.5938Z" fill="black"/>
<path d="M1.65 16.5188C1.44375 16.6313 1.3125 16.9313 1.3125 17.2501C1.3125 17.7188 1.2375 17.7938 0.7125 17.8501C0.15 17.9063 0.09375 17.9626 0.09375 18.5626C0.09375 19.1626 0.15 19.2188 0.7125 19.2751C1.2375 19.3313 1.3125 19.4063 1.3125 19.8938C1.3125 20.3063 1.44375 20.4938 1.78125 20.6626C2.38125 20.9251 2.8125 20.5876 2.8125 19.8563C2.8125 19.4063 2.8875 19.3313 3.39375 19.2751C4.59375 19.1626 4.59375 17.9626 3.39375 17.8501C2.90625 17.7938 2.8125 17.7188 2.8125 17.2688C2.8125 16.4438 2.325 16.1251 1.65 16.5188Z" fill="black"/>
<path d="M21.4312 19.8187C21.3 19.8562 21.1875 20.1937 21.1875 20.55C21.1875 21.15 21.15 21.1875 20.5312 21.1875C19.9875 21.1875 19.8562 21.2625 19.7625 21.6562C19.6125 22.275 19.9687 22.6875 20.6437 22.6875C21.0937 22.6875 21.1687 22.7625 21.225 23.2875C21.2812 23.8125 21.3562 23.925 21.825 23.9625C22.4062 24.0375 22.6875 23.775 22.6875 23.1C22.6875 22.8 22.8 22.6875 23.1187 22.6875C23.775 22.6875 24.0375 22.4062 23.9625 21.825C23.925 21.3562 23.8125 21.2812 23.3062 21.225C22.7812 21.1687 22.6875 21.0937 22.6875 20.6437C22.6875 19.8562 22.1625 19.5187 21.4312 19.8187Z" fill="black"/>
</svg>
