<svg width="24" height="24" viewBox="0 0 24 24" fill="none" xmlns="http://www.w3.org/2000/svg">
<path d="M3.7126 1.79997C2.79385 2.45622 2.34385 3.41247 2.3626 4.68747C2.3626 5.56872 2.5876 6.20622 3.80635 8.92497L5.2501 12.15L4.55635 13.7437C3.88135 15.3187 3.8626 15.3375 3.1126 15.4687C2.00635 15.6375 0.900098 16.35 0.412598 17.2125C-0.149902 18.2437 -0.149902 19.8187 0.412598 20.85C1.5376 22.8375 4.5751 23.1937 6.13135 21.525C6.6376 20.9812 7.1251 19.8562 7.1251 19.2375C7.1251 18.7125 7.48135 17.8125 7.6876 17.8125C7.85635 17.8125 8.4376 19.3125 8.4376 19.7625C8.4376 20.4375 9.28135 21.6 10.1251 22.0875C11.1001 22.6687 12.6751 22.7437 13.5938 22.275C15.2438 21.4125 15.9938 19.3687 15.2813 17.6625C14.7188 16.35 13.8376 15.6937 12.3563 15.4687L11.4751 15.3375L10.7813 13.7625L10.0688 12.1875L11.5501 8.84997C12.7876 6.03747 13.0126 5.38122 12.9938 4.57497C12.9563 3.43122 12.6188 2.66247 11.8126 2.00622C11.0626 1.36872 10.5188 1.21872 10.2188 1.51872C10.0688 1.66872 9.4876 2.83122 8.90635 4.12497C8.3251 5.41872 7.78135 6.52497 7.70635 6.59997C7.63135 6.67497 7.0876 5.62497 6.4876 4.25622C5.4376 1.91247 5.0626 1.31247 4.59385 1.31247C4.5001 1.31247 4.0876 1.53747 3.7126 1.79997ZM5.5876 6.26247L6.7876 8.94372L6.46885 9.56247L6.1501 10.1812L5.04385 7.68747C4.44385 6.31872 3.9376 4.96872 3.9376 4.68747C3.9376 4.08747 4.10635 3.56247 4.29385 3.56247C4.3501 3.56247 4.9501 4.78122 5.5876 6.26247ZM11.4376 4.63122C11.4376 4.85622 10.2751 7.66872 8.86885 10.875L6.28135 16.6875L5.8501 16.2562L5.41885 15.825L8.19385 9.67497C10.5938 4.33122 10.9876 3.58122 11.1938 3.86247C11.3251 4.04997 11.4376 4.38747 11.4376 4.63122ZM9.6376 15.2062C9.9376 15.9562 9.9376 15.9937 9.58135 16.3312C9.09385 16.7812 9.09385 16.7812 8.8126 16.125C8.6251 15.675 8.6251 15.45 8.8126 15C8.94385 14.6812 9.1126 14.4375 9.1876 14.4375C9.2626 14.4375 9.46885 14.7937 9.6376 15.2062ZM4.5001 17.3812C5.23135 17.8875 5.41885 18.225 5.41885 19.0312C5.41885 19.8375 5.23135 20.175 4.5001 20.6812C3.5251 21.3562 2.19385 20.8875 1.6876 19.7062C1.3876 18.975 1.5751 18.2812 2.2501 17.6062C2.86885 16.9687 3.7876 16.875 4.5001 17.3812ZM12.9376 17.3812C13.6688 17.8875 13.8563 18.225 13.8563 19.0312C13.8563 19.8375 13.6688 20.175 12.9376 20.6812C11.9626 21.3562 10.6313 20.8875 10.1251 19.7062C9.8251 18.975 10.0126 18.2812 10.6876 17.6062C11.3063 16.9687 12.2251 16.875 12.9376 17.3812Z" fill="#EF8547"/>
<path d="M17.2125 1.51875C16.7625 1.7625 16.7812 2.56875 17.2313 2.8125C17.4375 2.90625 18.075 3 18.6375 3C19.6875 3 19.6875 3 19.6875 3.5625C19.6875 4.125 19.6875 4.125 18.6375 4.125C17.3813 4.125 16.875 4.36875 16.875 4.96875C16.875 5.56875 17.3813 5.8125 18.6375 5.8125C19.6875 5.8125 19.6875 5.8125 19.6875 6.375C19.6875 6.9375 19.6875 6.9375 18.6375 6.9375C17.3813 6.9375 16.875 7.18125 16.875 7.78125C16.875 8.38125 17.3813 8.625 18.6375 8.625C19.6875 8.625 19.6875 8.625 19.6875 9.1875C19.6875 9.75 19.6875 9.75 18.6375 9.75C17.3813 9.75 16.875 9.99375 16.875 10.5937C16.875 11.1937 17.3813 11.4375 18.6375 11.4375C19.6875 11.4375 19.6875 11.4375 19.6875 12C19.6875 12.5625 19.6875 12.5625 18.6375 12.5625C17.3813 12.5625 16.875 12.8062 16.875 13.4062C16.875 14.0062 17.3813 14.25 18.6375 14.25C19.6875 14.25 19.6875 14.25 19.6875 14.8125C19.6875 15.375 19.6875 15.375 18.6375 15.375C17.3813 15.375 16.875 15.6187 16.875 16.2187C16.875 16.8187 17.3813 17.0625 18.6375 17.0625C19.6875 17.0625 19.6875 17.0625 19.6875 17.625C19.6875 18.1875 19.6875 18.1875 18.6375 18.1875C17.3813 18.1875 16.875 18.4312 16.875 19.0312C16.875 19.6312 17.3813 19.875 18.6375 19.875C19.6875 19.875 19.6875 19.875 19.6875 20.4375C19.6875 21 19.6875 21 18.6375 21C17.3813 21 16.875 21.2437 16.875 21.8437C16.875 22.5375 17.4 22.6875 19.725 22.6875C22.2563 22.6875 23.1 22.4812 23.625 21.7687C23.9813 21.2437 24 20.9812 24 12C24 3.01875 23.9813 2.75625 23.625 2.23125C23.4 1.93125 22.95 1.6125 22.5375 1.5C21.6375 1.25625 17.625 1.25625 17.2125 1.51875ZM22.3875 3.3C22.5375 3.675 22.5375 20.325 22.3875 20.7C22.3125 20.8875 22.05 21 21.7313 21H21.1875V12V3H21.7313C22.05 3 22.3125 3.1125 22.3875 3.3Z" fill="#EF8547"/>
</svg>
