<svg width="16" height="16" viewBox="0 0 16 16" fill="none" xmlns="http://www.w3.org/2000/svg">
<rect width="16" height="16" fill="#1E1E1E"/>
<path d="M-2061 -760C-2061 -761.105 -2060.1 -762 -2059 -762H9065C9066.1 -762 9067 -761.105 9067 -760V3552C9067 3553.1 9066.1 3554 9065 3554H-2059C-2060.1 3554 -2061 3553.1 -2061 3552V-760Z" fill="#C9D2D5"/>
<g clip-path="url(#clip0_1_3)">
<rect x="-273" y="-221" width="390" height="1043" rx="16" fill="#EF8547"/>
<g opacity="0.2" clip-path="url(#clip1_1_3)">
<path d="M95.0204 -103.592C82.3657 -108.082 71.6766 -111.973 58.9351 -116.413C52.2407 -118.794 44.4186 -120.523 37.1448 -119.099C35.9903 -118.895 34.8859 -118.605 33.8316 -118.227C31.4627 -117.322 29.1207 -115.97 26.8654 -114.668C24.6101 -113.366 22.2681 -112.014 20.2632 -110.278C19.4092 -109.554 18.6053 -108.743 17.8515 -107.845C12.9815 -102.257 10.6548 -94.6685 9.28227 -87.6307C6.84394 -74.4261 4.86879 -63.2237 2.34371 -49.969C-2.45892 -32.0453 -9.16268 -11.4048 3.60588 4.70132C11.2296 12.0966 22.6198 17.2017 35.4353 13.1567C42.5187 10.8019 59.7747 -5.98452 81.2867 -18.4044L82.848 -19.3059C104.36 -31.7258 127.475 -38.3635 133.106 -43.2338C143.017 -52.3098 144.241 -64.8133 141.699 -75.0265C134.171 -94.2743 112.944 -98.7889 95.0204 -103.592Z" fill="white"/>
</g>
<rect width="390" height="730" transform="translate(-273 12)" fill="#F7F7F7"/>
<g filter="url(#filter0_d_1_3)">
<rect x="-249" y="-88" width="342" height="200" rx="8" fill="white" shape-rendering="crispEdges"/>
<rect x="-225" y="-14" width="294" height="44" rx="4" fill="#F3F3F3"/>
<mask id="path-7-outside-1_1_3" maskUnits="userSpaceOnUse" x="-0.333252" y="0.666626" width="16" height="15" fill="black">
<rect fill="white" x="-0.333252" y="0.666626" width="16" height="15"/>
<path d="M4.06423 1.87223C2.7102 2.2968 1.65452 3.23773 1.03488 4.58028C0.736538 5.19992 0.713589 5.39499 0.679164 6.86377C0.64474 8.12599 0.679164 8.56204 0.816862 8.89481C1.17258 9.72099 1.98729 10.421 2.83643 10.6275C3.06592 10.6849 3.15772 10.8226 3.31837 11.3619C3.69703 12.67 4.82156 13.8634 6.16411 14.4027C6.65753 14.5978 7.0362 14.6552 7.94271 14.6666C9.30821 14.6666 9.8131 14.5289 10.754 13.8978C11.6376 13.3126 12.4064 12.3028 12.6818 11.3734C12.8424 10.8226 12.9342 10.6849 13.1637 10.6275C14.0129 10.421 14.8276 9.72099 15.1833 8.89481C15.321 8.56204 15.3554 8.12599 15.321 6.86377C15.2866 5.39499 15.2636 5.19992 14.9653 4.58028C14.3342 3.22626 13.29 2.2968 11.913 1.87223C11.2589 1.66569 10.8688 1.64274 7.95418 1.65421C5.13138 1.65421 4.64944 1.67716 4.06423 1.87223ZM11.8097 2.89349C13.29 3.4787 14.2768 4.86715 14.3915 6.55395C14.4833 7.8506 14.3686 8.45876 13.944 8.9407C13.749 9.15873 13.4391 9.42265 13.267 9.51444L12.9342 9.68657V7.50636C12.9342 5.17697 12.8998 5.0278 12.3376 5.10812L12.0736 5.14255L12.0048 7.83912C11.9245 11.0865 11.8097 11.4996 10.7655 12.5553C9.18198 14.1273 6.81818 14.1273 5.23466 12.5553C4.17898 11.4996 4.0757 11.0865 3.99538 7.83912L3.92653 5.14255L3.66261 5.10812C3.10035 5.0278 3.06592 5.17697 3.06592 7.50636V9.68657L2.73315 9.51444C2.18236 9.22757 1.7119 8.58499 1.6201 7.99977C1.4824 7.08179 1.63157 5.73924 1.95287 5.03928C2.50366 3.83442 3.61671 2.95086 4.90189 2.67547C5.18876 2.61809 6.7149 2.58367 8.28695 2.60662C10.9606 2.62957 11.2015 2.65252 11.8097 2.89349Z"/>
</mask>
<path d="M4.06423 1.87223C2.7102 2.2968 1.65452 3.23773 1.03488 4.58028C0.736538 5.19992 0.713589 5.39499 0.679164 6.86377C0.64474 8.12599 0.679164 8.56204 0.816862 8.89481C1.17258 9.72099 1.98729 10.421 2.83643 10.6275C3.06592 10.6849 3.15772 10.8226 3.31837 11.3619C3.69703 12.67 4.82156 13.8634 6.16411 14.4027C6.65753 14.5978 7.0362 14.6552 7.94271 14.6666C9.30821 14.6666 9.8131 14.5289 10.754 13.8978C11.6376 13.3126 12.4064 12.3028 12.6818 11.3734C12.8424 10.8226 12.9342 10.6849 13.1637 10.6275C14.0129 10.421 14.8276 9.72099 15.1833 8.89481C15.321 8.56204 15.3554 8.12599 15.321 6.86377C15.2866 5.39499 15.2636 5.19992 14.9653 4.58028C14.3342 3.22626 13.29 2.2968 11.913 1.87223C11.2589 1.66569 10.8688 1.64274 7.95418 1.65421C5.13138 1.65421 4.64944 1.67716 4.06423 1.87223ZM11.8097 2.89349C13.29 3.4787 14.2768 4.86715 14.3915 6.55395C14.4833 7.8506 14.3686 8.45876 13.944 8.9407C13.749 9.15873 13.4391 9.42265 13.267 9.51444L12.9342 9.68657V7.50636C12.9342 5.17697 12.8998 5.0278 12.3376 5.10812L12.0736 5.14255L12.0048 7.83912C11.9245 11.0865 11.8097 11.4996 10.7655 12.5553C9.18198 14.1273 6.81818 14.1273 5.23466 12.5553C4.17898 11.4996 4.0757 11.0865 3.99538 7.83912L3.92653 5.14255L3.66261 5.10812C3.10035 5.0278 3.06592 5.17697 3.06592 7.50636V9.68657L2.73315 9.51444C2.18236 9.22757 1.7119 8.58499 1.6201 7.99977C1.4824 7.08179 1.63157 5.73924 1.95287 5.03928C2.50366 3.83442 3.61671 2.95086 4.90189 2.67547C5.18876 2.61809 6.7149 2.58367 8.28695 2.60662C10.9606 2.62957 11.2015 2.65252 11.8097 2.89349Z" fill="#9FA7BB"/>
<path d="M4.06423 1.87223C2.7102 2.2968 1.65452 3.23773 1.03488 4.58028C0.736538 5.19992 0.713589 5.39499 0.679164 6.86377C0.64474 8.12599 0.679164 8.56204 0.816862 8.89481C1.17258 9.72099 1.98729 10.421 2.83643 10.6275C3.06592 10.6849 3.15772 10.8226 3.31837 11.3619C3.69703 12.67 4.82156 13.8634 6.16411 14.4027C6.65753 14.5978 7.0362 14.6552 7.94271 14.6666C9.30821 14.6666 9.8131 14.5289 10.754 13.8978C11.6376 13.3126 12.4064 12.3028 12.6818 11.3734C12.8424 10.8226 12.9342 10.6849 13.1637 10.6275C14.0129 10.421 14.8276 9.72099 15.1833 8.89481C15.321 8.56204 15.3554 8.12599 15.321 6.86377C15.2866 5.39499 15.2636 5.19992 14.9653 4.58028C14.3342 3.22626 13.29 2.2968 11.913 1.87223C11.2589 1.66569 10.8688 1.64274 7.95418 1.65421C5.13138 1.65421 4.64944 1.67716 4.06423 1.87223ZM11.8097 2.89349C13.29 3.4787 14.2768 4.86715 14.3915 6.55395C14.4833 7.8506 14.3686 8.45876 13.944 8.9407C13.749 9.15873 13.4391 9.42265 13.267 9.51444L12.9342 9.68657V7.50636C12.9342 5.17697 12.8998 5.0278 12.3376 5.10812L12.0736 5.14255L12.0048 7.83912C11.9245 11.0865 11.8097 11.4996 10.7655 12.5553C9.18198 14.1273 6.81818 14.1273 5.23466 12.5553C4.17898 11.4996 4.0757 11.0865 3.99538 7.83912L3.92653 5.14255L3.66261 5.10812C3.10035 5.0278 3.06592 5.17697 3.06592 7.50636V9.68657L2.73315 9.51444C2.18236 9.22757 1.7119 8.58499 1.6201 7.99977C1.4824 7.08179 1.63157 5.73924 1.95287 5.03928C2.50366 3.83442 3.61671 2.95086 4.90189 2.67547C5.18876 2.61809 6.7149 2.58367 8.28695 2.60662C10.9606 2.62957 11.2015 2.65252 11.8097 2.89349Z" stroke="#9FA7BB" stroke-width="0.4" mask="url(#path-7-outside-1_1_3)"/>
<mask id="path-8-outside-2_1_3" maskUnits="userSpaceOnUse" x="4.60132" y="6.17175" width="3" height="3" fill="black">
<rect fill="white" x="4.60132" y="6.17175" width="3" height="3"/>
<path d="M5.63621 6.62279C5.60178 6.70312 5.59031 7.08179 5.61326 7.44898C5.64768 8.05714 5.67063 8.12599 5.9116 8.16042C6.33617 8.22926 6.50829 7.98829 6.50829 7.33423C6.50829 7.00146 6.45092 6.68017 6.37059 6.59984C6.187 6.41625 5.71653 6.42772 5.63621 6.62279Z"/>
</mask>
<path d="M5.63621 6.62279C5.60178 6.70312 5.59031 7.08179 5.61326 7.44898C5.64768 8.05714 5.67063 8.12599 5.9116 8.16042C6.33617 8.22926 6.50829 7.98829 6.50829 7.33423C6.50829 7.00146 6.45092 6.68017 6.37059 6.59984C6.187 6.41625 5.71653 6.42772 5.63621 6.62279Z" fill="#9FA7BB"/>
<path d="M5.63621 6.62279C5.60178 6.70312 5.59031 7.08179 5.61326 7.44898C5.64768 8.05714 5.67063 8.12599 5.9116 8.16042C6.33617 8.22926 6.50829 7.98829 6.50829 7.33423C6.50829 7.00146 6.45092 6.68017 6.37059 6.59984C6.187 6.41625 5.71653 6.42772 5.63621 6.62279Z" stroke="#9FA7BB" stroke-width="0.4" mask="url(#path-8-outside-2_1_3)"/>
<mask id="path-9-outside-3_1_3" maskUnits="userSpaceOnUse" x="8.4917" y="6.17175" width="3" height="3" fill="black">
<rect fill="white" x="8.4917" y="6.17175" width="3" height="3"/>
<path d="M9.6294 6.59984C9.56055 6.66869 9.4917 7.00146 9.4917 7.33423C9.4917 7.98829 9.66382 8.22926 10.0884 8.16042C10.3408 8.12599 10.3523 8.06862 10.3523 7.32276C10.3523 6.55394 10.3408 6.51952 10.0654 6.4851C9.90479 6.46215 9.70972 6.51952 9.6294 6.59984Z"/>
</mask>
<path d="M9.6294 6.59984C9.56055 6.66869 9.4917 7.00146 9.4917 7.33423C9.4917 7.98829 9.66382 8.22926 10.0884 8.16042C10.3408 8.12599 10.3523 8.06862 10.3523 7.32276C10.3523 6.55394 10.3408 6.51952 10.0654 6.4851C9.90479 6.46215 9.70972 6.51952 9.6294 6.59984Z" fill="#9FA7BB"/>
<path d="M9.6294 6.59984C9.56055 6.66869 9.4917 7.00146 9.4917 7.33423C9.4917 7.98829 9.66382 8.22926 10.0884 8.16042C10.3408 8.12599 10.3523 8.06862 10.3523 7.32276C10.3523 6.55394 10.3408 6.51952 10.0654 6.4851C9.90479 6.46215 9.70972 6.51952 9.6294 6.59984Z" stroke="#9FA7BB" stroke-width="0.4" mask="url(#path-9-outside-3_1_3)"/>
<mask id="path-10-outside-4_1_3" maskUnits="userSpaceOnUse" x="5.27881" y="8.97876" width="5" height="4" fill="black">
<rect fill="white" x="5.27881" y="8.97876" width="5" height="4"/>
<path d="M6.89845 9.77847C6.58863 9.91617 6.27881 10.3407 6.27881 10.6506C6.27881 11.0063 6.6919 11.5915 7.09352 11.798C7.55251 12.039 8.44754 12.039 8.91801 11.798C9.31963 11.5915 9.72125 11.0063 9.72125 10.6276C9.72125 10.4899 9.59502 10.226 9.44585 10.0539C9.18193 9.75552 9.10161 9.73257 8.1492 9.70962C7.59841 9.68667 7.02467 9.72109 6.89845 9.77847ZM8.41312 10.88C8.2869 10.9718 8.1033 11.0522 8.00003 11.0522C7.89675 11.0522 7.71316 10.9718 7.58693 10.88C7.39186 10.7309 7.41481 10.7194 8.00003 10.7194C8.58524 10.7194 8.60819 10.7309 8.41312 10.88Z"/>
</mask>
<path d="M6.89845 9.77847C6.58863 9.91617 6.27881 10.3407 6.27881 10.6506C6.27881 11.0063 6.6919 11.5915 7.09352 11.798C7.55251 12.039 8.44754 12.039 8.91801 11.798C9.31963 11.5915 9.72125 11.0063 9.72125 10.6276C9.72125 10.4899 9.59502 10.226 9.44585 10.0539C9.18193 9.75552 9.10161 9.73257 8.1492 9.70962C7.59841 9.68667 7.02467 9.72109 6.89845 9.77847ZM8.41312 10.88C8.2869 10.9718 8.1033 11.0522 8.00003 11.0522C7.89675 11.0522 7.71316 10.9718 7.58693 10.88C7.39186 10.7309 7.41481 10.7194 8.00003 10.7194C8.58524 10.7194 8.60819 10.7309 8.41312 10.88Z" fill="#9FA7BB"/>
<path d="M6.89845 9.77847C6.58863 9.91617 6.27881 10.3407 6.27881 10.6506C6.27881 11.0063 6.6919 11.5915 7.09352 11.798C7.55251 12.039 8.44754 12.039 8.91801 11.798C9.31963 11.5915 9.72125 11.0063 9.72125 10.6276C9.72125 10.4899 9.59502 10.226 9.44585 10.0539C9.18193 9.75552 9.10161 9.73257 8.1492 9.70962C7.59841 9.68667 7.02467 9.72109 6.89845 9.77847ZM8.41312 10.88C8.2869 10.9718 8.1033 11.0522 8.00003 11.0522C7.89675 11.0522 7.71316 10.9718 7.58693 10.88C7.39186 10.7309 7.41481 10.7194 8.00003 10.7194C8.58524 10.7194 8.60819 10.7309 8.41312 10.88Z" stroke="#9FA7BB" stroke-width="0.4" mask="url(#path-10-outside-4_1_3)"/>
</g>
</g>
<path d="M-2059 -761H9065V-763H-2059V-761ZM9066 -760V3552H9068V-760H9066ZM9065 3553H-2059V3555H9065V3553ZM-2060 3552V-760H-2062V3552H-2060ZM-2059 3553C-2059.55 3553 -2060 3552.55 -2060 3552H-2062C-2062 3553.66 -2060.66 3555 -2059 3555V3553ZM9066 3552C9066 3552.55 9065.55 3553 9065 3553V3555C9066.66 3555 9068 3553.66 9068 3552H9066ZM9065 -761C9065.55 -761 9066 -760.552 9066 -760H9068C9068 -761.657 9066.66 -763 9065 -763V-761ZM-2059 -763C-2060.66 -763 -2062 -761.657 -2062 -760H-2060C-2060 -760.552 -2059.55 -761 -2059 -761V-763Z" fill="black" fill-opacity="0.1"/>
<defs>
<filter id="filter0_d_1_3" x="-265" y="-100" width="374" height="232" filterUnits="userSpaceOnUse" color-interpolation-filters="sRGB">
<feFlood flood-opacity="0" result="BackgroundImageFix"/>
<feColorMatrix in="SourceAlpha" type="matrix" values="0 0 0 0 0 0 0 0 0 0 0 0 0 0 0 0 0 0 127 0" result="hardAlpha"/>
<feOffset dy="4"/>
<feGaussianBlur stdDeviation="8"/>
<feComposite in2="hardAlpha" operator="out"/>
<feColorMatrix type="matrix" values="0 0 0 0 0.358333 0 0 0 0 0.132509 0 0 0 0 0 0 0 0 0.1 0"/>
<feBlend mode="normal" in2="BackgroundImageFix" result="effect1_dropShadow_1_3"/>
<feBlend mode="normal" in="SourceGraphic" in2="effect1_dropShadow_1_3" result="shape"/>
</filter>
<clipPath id="clip0_1_3">
<rect x="-273" y="-221" width="390" height="1043" rx="16" fill="white"/>
</clipPath>
<clipPath id="clip1_1_3">
<rect width="240.386" height="240.386" fill="white" transform="translate(-129.809 -145.65) rotate(-30)"/>
</clipPath>
</defs>
</svg>
