<svg width="16" height="16" viewBox="0 0 16 16" fill="none" xmlns="http://www.w3.org/2000/svg">
<rect width="16" height="16" fill="#1E1E1E"/>
<path d="M-1820 -1374C-1820 -1375.1 -1819.1 -1376 -1818 -1376H9306C9307.1 -1376 9308 -1375.1 9308 -1374V2938C9308 2939.1 9307.1 2940 9306 2940H-1818C-1819.1 2940 -1820 2939.1 -1820 2938V-1374Z" fill="#C9D2D5"/>
<g clip-path="url(#clip0_1_3)">
<rect x="-32" y="-835" width="390" height="1043" rx="16" fill="#EF8547"/>
<rect width="390" height="730" transform="translate(-32 -602)" fill="#F7F7F7"/>
<g filter="url(#filter0_d_1_3)">
<rect x="-8" y="-176" width="196" height="280" rx="4" fill="white"/>
<g clip-path="url(#clip1_1_3)">
<path d="M7.99992 1.33331C5.41992 1.33331 3.33325 3.41998 3.33325 5.99998C3.33325 9.49998 7.99992 14.6666 7.99992 14.6666C7.99992 14.6666 12.6666 9.49998 12.6666 5.99998C12.6666 3.41998 10.5799 1.33331 7.99992 1.33331ZM7.99992 7.66665C7.07992 7.66665 6.33325 6.91998 6.33325 5.99998C6.33325 5.07998 7.07992 4.33331 7.99992 4.33331C8.91992 4.33331 9.66658 5.07998 9.66658 5.99998C9.66658 6.91998 8.91992 7.66665 7.99992 7.66665Z" fill="#767676"/>
</g>
</g>
</g>
<path d="M-1818 -1375H9306V-1377H-1818V-1375ZM9307 -1374V2938H9309V-1374H9307ZM9306 2939H-1818V2941H9306V2939ZM-1819 2938V-1374H-1821V2938H-1819ZM-1818 2939C-1818.55 2939 -1819 2938.55 -1819 2938H-1821C-1821 2939.66 -1819.66 2941 -1818 2941V2939ZM9307 2938C9307 2938.55 9306.55 2939 9306 2939V2941C9307.66 2941 9309 2939.66 9309 2938H9307ZM9306 -1375C9306.55 -1375 9307 -1374.55 9307 -1374H9309C9309 -1375.66 9307.66 -1377 9306 -1377V-1375ZM-1818 -1377C-1819.66 -1377 -1821 -1375.66 -1821 -1374H-1819C-1819 -1374.55 -1818.55 -1375 -1818 -1375V-1377Z" fill="black" fill-opacity="0.1"/>
<defs>
<filter id="filter0_d_1_3" x="-24" y="-188" width="228" height="312" filterUnits="userSpaceOnUse" color-interpolation-filters="sRGB">
<feFlood flood-opacity="0" result="BackgroundImageFix"/>
<feColorMatrix in="SourceAlpha" type="matrix" values="0 0 0 0 0 0 0 0 0 0 0 0 0 0 0 0 0 0 127 0" result="hardAlpha"/>
<feOffset dy="4"/>
<feGaussianBlur stdDeviation="8"/>
<feComposite in2="hardAlpha" operator="out"/>
<feColorMatrix type="matrix" values="0 0 0 0 0.358333 0 0 0 0 0.132509 0 0 0 0 0 0 0 0 0.1 0"/>
<feBlend mode="normal" in2="BackgroundImageFix" result="effect1_dropShadow_1_3"/>
<feBlend mode="normal" in="SourceGraphic" in2="effect1_dropShadow_1_3" result="shape"/>
</filter>
<clipPath id="clip0_1_3">
<rect x="-32" y="-835" width="390" height="1043" rx="16" fill="white"/>
</clipPath>
<clipPath id="clip1_1_3">
<rect width="16" height="16" fill="white"/>
</clipPath>
</defs>
</svg>
