<svg width="16" height="16" viewBox="0 0 16 16" fill="none" xmlns="http://www.w3.org/2000/svg">
<rect width="16" height="16" fill="#1E1E1E"/>
<path d="M-1844 -760C-1844 -761.105 -1843.1 -762 -1842 -762H9282C9283.1 -762 9284 -761.105 9284 -760V3552C9284 3553.1 9283.1 3554 9282 3554H-1842C-1843.1 3554 -1844 3553.1 -1844 3552V-760Z" fill="#C9D2D5"/>
<g clip-path="url(#clip0_1_3)">
<rect x="-56" y="-221" width="390" height="1043" rx="16" fill="#EF8547"/>
<rect width="390" height="730" transform="translate(-56 12)" fill="#F7F7F7"/>
<g filter="url(#filter0_d_1_3)">
<rect x="-32" y="-88" width="342" height="200" rx="8" fill="white" shape-rendering="crispEdges"/>
<rect x="-8" y="-14" width="294" height="44" rx="4" fill="#F3F3F3"/>
<path d="M4.775 1.44163C4.6875 1.52913 4.625 1.82913 4.625 2.12913V2.66663H3.675C2.8 2.66663 2.7 2.69163 2.3625 3.02913L2 3.39163V8.66663V13.9416L2.3625 14.3041L2.725 14.6666H8H13.275L13.6375 14.3041L14 13.9416V8.66663V3.39163L13.6375 3.02913C13.3 2.69163 13.2 2.66663 12.325 2.66663H11.375V2.17913C11.375 1.60413 11.125 1.29163 10.6375 1.29163C10.1625 1.29163 10 1.50413 10 2.12913V2.66663H8H6V2.12913C6 1.82913 5.9375 1.52913 5.85 1.44163C5.65 1.24163 4.975 1.24163 4.775 1.44163ZM12.625 4.66663V5.29163H8H3.375V4.66663V4.04163H8H12.625V4.66663ZM12.625 9.97913V13.2916H8H3.375V9.97913V6.66663H8H12.625V9.97913Z" fill="#9FA7BB"/>
<path d="M4.9001 8.11663C4.3626 8.49163 4.6751 9.41663 5.3501 9.41663C5.7126 9.41663 6.0001 9.09163 6.0001 8.66663C6.0001 8.00413 5.4501 7.72913 4.9001 8.11663Z" fill="#9FA7BB"/>
<path d="M7.5 8.16663C7.3625 8.30413 7.25 8.52913 7.25 8.66663C7.25 8.80413 7.3625 9.02913 7.5 9.16663C7.6375 9.30413 7.8625 9.41663 8 9.41663C8.1375 9.41663 8.3625 9.30413 8.5 9.16663C8.6375 9.02913 8.75 8.80413 8.75 8.66663C8.75 8.52913 8.6375 8.30413 8.5 8.16663C8.3625 8.02913 8.1375 7.91663 8 7.91663C7.8625 7.91663 7.6375 8.02913 7.5 8.16663Z" fill="#9FA7BB"/>
<path d="M10.1999 8.11663C9.7624 8.55413 10.0749 9.41663 10.6749 9.41663C11.3249 9.41663 11.6249 8.47913 11.0999 8.11663C10.7374 7.86663 10.4499 7.86663 10.1999 8.11663Z" fill="#9FA7BB"/>
<path d="M4.77505 10.8166C4.56255 11.0291 4.58755 11.6166 4.82505 11.8416C5.05005 12.0791 5.63755 12.1041 5.85005 11.8916C5.93755 11.8041 6.00005 11.5666 6.00005 11.3541C6.00005 10.8666 5.80005 10.6666 5.31255 10.6666C5.10005 10.6666 4.86255 10.7291 4.77505 10.8166Z" fill="#9FA7BB"/>
<path d="M7.44995 10.8666C6.99995 11.3041 7.37495 12.0416 8.03745 12.0416C8.37495 12.0416 8.74995 11.6416 8.74995 11.2791C8.74995 10.7666 7.83745 10.4666 7.44995 10.8666Z" fill="#9FA7BB"/>
<path d="M10.15 10.8166C9.95 11.0166 9.95 11.6916 10.15 11.8916C10.3625 12.1041 10.95 12.0791 11.175 11.8416C11.4 11.6166 11.425 11.2541 11.25 10.9041C11.1 10.6291 10.4 10.5666 10.15 10.8166Z" fill="#9FA7BB"/>
</g>
</g>
<path d="M-1842 -761H9282V-763H-1842V-761ZM9283 -760V3552H9285V-760H9283ZM9282 3553H-1842V3555H9282V3553ZM-1843 3552V-760H-1845V3552H-1843ZM-1842 3553C-1842.55 3553 -1843 3552.55 -1843 3552H-1845C-1845 3553.66 -1843.66 3555 -1842 3555V3553ZM9283 3552C9283 3552.55 9282.55 3553 9282 3553V3555C9283.66 3555 9285 3553.66 9285 3552H9283ZM9282 -761C9282.55 -761 9283 -760.552 9283 -760H9285C9285 -761.657 9283.66 -763 9282 -763V-761ZM-1842 -763C-1843.66 -763 -1845 -761.657 -1845 -760H-1843C-1843 -760.552 -1842.55 -761 -1842 -761V-763Z" fill="black" fill-opacity="0.1"/>
<defs>
<filter id="filter0_d_1_3" x="-48" y="-100" width="374" height="232" filterUnits="userSpaceOnUse" color-interpolation-filters="sRGB">
<feFlood flood-opacity="0" result="BackgroundImageFix"/>
<feColorMatrix in="SourceAlpha" type="matrix" values="0 0 0 0 0 0 0 0 0 0 0 0 0 0 0 0 0 0 127 0" result="hardAlpha"/>
<feOffset dy="4"/>
<feGaussianBlur stdDeviation="8"/>
<feComposite in2="hardAlpha" operator="out"/>
<feColorMatrix type="matrix" values="0 0 0 0 0.358333 0 0 0 0 0.132509 0 0 0 0 0 0 0 0 0.1 0"/>
<feBlend mode="normal" in2="BackgroundImageFix" result="effect1_dropShadow_1_3"/>
<feBlend mode="normal" in="SourceGraphic" in2="effect1_dropShadow_1_3" result="shape"/>
</filter>
<clipPath id="clip0_1_3">
<rect x="-56" y="-221" width="390" height="1043" rx="16" fill="white"/>
</clipPath>
</defs>
</svg>
