<svg width="16" height="16" viewBox="0 0 16 16" fill="none" xmlns="http://www.w3.org/2000/svg">
<rect width="16" height="16" fill="#1E1E1E"/>
<path d="M-2106 -708C-2106 -709.105 -2105.1 -710 -2104 -710H9020C9021.1 -710 9022 -709.105 9022 -708V3604C9022 3605.1 9021.1 3606 9020 3606H-2104C-2105.1 3606 -2106 3605.1 -2106 3604V-708Z" fill="#C9D2D5"/>
<g clip-path="url(#clip0_1_3)">
<rect x="-318" y="-169" width="390" height="1043" rx="16" fill="#EF8547"/>
<g opacity="0.2" clip-path="url(#clip1_1_3)">
<path d="M50.0204 -51.5916C37.3657 -56.0822 26.6766 -59.9729 13.9351 -64.4135C7.24069 -66.7938 -0.581394 -68.5231 -7.85524 -67.0993C-9.00972 -66.8954 -10.1141 -66.6047 -11.1684 -66.2273C-13.5373 -65.3223 -15.8793 -63.9701 -18.1346 -62.668C-20.3899 -61.366 -22.7319 -60.0138 -24.7368 -58.278C-25.5908 -57.5536 -26.3947 -56.7425 -27.1485 -55.8447C-32.0185 -50.2572 -34.3452 -42.6685 -35.7177 -35.6307C-38.1561 -22.4261 -40.1312 -11.2237 -42.6563 2.03102C-47.4589 19.9547 -54.1627 40.5952 -41.3941 56.7013C-33.7704 64.0966 -22.3802 69.2017 -9.56469 65.1567C-2.48134 62.8019 14.7747 46.0155 36.2867 33.5956L37.848 32.6941C59.3599 20.2742 82.4754 13.6365 88.1064 8.76623C98.0172 -0.309802 99.2412 -12.8133 96.6986 -23.0265C89.1712 -42.2743 67.9441 -46.7889 50.0204 -51.5916Z" fill="white"/>
</g>
<g filter="url(#filter0_d_1_3)">
<rect x="-294" y="-36" width="342" height="200" rx="8" fill="white" shape-rendering="crispEdges"/>
<rect x="-270" y="-14" width="294" height="44" rx="4" fill="#F3F3F3"/>
<path d="M7.4625 0.849999C7.3375 0.974999 7.25 1.275 7.25 1.5125C7.25 1.9375 7.25 1.95 6.375 2.1625C4.3875 2.6875 2.675 4.3875 2.1625 6.3875L1.95 7.25H1.4875C0.9625 7.25 0.625 7.55 0.625 8.025C0.625 8.45 0.9875 8.75 1.5125 8.75C1.9375 8.75 1.95 8.75 2.1625 9.6125C2.675 11.6125 4.3875 13.3125 6.375 13.8375L7.25 14.05V14.5125C7.25 15.0375 7.55 15.375 8.025 15.375C8.45 15.375 8.75 15.0125 8.75 14.4875C8.75 14.0625 8.75 14.05 9.625 13.8375C11.6125 13.3125 13.325 11.6125 13.8375 9.6125L14.05 8.75H14.5125C15.0375 8.75 15.375 8.45 15.375 7.975C15.375 7.55 15.0125 7.25 14.4875 7.25C14.0625 7.25 14.05 7.25 13.8375 6.375C13.3125 4.3875 11.6125 2.675 9.6125 2.1625L8.75 1.95V1.4875C8.75 0.724999 7.9375 0.324999 7.4625 0.849999ZM9.85 3.8125C10.2375 3.9875 10.8375 4.4 11.1625 4.725C13.5125 7.0125 12.825 10.8125 9.8125 12.2125C9.175 12.5 8.9 12.5625 8 12.5625C7.1 12.5625 6.825 12.5 6.1875 12.2125C3.825 11.1125 2.7875 8.45 3.825 6.125C4.375 4.9125 5.6625 3.8375 6.9625 3.5C7.7375 3.3125 9.05 3.45 9.85 3.8125Z" fill="#EF8547"/>
<path d="M7.19996 5.37505C5.49996 5.88755 4.73746 7.97505 5.71246 9.47505C6.78746 11.1375 9.21246 11.1375 10.2875 9.47505C11.65 7.36255 9.61246 4.66255 7.19996 5.37505ZM8.61246 6.92505C9.44996 7.36255 9.42496 8.71255 8.56246 9.10005C7.92496 9.38755 7.22496 9.18755 6.92496 8.61255C6.33746 7.47505 7.47496 6.33755 8.61246 6.92505Z" fill="#EF8547"/>
</g>
</g>
<g filter="url(#filter1_d_1_3)">
<path d="M94 -153C94 -158.601 94 -161.401 95.0899 -163.54C96.0487 -165.422 97.5785 -166.951 99.4601 -167.91C101.599 -169 104.399 -169 110 -169H471C476.601 -169 479.401 -169 481.54 -167.91C483.422 -166.951 484.951 -165.422 485.91 -163.54C487 -161.401 487 -158.601 487 -153V631H94V-153Z" fill="white" shape-rendering="crispEdges"/>
</g>
<path d="M-2104 -709H9020V-711H-2104V-709ZM9021 -708V3604H9023V-708H9021ZM9020 3605H-2104V3607H9020V3605ZM-2105 3604V-708H-2107V3604H-2105ZM-2104 3605C-2104.55 3605 -2105 3604.55 -2105 3604H-2107C-2107 3605.66 -2105.66 3607 -2104 3607V3605ZM9021 3604C9021 3604.55 9020.55 3605 9020 3605V3607C9021.66 3607 9023 3605.66 9023 3604H9021ZM9020 -709C9020.55 -709 9021 -708.552 9021 -708H9023C9023 -709.657 9021.66 -711 9020 -711V-709ZM-2104 -711C-2105.66 -711 -2107 -709.657 -2107 -708H-2105C-2105 -708.552 -2104.55 -709 -2104 -709V-711Z" fill="black" fill-opacity="0.1"/>
<defs>
<filter id="filter0_d_1_3" x="-310" y="-48" width="374" height="232" filterUnits="userSpaceOnUse" color-interpolation-filters="sRGB">
<feFlood flood-opacity="0" result="BackgroundImageFix"/>
<feColorMatrix in="SourceAlpha" type="matrix" values="0 0 0 0 0 0 0 0 0 0 0 0 0 0 0 0 0 0 127 0" result="hardAlpha"/>
<feOffset dy="4"/>
<feGaussianBlur stdDeviation="8"/>
<feComposite in2="hardAlpha" operator="out"/>
<feColorMatrix type="matrix" values="0 0 0 0 0.358333 0 0 0 0 0.132509 0 0 0 0 0 0 0 0 0.1 0"/>
<feBlend mode="normal" in2="BackgroundImageFix" result="effect1_dropShadow_1_3"/>
<feBlend mode="normal" in="SourceGraphic" in2="effect1_dropShadow_1_3" result="shape"/>
</filter>
<filter id="filter1_d_1_3" x="-6" y="-269" width="593" height="1000" filterUnits="userSpaceOnUse" color-interpolation-filters="sRGB">
<feFlood flood-opacity="0" result="BackgroundImageFix"/>
<feColorMatrix in="SourceAlpha" type="matrix" values="0 0 0 0 0 0 0 0 0 0 0 0 0 0 0 0 0 0 127 0" result="hardAlpha"/>
<feOffset/>
<feGaussianBlur stdDeviation="50"/>
<feComposite in2="hardAlpha" operator="out"/>
<feColorMatrix type="matrix" values="0 0 0 0 0 0 0 0 0 0 0 0 0 0 0 0 0 0 0.05 0"/>
<feBlend mode="normal" in2="BackgroundImageFix" result="effect1_dropShadow_1_3"/>
<feBlend mode="normal" in="SourceGraphic" in2="effect1_dropShadow_1_3" result="shape"/>
</filter>
<clipPath id="clip0_1_3">
<rect x="-318" y="-169" width="390" height="1043" rx="16" fill="white"/>
</clipPath>
<clipPath id="clip1_1_3">
<rect width="240.386" height="240.386" fill="white" transform="translate(-174.809 -93.6504) rotate(-30)"/>
</clipPath>
</defs>
</svg>
