<svg width="60" height="60" viewBox="0 0 60 60" fill="none" xmlns="http://www.w3.org/2000/svg">
<g opacity="0.6">
<path d="M9.51575 6.99606C9.34252 7.12598 9.2126 11.2402 9.2126 16.0905C9.2126 23.0197 9.08268 25.4016 8.51969 27.0472L7.82677 29.1693L5.14173 29.2992L2.5 29.4291V30.9449V32.4606L5.01181 32.5905L7.48032 32.7205V34.4094V36.0984L5.01181 36.2283L2.5 36.3583V37.874V39.3898L5.35827 39.5197L8.17323 39.6496L8.77953 41.252C9.68898 43.7638 14.1496 47.9646 17.1378 49.0472C19.4331 49.9134 20.4291 50 30 50C39.5709 50 40.5669 49.9134 42.8622 49.0472C45.8504 47.9646 50.311 43.7638 51.2205 41.252L51.8268 39.6496L54.6417 39.5197L57.5 39.3898V37.874V36.3583L55.0315 36.2283L52.5197 36.0984V34.4094V32.7205L55.0315 32.5905L57.5 32.4606V30.9449V29.4291L54.815 29.2992C53.2397 29.223 52.5886 29.1915 52.2058 28.8549C51.9361 28.6177 51.7996 28.2292 51.5669 27.5669C51.2638 26.6142 50.9606 22.2402 50.7874 16.437L50.5709 6.90944L48.3622 6.77952C45.2874 6.60629 41.9528 7.94881 39.0079 10.5905C36.7559 12.626 36.5394 12.7126 35.1535 12.3228C33.248 11.7598 26.752 11.7598 24.8465 12.3228C23.4606 12.7126 23.2441 12.626 20.9921 10.5905C19.6496 9.37795 17.5276 8.03543 16.2717 7.55905C14.0197 6.73621 10.0787 6.38976 9.51575 6.99606ZM15.622 11.4134C16.4882 11.8465 17.7008 12.7126 18.2205 13.3189L19.2598 14.4016L18.3504 14.9213C17.8307 15.1811 16.3583 16.2638 15.0591 17.3465L12.6772 19.252V14.9213C12.6772 10.0709 12.7638 9.94094 15.622 11.4134ZM47.3228 14.9213V19.252L44.9409 17.3465C43.6417 16.2638 42.1693 15.1811 41.6496 14.9213L40.7402 14.4016L41.7795 13.3189C42.9488 12.063 45.4606 10.6339 46.5866 10.5905C47.2362 10.5905 47.3228 11.0669 47.3228 14.9213ZM34.0276 16.0039C35.6299 16.3504 37.9252 17.1299 39.0945 17.7795C42.7323 19.7717 46.8032 24.5787 47.9291 28.2165C48.189 29.0394 48.0591 29.2126 47.4095 29.2126C46.1969 29.2126 45.4606 30.2953 45.7638 31.5945C45.9803 32.5039 46.2835 32.6772 47.5394 32.6772C49.0118 32.6772 49.0551 32.7205 49.0551 34.4094C49.0551 36.0118 48.9685 36.1417 47.7992 36.1417C47.1063 36.1417 46.3268 36.4449 46.0236 36.7913C45.2441 37.7008 45.8504 39.5197 46.9331 39.6929C47.8425 39.8228 47.7992 39.9094 46.4134 41.7283C45.5906 42.7677 43.8583 44.2402 42.5591 44.9764L40.1772 46.3189H30.1732H20.2126L17.6575 45.0197C16.0118 44.1968 14.5394 42.9843 13.6299 41.7717C12.2008 39.9094 12.1575 39.8228 13.0669 39.6929C14.1496 39.5197 14.7559 37.7008 13.9764 36.7913C13.6732 36.4449 12.8937 36.1417 12.2008 36.1417C11.0315 36.1417 10.9449 36.0118 10.9449 34.4094C10.9449 32.7205 10.9882 32.6772 12.4606 32.6772C13.7165 32.6772 14.0197 32.5039 14.2362 31.5945C14.5394 30.2953 13.8032 29.2126 12.5906 29.2126C11.5945 29.2126 11.7677 28.3465 13.4567 25.185C15.8386 20.7244 20.689 17.1299 25.7992 16.0039C29.3071 15.2244 30.4764 15.2244 34.0276 16.0039Z" fill="white"/>
<path d="M9.51575 6.99606C9.34252 7.12598 9.2126 11.2402 9.2126 16.0905C9.2126 23.0197 9.08268 25.4016 8.51969 27.0472L7.82677 29.1693L5.14173 29.2992L2.5 29.4291V30.9449V32.4606L5.01181 32.5905L7.48032 32.7205V34.4094V36.0984L5.01181 36.2283L2.5 36.3583V37.874V39.3898L5.35827 39.5197L8.17323 39.6496L8.77953 41.252C9.68898 43.7638 14.1496 47.9646 17.1378 49.0472C19.4331 49.9134 20.4291 50 30 50C39.5709 50 40.5669 49.9134 42.8622 49.0472C45.8504 47.9646 50.311 43.7638 51.2205 41.252L51.8268 39.6496L54.6417 39.5197L57.5 39.3898V37.874V36.3583L55.0315 36.2283L52.5197 36.0984V34.4094V32.7205L55.0315 32.5905L57.5 32.4606V30.9449V29.4291L54.815 29.2992C53.2397 29.223 52.5886 29.1915 52.2058 28.8549C51.9361 28.6177 51.7996 28.2292 51.5669 27.5669C51.2638 26.6142 50.9606 22.2402 50.7874 16.437L50.5709 6.90944L48.3622 6.77952C45.2874 6.60629 41.9528 7.94881 39.0079 10.5905C36.7559 12.626 36.5394 12.7126 35.1535 12.3228C33.248 11.7598 26.752 11.7598 24.8465 12.3228C23.4606 12.7126 23.2441 12.626 20.9921 10.5905C19.6496 9.37795 17.5276 8.03543 16.2717 7.55905C14.0197 6.73621 10.0787 6.38976 9.51575 6.99606ZM15.622 11.4134C16.4882 11.8465 17.7008 12.7126 18.2205 13.3189L19.2598 14.4016L18.3504 14.9213C17.8307 15.1811 16.3583 16.2638 15.0591 17.3465L12.6772 19.252V14.9213C12.6772 10.0709 12.7638 9.94094 15.622 11.4134ZM47.3228 14.9213V19.252L44.9409 17.3465C43.6417 16.2638 42.1693 15.1811 41.6496 14.9213L40.7402 14.4016L41.7795 13.3189C42.9488 12.063 45.4606 10.6339 46.5866 10.5905C47.2362 10.5905 47.3228 11.0669 47.3228 14.9213ZM34.0276 16.0039C35.6299 16.3504 37.9252 17.1299 39.0945 17.7795C42.7323 19.7717 46.8032 24.5787 47.9291 28.2165C48.189 29.0394 48.0591 29.2126 47.4095 29.2126C46.1969 29.2126 45.4606 30.2953 45.7638 31.5945C45.9803 32.5039 46.2835 32.6772 47.5394 32.6772C49.0118 32.6772 49.0551 32.7205 49.0551 34.4094C49.0551 36.0118 48.9685 36.1417 47.7992 36.1417C47.1063 36.1417 46.3268 36.4449 46.0236 36.7913C45.2441 37.7008 45.8504 39.5197 46.9331 39.6929C47.8425 39.8228 47.7992 39.9094 46.4134 41.7283C45.5906 42.7677 43.8583 44.2402 42.5591 44.9764L40.1772 46.3189H30.1732H20.2126L17.6575 45.0197C16.0118 44.1968 14.5394 42.9843 13.6299 41.7717C12.2008 39.9094 12.1575 39.8228 13.0669 39.6929C14.1496 39.5197 14.7559 37.7008 13.9764 36.7913C13.6732 36.4449 12.8937 36.1417 12.2008 36.1417C11.0315 36.1417 10.9449 36.0118 10.9449 34.4094C10.9449 32.7205 10.9882 32.6772 12.4606 32.6772C13.7165 32.6772 14.0197 32.5039 14.2362 31.5945C14.5394 30.2953 13.8032 29.2126 12.5906 29.2126C11.5945 29.2126 11.7677 28.3465 13.4567 25.185C15.8386 20.7244 20.689 17.1299 25.7992 16.0039C29.3071 15.2244 30.4764 15.2244 34.0276 16.0039Z" stroke="white"/>
<path d="M20.7755 23.8424C19.7794 24.4054 19.5629 24.7519 19.6928 25.8779L19.8227 27.2637L22.6377 27.307C25.7558 27.3936 26.5353 27.0038 26.5353 25.4881C26.5353 24.7952 26.1022 24.2755 25.2361 23.7991C23.677 22.9763 22.3345 22.9763 20.7755 23.8424Z" fill="white"/>
<path d="M20.7755 23.8424C19.7794 24.4054 19.5629 24.7519 19.6928 25.8779L19.8227 27.2637L22.6377 27.307C25.7558 27.3936 26.5353 27.0038 26.5353 25.4881C26.5353 24.7952 26.1022 24.2755 25.2361 23.7991C23.677 22.9763 22.3345 22.9763 20.7755 23.8424Z" stroke="white"/>
<path d="M34.6772 23.8427C33.378 24.5356 33.0316 26.1813 34.0276 26.9608C34.2875 27.1774 35.8032 27.3506 37.3623 27.3073L40.1772 27.264L40.3072 25.8782C40.4371 24.7089 40.2205 24.4057 39.1379 23.8427C37.5355 22.9766 36.193 22.9766 34.6772 23.8427Z" fill="white"/>
<path d="M34.6772 23.8427C33.378 24.5356 33.0316 26.1813 34.0276 26.9608C34.2875 27.1774 35.8032 27.3506 37.3623 27.3073L40.1772 27.264L40.3072 25.8782C40.4371 24.7089 40.2205 24.4057 39.1379 23.8427C37.5355 22.9766 36.193 22.9766 34.6772 23.8427Z" stroke="white"/>
<path d="M26.8388 29.4728C26.6655 29.646 26.5356 30.3822 26.5356 31.0751C26.5356 31.9413 26.7955 32.3743 27.4018 32.5476C28.4411 32.8074 28.571 34.4964 27.575 35.4491C26.4923 36.5751 25.7128 36.2287 24.76 34.1932C24.2836 33.1972 23.8506 32.894 22.8545 32.894C21.6419 32.894 21.5553 33.0239 21.4254 34.7562C21.2955 36.4019 21.4687 36.7917 22.8112 38.1342C24.3269 39.6499 24.4569 39.6932 26.8388 39.4334C28.2246 39.3035 29.6537 39.1735 30.0002 39.1735C30.3466 39.1735 31.7758 39.3035 33.1616 39.4334C35.5435 39.6932 35.6734 39.6499 37.1892 38.1342C38.5317 36.7917 38.7049 36.4019 38.575 34.7562C38.4451 33.0239 38.3584 32.894 37.1458 32.894C36.1498 32.894 35.7167 33.1972 35.2403 34.1932C34.2876 36.2287 33.5081 36.5751 32.4254 35.4491C31.4293 34.4531 31.5592 32.8074 32.6419 32.5476C33.3348 32.3743 33.5081 32.0279 33.3781 30.8586L33.2482 29.4294L30.2167 29.2995C28.5277 29.2562 27.012 29.2995 26.8388 29.4728Z" fill="white"/>
<path d="M26.8388 29.4728C26.6655 29.646 26.5356 30.3822 26.5356 31.0751C26.5356 31.9413 26.7955 32.3743 27.4018 32.5476C28.4411 32.8074 28.571 34.4964 27.575 35.4491C26.4923 36.5751 25.7128 36.2287 24.76 34.1932C24.2836 33.1972 23.8506 32.894 22.8545 32.894C21.6419 32.894 21.5553 33.0239 21.4254 34.7562C21.2955 36.4019 21.4687 36.7917 22.8112 38.1342C24.3269 39.6499 24.4569 39.6932 26.8388 39.4334C28.2246 39.3035 29.6537 39.1735 30.0002 39.1735C30.3466 39.1735 31.7758 39.3035 33.1616 39.4334C35.5435 39.6932 35.6734 39.6499 37.1892 38.1342C38.5317 36.7917 38.7049 36.4019 38.575 34.7562C38.4451 33.0239 38.3584 32.894 37.1458 32.894C36.1498 32.894 35.7167 33.1972 35.2403 34.1932C34.2876 36.2287 33.5081 36.5751 32.4254 35.4491C31.4293 34.4531 31.5592 32.8074 32.6419 32.5476C33.3348 32.3743 33.5081 32.0279 33.3781 30.8586L33.2482 29.4294L30.2167 29.2995C28.5277 29.2562 27.012 29.2995 26.8388 29.4728Z" stroke="white"/>
</g>
</svg>
