<svg width="24" height="24" viewBox="0 0 24 24" fill="none" xmlns="http://www.w3.org/2000/svg">
<path d="M5.11875 0.356237C3.15 1.08749 1.55625 2.53124 0.6 4.49999C0.13125 5.43749 0.09375 5.71874 0.09375 7.68749C0.09375 9.73124 0.13125 9.91874 0.69375 11.1C1.9125 13.6875 4.29375 15.3187 7.10625 15.5062L8.56875 15.6187L8.60625 16.5937C8.64375 18.7875 9.975 21.45 11.5688 22.5562C12.975 23.5312 14.0438 23.8875 15.8625 23.9625C17.9625 24.0562 19.1813 23.7375 20.775 22.6875C24.5625 20.1562 25.125 14.0625 21.8813 10.8187C20.3813 9.31874 18.3188 8.43749 16.2563 8.43749C15.5438 8.43749 15.3563 8.38124 15.4313 8.17499C15.6375 7.66874 15.1875 5.39999 14.6813 4.34999C14.025 2.96249 12.3938 1.33124 10.9688 0.656239C9.46875 -0.0750122 6.65625 -0.206263 5.11875 0.356237ZM10.2563 2.13749C10.8 2.39999 11.25 2.64374 11.25 2.68124C11.25 2.71874 10.875 3.31874 10.425 3.99374C9.9375 4.72499 9.50625 5.64374 9.375 6.24374C9.05625 7.63124 9.20625 9.65624 9.675 10.6312L10.0688 11.4187L9.4875 12.6187C8.94375 13.7437 8.85 13.8375 8.15625 13.95C7.33125 14.0812 5.4375 13.6687 4.725 13.2L4.3125 12.9187L4.7625 12.3187C6.84375 9.54374 6.80625 5.90624 4.6875 3.48749C4.36875 3.14999 4.125 2.81249 4.125 2.73749C4.125 2.56874 5.55 1.89374 6.31875 1.68749C7.3875 1.42499 9.1125 1.63124 10.2563 2.13749ZM4.125 5.68124C5.00625 7.46249 4.85625 9.20624 3.6375 11.0437C3.0375 11.9625 2.86875 11.8875 2.1375 10.4062C1.25625 8.56874 1.36875 6.26249 2.4375 4.51874C2.8125 3.91874 2.85 3.89999 3.20625 4.21874C3.39375 4.40624 3.80625 5.06249 4.125 5.68124ZM13.3125 5.30624C13.5563 5.84999 13.7813 6.84374 13.8375 7.53749L13.9313 8.79374L13.2 9.09374C12.8063 9.24374 12.225 9.58124 11.8875 9.84374L11.3063 10.2937L11.0813 9.80624C10.4438 8.39999 10.725 6.46874 11.8313 4.81874C12.525 3.76874 12.675 3.82499 13.3125 5.30624ZM18.6188 10.5L19.125 10.7437L18.675 11.2312C17.55 12.45 17.5312 13.425 18.5813 16.5375C19.4813 19.2187 19.5 20.1937 18.6938 21.2437C16.9313 23.55 13.3125 22.3125 13.3125 19.4062C13.3125 19.0312 13.65 17.7 14.0625 16.4812C15.0938 13.4062 15.0563 12.45 13.9125 11.1937C13.65 10.9125 13.4625 10.6875 13.5188 10.6875C13.5563 10.6875 13.9313 10.5562 14.3438 10.4062C15.2438 10.0687 17.8125 10.125 18.6188 10.5ZM12.6938 12.2812C13.4063 12.7875 13.3875 13.3875 12.5438 15.9187C11.9813 17.5687 11.7375 18.6187 11.7375 19.3687C11.7188 20.3062 11.6813 20.4 11.4563 20.1187C10.8938 19.3687 10.275 17.7187 10.1813 16.7062C10.05 15.375 10.4625 13.8562 11.25 12.7875C11.8688 11.925 12.075 11.85 12.6938 12.2812ZM21.5063 12.9937C22.2 14.0437 22.5938 15.6562 22.4438 16.9312C22.3313 17.8125 21.675 19.4437 21.1688 20.1187C20.9438 20.4 20.9062 20.3062 20.8875 19.3687C20.8875 18.6 20.6438 17.55 20.0813 15.9C19.2563 13.4437 19.2375 13.0125 19.8375 12.3187C20.3063 11.7937 20.85 12.0187 21.5063 12.9937Z" fill="black"/>
</svg>
