<svg width="24" height="24" viewBox="0 0 24 24" fill="none" xmlns="http://www.w3.org/2000/svg">
<path d="M1.2 3.26245C0.0375 3.7687 0 3.9562 0 8.5312C0 13.05 0.0375 13.2187 1.125 13.7812C1.93125 14.1937 22.0688 14.1937 22.875 13.7812C23.9625 13.2187 24 13.05 24 8.5312C24 3.93745 23.9625 3.7687 22.7625 3.26245C21.8625 2.88745 2.0625 2.88745 1.2 3.26245ZM22.1438 4.68745C22.4813 4.87495 22.5 5.1187 22.5 8.5312C22.5 12.0187 22.4813 12.1875 22.1063 12.375C21.9 12.4875 21.5438 12.5625 21.3375 12.525C20.9813 12.4687 20.8688 12.225 20.5875 10.8937C20.4 10.0125 20.1375 9.18745 20.025 9.0562C19.725 8.69995 4.275 8.69995 3.975 9.0562C3.8625 9.18745 3.6 10.0125 3.4125 10.8937C3.13125 12.225 3.01875 12.4687 2.6625 12.525C2.45625 12.5625 2.1 12.4875 1.89375 12.375C1.51875 12.1875 1.5 12.0187 1.5 8.5312C1.5 5.2687 1.5375 4.87495 1.8375 4.7062C2.2875 4.4437 21.6375 4.42495 22.1438 4.68745ZM19.0125 11.0062C19.0688 11.4 19.1813 11.9062 19.2375 12.1312L19.35 12.5625H12H4.65L4.7625 12.1312C4.81875 11.9062 4.93125 11.4 4.9875 11.0062L5.11875 10.3125H12H18.8813L19.0125 11.0062Z" fill="black"/>
<path d="M14.1938 6.67497C14.1188 6.74997 14.0625 7.04997 14.0625 7.33122C14.0625 7.74372 14.175 7.89372 14.5125 7.98747C15.7313 8.28747 16.8375 7.70622 16.3875 6.97497C16.1813 6.63747 14.475 6.41247 14.1938 6.67497Z" fill="black"/>
<path d="M17.3812 6.67496C17.1749 6.88121 17.2312 7.59371 17.4749 7.83746C17.7937 8.15621 19.2187 8.11871 19.4999 7.79996C19.6124 7.64996 19.6874 7.33121 19.6499 7.08746C19.5937 6.71246 19.4812 6.65621 18.5624 6.59996C17.9812 6.56246 17.4562 6.59996 17.3812 6.67496Z" fill="black"/>
<path d="M7.66871 15.6936C7.38746 16.3499 7.31246 16.7999 7.40621 17.3436C7.51871 18.1499 7.53746 18.7686 7.46246 19.9499C7.42496 20.4749 7.49996 20.7374 7.74371 20.8874C8.23121 21.2061 8.66246 20.8311 9.05621 19.6874C9.35621 18.7874 9.37496 18.5999 9.13121 17.9061C8.92496 17.2311 8.92496 17.0061 9.13121 16.3874C9.46871 15.4499 9.22496 14.8124 8.53121 14.8124C8.13746 14.8124 7.98746 14.9811 7.66871 15.6936Z" fill="black"/>
<path d="M11.6813 15.0374C11.2875 15.5249 11.025 16.7249 11.1375 17.4936C11.2688 18.3186 11.2688 18.5436 11.1938 19.8561C11.1563 20.7749 11.5688 21.2436 12.1125 20.9061C12.5813 20.6061 12.9938 19.1811 12.8625 18.2999C12.7313 17.4936 12.7313 17.3436 12.8063 15.8436C12.8438 14.9624 12.8063 14.9061 12.3563 14.8499C12.0938 14.8124 11.7938 14.9061 11.6813 15.0374Z" fill="black"/>
<path d="M15.3 15.225C14.775 16.0688 14.5875 17.1563 14.8687 17.9625C15.0187 18.375 15.075 18.825 15 18.9563C14.4 20.0438 14.7562 21.15 15.6 20.9438C16.2562 20.775 16.7625 19.4063 16.6125 18.3188C16.4437 17.2875 16.4437 16.725 16.5937 15.975C16.8187 14.9063 15.8625 14.3625 15.3 15.225Z" fill="black"/>
</svg>
