<svg width="16" height="16" viewBox="0 0 16 16" fill="none" xmlns="http://www.w3.org/2000/svg">
<rect width="16" height="16" fill="#1E1E1E"/>
<path d="M-1844 -708C-1844 -709.105 -1843.1 -710 -1842 -710H9282C9283.1 -710 9284 -709.105 9284 -708V3604C9284 3605.1 9283.1 3606 9282 3606H-1842C-1843.1 3606 -1844 3605.1 -1844 3604V-708Z" fill="#C9D2D5"/>
<g clip-path="url(#clip0_1_3)">
<rect x="-56" y="-169" width="390" height="1043" rx="16" fill="#EF8547"/>
<g filter="url(#filter0_d_1_3)">
<rect x="-32" y="-36" width="342" height="200" rx="8" fill="white" shape-rendering="crispEdges"/>
<rect x="-8" y="-14" width="294" height="44" rx="4" fill="#F3F3F3"/>
<path d="M6.90009 1.37502C3.76259 2.03752 2.03759 4.93752 2.82509 8.25002C3.05009 9.25002 3.91259 10.8875 4.76259 11.95C5.50009 12.8875 6.96259 14.25 7.57509 14.575C7.98759 14.8 8.01259 14.8 8.42509 14.575C9.03759 14.25 10.5001 12.8875 11.2376 11.95C11.5876 11.5125 12.1251 10.675 12.4376 10.1C14.3251 6.53752 13.2501 2.87502 9.92509 1.62502C9.12509 1.32502 7.68759 1.21252 6.90009 1.37502ZM9.66259 3.11252C12.0251 4.26252 12.5626 6.97502 10.9501 9.71252C10.4876 10.4875 9.38759 11.7875 8.53759 12.55L8.00009 13.025L7.40009 12.5125C4.31259 9.93752 3.23759 6.25002 4.95009 4.20002C5.42509 3.65002 6.17509 3.12502 6.78759 2.92502C7.55009 2.67502 8.95009 2.76252 9.66259 3.11252Z" fill="#9FA7BB"/>
<path d="M6.90024 4.24988C6.30024 4.62488 6.00024 5.18738 6.00024 5.99988C6.00024 7.24988 6.75024 7.99988 8.00024 7.99988C9.25024 7.99988 10.0002 7.24988 10.0002 5.99988C10.0002 5.18738 9.70024 4.62488 9.10024 4.24988C8.53774 3.91238 7.46274 3.91238 6.90024 4.24988ZM8.40024 5.58738C8.67524 5.83738 8.68774 6.09988 8.41274 6.39988C8.16274 6.67488 7.90024 6.68738 7.60024 6.41238C7.32524 6.16238 7.31274 5.89988 7.58774 5.59988C7.83774 5.32488 8.10024 5.31238 8.40024 5.58738Z" fill="#9FA7BB"/>
</g>
</g>
<path d="M-1842 -709H9282V-711H-1842V-709ZM9283 -708V3604H9285V-708H9283ZM9282 3605H-1842V3607H9282V3605ZM-1843 3604V-708H-1845V3604H-1843ZM-1842 3605C-1842.55 3605 -1843 3604.55 -1843 3604H-1845C-1845 3605.66 -1843.66 3607 -1842 3607V3605ZM9283 3604C9283 3604.55 9282.55 3605 9282 3605V3607C9283.66 3607 9285 3605.66 9285 3604H9283ZM9282 -709C9282.55 -709 9283 -708.552 9283 -708H9285C9285 -709.657 9283.66 -711 9282 -711V-709ZM-1842 -711C-1843.66 -711 -1845 -709.657 -1845 -708H-1843C-1843 -708.552 -1842.55 -709 -1842 -709V-711Z" fill="black" fill-opacity="0.1"/>
<defs>
<filter id="filter0_d_1_3" x="-48" y="-48" width="374" height="232" filterUnits="userSpaceOnUse" color-interpolation-filters="sRGB">
<feFlood flood-opacity="0" result="BackgroundImageFix"/>
<feColorMatrix in="SourceAlpha" type="matrix" values="0 0 0 0 0 0 0 0 0 0 0 0 0 0 0 0 0 0 127 0" result="hardAlpha"/>
<feOffset dy="4"/>
<feGaussianBlur stdDeviation="8"/>
<feComposite in2="hardAlpha" operator="out"/>
<feColorMatrix type="matrix" values="0 0 0 0 0.358333 0 0 0 0 0.132509 0 0 0 0 0 0 0 0 0.1 0"/>
<feBlend mode="normal" in2="BackgroundImageFix" result="effect1_dropShadow_1_3"/>
<feBlend mode="normal" in="SourceGraphic" in2="effect1_dropShadow_1_3" result="shape"/>
</filter>
<clipPath id="clip0_1_3">
<rect x="-56" y="-169" width="390" height="1043" rx="16" fill="white"/>
</clipPath>
</defs>
</svg>
