<svg width="24" height="24" viewBox="0 0 24 24" fill="none" xmlns="http://www.w3.org/2000/svg">
<path d="M10.35 2.0626C5.64376 3.05635 3.05626 7.40635 4.23751 12.3751C4.57501 13.8751 5.86876 16.3313 7.14376 17.9251C8.25001 19.3313 10.4438 21.3751 11.3625 21.8626C11.9813 22.2001 12.0188 22.2001 12.6375 21.8626C13.5563 21.3751 15.75 19.3313 16.8563 17.9251C17.3813 17.2688 18.1875 16.0126 18.6563 15.1501C21.4875 9.80635 19.875 4.3126 14.8875 2.4376C13.6875 1.9876 11.5313 1.81885 10.35 2.0626ZM14.4938 4.66885C18.0375 6.39385 18.8438 10.4626 16.425 14.5688C15.7313 15.7313 14.0813 17.6813 12.8063 18.8251L12 19.5376L11.1 18.7688C6.46876 14.9063 4.85626 9.3751 7.42501 6.3001C8.13751 5.4751 9.26251 4.6876 10.1813 4.3876C11.325 4.0126 13.425 4.14385 14.4938 4.66885Z" fill="#9FA7BB"/>
<path d="M10.35 6.3751C9.45 6.9376 9 7.78135 9 9.0001C9 10.8751 10.125 12.0001 12 12.0001C13.875 12.0001 15 10.8751 15 9.0001C15 7.78135 14.55 6.9376 13.65 6.3751C12.8063 5.86885 11.1938 5.86885 10.35 6.3751ZM12.6 8.38135C13.0125 8.75635 13.0313 9.1501 12.6188 9.6001C12.2438 10.0126 11.85 10.0313 11.4 9.61885C10.9875 9.24385 10.9688 8.8501 11.3813 8.4001C11.7563 7.9876 12.15 7.96885 12.6 8.38135Z" fill="#9FA7BB"/>
</svg>
