<svg width="24" height="24" viewBox="0 0 24 24" fill="none" xmlns="http://www.w3.org/2000/svg">
<path d="M9.37047 2.4765C7.58083 3.37953 6.6778 4.74229 6.56287 6.74537C6.48077 8.40367 6.89124 9.52014 8.02414 10.6695C10.4869 13.1159 14.5916 12.4755 16.2499 9.35596C16.5619 8.74846 16.6276 8.38725 16.6276 7.07375C16.6276 5.28411 16.2992 4.41391 15.2484 3.39595C14.2304 2.42724 13.3602 2.06603 11.784 2.01677C10.4869 1.96752 10.3063 2.00035 9.37047 2.4765Z" fill="black"/>
<path d="M6.74348 12.1636C5.38072 12.4427 4.55978 13.1159 3.85378 14.5443C3.24628 15.7922 3.01642 16.9907 3 18.8953C3 20.4879 3.03284 20.685 3.44331 21.391C3.7881 21.9492 4.11648 22.2612 4.75681 22.5731L5.61058 23H11.7676C17.3828 23 18.0067 22.9672 18.5978 22.688C20.2233 21.9492 20.8308 20.4387 20.5352 17.8609C20.1248 14.3802 18.9262 12.5905 16.7261 12.1636C15.938 12.0159 15.7574 12.0323 15.2484 12.3278C13.3931 13.3786 12.8677 13.5592 11.7019 13.5592C10.6347 13.5592 10.4377 13.4935 9.1242 12.7711C8.35251 12.3442 7.64651 11.9994 7.56441 12.0159C7.49874 12.0323 7.12111 12.0979 6.74348 12.1636Z" fill="black"/>
</svg>
