<svg width="24" height="24" viewBox="0 0 24 24" fill="none" xmlns="http://www.w3.org/2000/svg">
<path d="M10 2.28106C9.5 2.56231 9.1875 3.07794 9.0625 3.81231C8.95312 4.45294 8.90625 4.48418 7.17188 5.48418C5.5 6.43731 5.375 6.48418 4.90625 6.32793C3.26562 5.73418 2 6.57793 2 8.26543C2 8.92168 2.0625 9.06231 2.59375 9.57793C3 9.95293 3.23438 10.3279 3.29688 10.7029C3.54688 12.2811 5.14062 13.0311 6.39062 12.1873C7 11.7811 7.3125 11.2498 7.3125 10.5936C7.3125 10.1561 7.45312 10.0467 9.15625 9.07793L11 8.03106L11.6719 8.26543C12.0625 8.39043 12.5469 8.45293 12.8125 8.40606C13.8438 8.17168 14.6406 6.96856 14.4219 5.98418C14.2969 5.42168 13.625 4.57793 13.3125 4.57793C13.1719 4.57793 13.0938 4.40606 13.0938 4.09356C13.0938 3.40606 12.7031 2.65606 12.1719 2.34356C11.6406 2.03106 10.5156 1.99981 10 2.28106ZM11.5938 3.67169C11.7031 3.85919 11.7031 4.09356 11.5625 4.48419C11.2969 5.21856 11.5156 5.67168 12.1562 5.67168C12.9062 5.67168 13.375 6.42168 12.9062 6.89043C12.625 7.17168 12.1875 7.12481 11.8906 6.76543C11.7344 6.59356 11.4688 6.45293 11.2812 6.45293C11 6.45293 6.67188 8.82793 6.07812 9.31231C5.95312 9.42168 5.90625 9.68731 5.95312 10.0467C6.04688 10.7654 5.84375 11.1404 5.375 11.1404C4.76562 11.1404 4.57812 10.7654 4.8125 10.0467C5 9.48418 4.98438 9.39043 4.73438 9.10918C4.57812 8.93731 4.25 8.79668 4 8.79668C3.375 8.79668 3.07812 8.15606 3.48438 7.70293C3.84375 7.29668 3.96875 7.31231 4.53125 7.78106C4.78125 7.99981 5.04688 8.17168 5.10938 8.17168C5.375 8.17168 10.3281 5.23418 10.4531 4.99981C10.5312 4.85918 10.5312 4.59356 10.4531 4.37481C10.1406 3.57794 11.1406 2.96856 11.5938 3.67169Z" fill="black"/>
<path d="M17.7969 6.37516C17.3594 6.85954 16.75 7.78141 16.4219 8.43766C15.8438 9.59391 15.8281 9.70329 15.8281 11.2814C15.8281 12.8127 15.8594 13.0158 16.3125 13.9689L16.7969 14.9845L16.4688 15.4533C16.2188 15.797 16.125 16.1877 16.0781 17.0939C16.0312 18.2033 16.0625 18.3127 16.375 18.4845C16.7969 18.7189 17.8125 18.5783 18.4375 18.2033C18.8438 17.9689 18.9062 17.9689 19.3125 18.2033C19.9375 18.5783 20.9531 18.7189 21.375 18.4845C21.6875 18.3127 21.7188 18.2033 21.6719 17.0939C21.625 16.1877 21.5312 15.797 21.2812 15.4533L20.9531 14.9845L21.4375 13.9689C21.8906 13.0158 21.9219 12.8127 21.9219 11.297C21.9219 9.70329 21.9062 9.59391 21.3281 8.43766C20.6875 7.14079 19.3281 5.51579 18.875 5.51579C18.7188 5.51579 18.2344 5.90641 17.7969 6.37516ZM19.6094 8.20329C21.0781 10.4064 21.0938 12.1095 19.6875 14.3283C19.4062 14.7658 19.1875 15.172 19.1875 15.2345C19.1875 15.3127 19.4219 15.5939 19.7188 15.8752C20.0156 16.1564 20.3125 16.5783 20.375 16.8283C20.4688 17.2345 20.4531 17.2502 20.1406 17.0939C19.9688 16.9845 19.7031 16.7345 19.5625 16.5314C19.2188 16.0002 18.5312 16.0002 18.1875 16.5314C18.0469 16.7345 17.7812 16.9845 17.6094 17.0939C17.2969 17.2502 17.2812 17.2345 17.375 16.8283C17.4375 16.5783 17.7344 16.1564 18.0312 15.8752C18.3281 15.5939 18.5625 15.3127 18.5625 15.2345C18.5625 15.172 18.3438 14.7658 18.0625 14.3283C17.0469 12.7189 16.7812 11.3439 17.25 9.93766C17.4688 9.25016 18.6875 7.23454 18.875 7.23454C18.9219 7.23454 19.25 7.67204 19.6094 8.20329Z" fill="black"/>
<path d="M8.48428 13.2188C7.93741 13.7969 7.78116 13.875 7.46866 13.7656C7.01553 13.5938 6.23428 13.75 5.62491 14.1094C5.03116 14.4844 4.57803 15.5938 4.71866 16.375C4.82803 16.9375 5.74991 18.0156 6.12491 18.0156C6.28116 18.0156 6.32803 18.3125 6.31241 19.1406C6.29678 20.5 6.56241 21.0938 7.42178 21.6406C7.96866 21.9688 8.18741 22 10.0468 22C11.9062 22 12.1249 21.9688 12.6718 21.6406C13.5312 21.0938 13.7968 20.5 13.7812 19.1406C13.7655 18.3125 13.8124 18.0156 13.9687 18.0156C14.3437 18.0156 15.2655 16.9375 15.3749 16.375C15.5155 15.5938 15.0624 14.4844 14.4687 14.1094C13.8593 13.75 13.078 13.5938 12.6249 13.7656C12.3124 13.875 12.1562 13.7969 11.6093 13.2188C10.9843 12.5781 10.9218 12.5469 10.0468 12.5469C9.17178 12.5469 9.10928 12.5781 8.48428 13.2188ZM10.5624 14.0469C10.7499 14.1719 10.9062 14.4531 10.9062 14.6719C10.9062 15.0938 10.4062 15.6719 10.0468 15.6719C9.68741 15.6719 9.18741 15.0938 9.18741 14.6719C9.18741 14.2969 9.68741 13.7969 10.0468 13.7969C10.1405 13.7969 10.3749 13.9062 10.5624 14.0469ZM7.49991 15.3125C8.03116 15.7969 7.67178 16.7656 6.95303 16.7656C6.53116 16.7656 6.06241 16.3281 6.06241 15.9375C6.06241 15.1875 6.93741 14.7969 7.49991 15.3125ZM13.7499 15.3125C14.2812 15.7969 13.9218 16.7656 13.203 16.7656C12.7812 16.7656 12.3124 16.3281 12.3124 15.9375C12.3124 15.1875 13.1874 14.7969 13.7499 15.3125ZM11.4843 17.4844C12.5624 18.3125 12.7968 19.7812 11.953 20.4219C11.2968 20.9062 8.79678 20.9062 8.14053 20.4219C7.60928 20.0312 7.46866 19.0781 7.84366 18.3438C8.10928 17.8438 8.92178 17.1562 9.42178 17.0312C9.99991 16.875 10.9687 17.0938 11.4843 17.4844Z" fill="black"/>
</svg>
