<svg width="16" height="17" viewBox="0 0 16 17" fill="none" xmlns="http://www.w3.org/2000/svg">
<rect width="16" height="17" fill="#1E1E1E"/>
<path d="M-3448 -681C-3448 -682.105 -3447.1 -683 -3446 -683H5346C5347.1 -683 5348 -682.105 5348 -681V3015C5348 3016.1 5347.1 3017 5346 3017H-3446C-3447.1 3017 -3448 3016.1 -3448 3015V-681Z" fill="#C9D2D5"/>
<g clip-path="url(#clip0_1_3)">
<rect x="-34" y="-142" width="390" height="844" rx="16" fill="white"/>
<rect width="390" height="951" transform="translate(-34 -24)" fill="#F4F4F4"/>
<path d="M8.87506 3.51268C8.46256 3.67518 8.02506 4.10018 7.80006 4.52518L7.61256 4.87518H5.33756C2.76256 4.87518 2.46256 4.95018 2.40006 5.58768C2.32506 6.30018 2.60006 6.37518 5.26256 6.37518H7.58756L7.88756 6.83768C8.27506 7.43768 8.73756 7.76268 9.32506 7.86268C10.3626 8.05018 11.1626 7.70018 11.7376 6.83768C12.0376 6.38768 12.0626 6.37518 12.8126 6.37518C13.7001 6.37518 14.0376 6.18768 14.0376 5.68768C14.0376 5.13768 13.6126 4.87518 12.7376 4.87518C12.0501 4.87518 12.0001 4.85018 11.8126 4.51268C11.4751 3.83768 10.8126 3.45018 9.95006 3.41268C9.53756 3.38768 9.05006 3.43768 8.87506 3.51268ZM10.1876 4.82518C10.5126 4.96268 10.7626 5.56268 10.6251 5.92518C10.3876 6.55018 9.66256 6.67518 9.17506 6.17518C8.92506 5.93768 8.87506 5.78768 8.92506 5.52518C9.07506 4.92518 9.63756 4.61268 10.1876 4.82518Z" fill="#222222"/>
<path d="M5.03755 8.88767C4.75005 9.02517 4.38755 9.33767 4.23755 9.57516C4.01255 9.95016 3.92505 10.0002 3.42505 10.0002C2.56255 10.0002 2.11255 10.6002 2.53755 11.1752C2.65005 11.3252 2.92505 11.4252 3.35005 11.4752C3.82505 11.5127 4.01255 11.5877 4.06255 11.7502C4.10005 11.8752 4.35005 12.1752 4.62505 12.4127C5.25005 12.9877 6.01255 13.1252 6.82505 12.8127C7.33755 12.6127 8.00005 11.9627 8.00005 11.6502C8.00005 11.5502 8.88755 11.5002 10.8875 11.4752C13.575 11.4377 13.7875 11.4252 13.95 11.2002C14.1875 10.8627 14.175 10.5502 13.875 10.2502C13.6375 10.0127 13.45 10.0002 10.85 10.0002L8.06255 9.98766L7.81255 9.58766C7.51255 9.10017 6.61255 8.62517 6.00005 8.62517C5.76255 8.62517 5.32505 8.73767 5.03755 8.88767ZM6.50005 10.2502C6.91255 10.6627 6.82505 11.2002 6.27505 11.4877C5.90005 11.6877 5.41255 11.4002 5.30005 10.9127C5.22505 10.6502 5.27505 10.5252 5.55005 10.2877C5.96255 9.93766 6.17505 9.92516 6.50005 10.2502Z" fill="#222222"/>
<rect x="-9.5" y="-7.5" width="65" height="32" rx="15.5" stroke="#DADADA"/>
</g>
<path d="M-3446 -682H5346V-684H-3446V-682ZM5347 -681V3015H5349V-681H5347ZM5346 3016H-3446V3018H5346V3016ZM-3447 3015V-681H-3449V3015H-3447ZM-3446 3016C-3446.55 3016 -3447 3015.55 -3447 3015H-3449C-3449 3016.66 -3447.66 3018 -3446 3018V3016ZM5347 3015C5347 3015.55 5346.55 3016 5346 3016V3018C5347.66 3018 5349 3016.66 5349 3015H5347ZM5346 -682C5346.55 -682 5347 -681.552 5347 -681H5349C5349 -682.657 5347.66 -684 5346 -684V-682ZM-3446 -684C-3447.66 -684 -3449 -682.657 -3449 -681H-3447C-3447 -681.552 -3446.55 -682 -3446 -682V-684Z" fill="black" fill-opacity="0.1"/>
<defs>
<clipPath id="clip0_1_3">
<rect x="-34" y="-142" width="390" height="844" rx="16" fill="white"/>
</clipPath>
</defs>
</svg>
