<svg width="24" height="24" viewBox="0 0 24 24" fill="none" xmlns="http://www.w3.org/2000/svg">
<path d="M11.1938 1.275C11.0063 1.4625 10.875 1.9125 10.875 2.26875C10.875 2.90625 10.875 2.925 9.5625 3.24375C6.58125 4.03125 4.0125 6.58125 3.24375 9.58125L2.925 10.875H2.23125C1.44375 10.875 0.9375 11.325 0.9375 12.0375C0.9375 12.675 1.48125 13.125 2.26875 13.125C2.90625 13.125 2.925 13.125 3.24375 14.4187C4.0125 17.4187 6.58125 19.9687 9.5625 20.7562L10.875 21.075V21.7687C10.875 22.5562 11.325 23.0625 12.0375 23.0625C12.675 23.0625 13.125 22.5187 13.125 21.7312C13.125 21.0937 13.125 21.075 14.4375 20.7562C17.4188 19.9687 19.9875 17.4187 20.7563 14.4187L21.075 13.125H21.7688C22.5563 13.125 23.0625 12.675 23.0625 11.9625C23.0625 11.325 22.5188 10.875 21.7313 10.875C21.0938 10.875 21.075 10.875 20.7563 9.5625C19.9688 6.58125 17.4188 4.0125 14.4188 3.24375L13.125 2.925V2.23125C13.125 1.0875 11.9062 0.487499 11.1938 1.275ZM14.775 5.71875C15.3563 5.98125 16.2563 6.6 16.7438 7.0875C20.2688 10.5187 19.2375 16.2187 14.7188 18.3187C13.7625 18.75 13.35 18.8438 12 18.8438C10.65 18.8438 10.2375 18.75 9.28125 18.3187C5.7375 16.6687 4.18125 12.675 5.7375 9.1875C6.5625 7.36875 8.49375 5.75625 10.4438 5.25C11.6063 4.96875 13.575 5.175 14.775 5.71875Z" fill="url(#paint0_linear_3050_9336)"/>
<path d="M10.8001 8.06269C8.25006 8.83145 7.10631 11.9627 8.56881 14.2127C10.1813 16.7064 13.8188 16.7064 15.4313 14.2127C17.4751 11.0439 14.4188 6.99395 10.8001 8.06269ZM12.9188 10.3877C14.1751 11.0439 14.1376 13.0689 12.8438 13.6502C11.8876 14.0814 10.8376 13.7814 10.3876 12.9189C9.50631 11.2127 11.2126 9.50644 12.9188 10.3877Z" fill="url(#paint1_linear_3050_9336)"/>
<defs>
<linearGradient id="paint0_linear_3050_9336" x1="12" y1="23.0625" x2="12" y2="0.917458" gradientUnits="userSpaceOnUse">
<stop stop-color="#E38046"/>
<stop offset="1" stop-color="#F3803D"/>
</linearGradient>
<linearGradient id="paint1_linear_3050_9336" x1="12.0059" y1="16.083" x2="12.0059" y2="7.88779" gradientUnits="userSpaceOnUse">
<stop stop-color="#E38046"/>
<stop offset="1" stop-color="#F3803D"/>
</linearGradient>
</defs>
</svg>
