<svg width="16" height="16" viewBox="0 0 16 16" fill="none" xmlns="http://www.w3.org/2000/svg">
<path d="M6.9 1.37507C3.7625 2.03757 2.0375 4.93757 2.825 8.25007C3.05 9.25007 3.9125 10.8876 4.7625 11.9501C5.5 12.8876 6.9625 14.2501 7.575 14.5751C7.9875 14.8001 8.0125 14.8001 8.425 14.5751C9.0375 14.2501 10.5 12.8876 11.2375 11.9501C11.5875 11.5126 12.125 10.6751 12.4375 10.1001C14.325 6.53757 13.25 2.87507 9.925 1.62507C9.125 1.32507 7.6875 1.21257 6.9 1.37507ZM9.6625 3.11257C12.025 4.26257 12.5625 6.97507 10.95 9.71257C10.4875 10.4876 9.3875 11.7876 8.5375 12.5501L8 13.0251L7.4 12.5126C4.3125 9.93757 3.2375 6.25007 4.95 4.20007C5.425 3.65007 6.175 3.12507 6.7875 2.92507C7.55 2.67507 8.95 2.76257 9.6625 3.11257Z" fill="white"/>
<path d="M6.9 4.25007C6.3 4.62507 6 5.18757 6 6.00007C6 7.25007 6.75 8.00007 8 8.00007C9.25 8.00007 10 7.25007 10 6.00007C10 5.18757 9.7 4.62507 9.1 4.25007C8.5375 3.91257 7.4625 3.91257 6.9 4.25007ZM8.4 5.58757C8.675 5.83757 8.6875 6.10007 8.4125 6.40007C8.1625 6.67507 7.9 6.68757 7.6 6.41257C7.325 6.16257 7.3125 5.90007 7.5875 5.60007C7.8375 5.32507 8.1 5.31257 8.4 5.58757Z" fill="white"/>
</svg>
