<svg width="15" height="20" viewBox="0 0 15 20" fill="none" xmlns="http://www.w3.org/2000/svg">
<path d="M4.76562 0.363678C1.82812 1.45743 0 4.03555 0 7.11368C0 9.14493 0.53125 10.5981 1.78125 11.9887C2.6875 12.9887 3.6875 13.6449 5.04688 14.0824L6.09375 14.4262V15.0199V15.6293H5.26562C4.29688 15.6293 3.95312 15.8324 3.8125 16.4887C3.67188 17.2699 4.125 17.6918 5.20312 17.7856L6.09375 17.8481V18.6762C6.09375 19.6449 6.39062 20.0043 7.21875 20.0043C7.98438 20.0043 8.28125 19.6137 8.28125 18.6449V17.8481L9.17188 17.7856C10.25 17.6918 10.7031 17.2699 10.5625 16.4887C10.4219 15.8324 10.0781 15.6293 9.10938 15.6293H8.28125V15.0199V14.4262L9.34375 14.0824C10.6875 13.6449 11.6875 12.9887 12.5938 11.9887C13.8438 10.5981 14.375 9.14493 14.375 7.11368C14.375 3.98868 12.4688 1.34805 9.45312 0.316803C8.15625 -0.120697 6.03125 -0.105072 4.76562 0.363678ZM9.29688 2.66055C10.2812 3.14493 11.2344 4.09805 11.7344 5.08243C12.2812 6.20743 12.2812 8.1918 11.7188 9.28555C11.2188 10.2699 10.2656 11.2231 9.28125 11.7231C8.64062 12.0512 8.29688 12.1137 7.1875 12.1137C5.625 12.1137 4.75 11.7543 3.6875 10.6918C1.07812 8.08243 2.0625 3.7543 5.59375 2.42618C6.5 2.0668 8.34375 2.1918 9.29688 2.66055Z" fill="black"/>
</svg>
