<svg width="25" height="25" viewBox="0 0 25 25" fill="none" xmlns="http://www.w3.org/2000/svg">
<path d="M2.9625 1.11906C2.8875 1.17531 2.83125 1.45656 2.83125 1.73781C2.83125 2.20656 2.75625 2.26281 1.95 2.35656C1.25625 2.43156 0.9375 2.58156 0.525 3.05031L0 3.65031L0.05625 6.48156C0.13125 9.80031 0.35625 10.5128 1.93125 12.0503C2.56875 12.6878 2.83125 13.0816 2.83125 13.4566C2.83125 13.7941 3.05625 14.1878 3.4875 14.6191C3.95625 15.0878 4.14375 15.4441 4.14375 15.8753C4.14375 16.5878 4.725 17.6003 5.25 17.7691C5.5875 17.8628 5.64375 18.0503 5.64375 18.9503C5.6625 20.7316 6.6375 22.2691 8.34375 23.1691C9 23.5253 9.4875 23.5816 11.8312 23.6378C14.1187 23.6941 14.6062 23.7691 14.925 24.0503C16.5375 25.4941 19.8562 25.2503 20.85 23.6003C21.9562 21.8003 20.3437 18.3316 18.2437 17.9378C16.65 17.6378 14.9062 19.0253 14.3062 21.0878L13.9875 22.1753H12.3937C9.54375 22.1566 8.19375 21.5753 7.5 20.0378C6.95625 18.8566 7.03125 18.2003 7.8 17.4316C8.3625 16.8691 8.45625 16.6441 8.45625 15.9316C8.45625 15.2378 8.53125 15.0503 8.85 14.9566C9.31875 14.8066 9.95625 13.8128 9.95625 13.2128C9.95625 12.9691 10.2375 12.5566 10.6312 12.2003C12.2062 10.8128 12.7687 9.20031 12.7687 6.10656C12.7687 3.70656 12.5625 3.05031 11.6437 2.58156C11.3437 2.43156 10.8375 2.30031 10.5187 2.30031C10.0687 2.30031 9.95625 2.22531 9.95625 1.86906C9.95625 1.21281 9.675 0.950306 9.09375 1.02531L8.55 1.08156L8.49375 3.08781L8.4375 5.09406L8.925 5.22531C9.54375 5.37531 9.95625 5.01906 9.95625 4.34406C9.95625 3.68781 10.35 3.63156 10.9125 4.19406C11.2875 4.56906 11.3062 4.73781 11.2125 6.53781C11.0812 8.69406 10.7625 9.68781 9.80625 10.7003C9.31875 11.2253 9.16875 11.2816 8.85 11.1316C8.38125 10.8691 4.2375 10.8691 3.76875 11.1128C3.4875 11.2628 3.31875 11.1691 2.85 10.6441C1.78125 9.42531 1.63125 8.95656 1.55625 6.53781C1.48125 4.55031 1.51875 4.26906 1.81875 4.04406C2.45625 3.57531 2.83125 3.72531 2.83125 4.45656C2.83125 5.00031 2.90625 5.13156 3.3 5.22531C4.14375 5.43156 4.33125 5.05656 4.33125 3.23781C4.33125 2.31906 4.275 1.45656 4.21875 1.28781C4.10625 0.987806 3.20625 0.875307 2.9625 1.11906ZM8.23125 12.9316C8.2875 13.2503 8.15625 13.4191 7.7625 13.5878C7.48125 13.7191 7.2 13.8503 7.14375 13.8878C7.0875 13.9253 7.0125 14.4691 6.95625 15.1066C6.88125 16.0628 6.80625 16.2691 6.50625 16.3253C5.98125 16.4378 5.64375 15.8566 5.64375 14.8253C5.64375 13.9816 5.60625 13.9066 4.9875 13.6628C4.63125 13.5128 4.33125 13.2691 4.33125 13.1378C4.33125 12.5566 4.78125 12.4066 6.4875 12.4628C8.08125 12.5191 8.175 12.5378 8.23125 12.9316ZM18.75 20.2066C19.4812 21.0503 19.8562 22.2316 19.5187 22.6441C18.7875 23.5253 17.25 23.6941 16.2375 23.0378C15.6187 22.6253 15.6187 21.8003 16.2375 20.7503C17.0625 19.3628 17.85 19.1941 18.75 20.2066Z" fill="black"/>
<path d="M16.7813 12.4253C16.0313 12.7253 15.5813 13.5315 15.5813 14.5253C15.5813 15.294 15.675 15.5378 16.125 16.0065C16.5938 16.4565 16.8188 16.5503 17.625 16.5503C18.8625 16.5503 19.6875 15.894 19.8375 14.7503C20.0625 13.0065 18.4313 11.7503 16.7813 12.4253ZM18.1688 14.4503C18.2438 14.9753 17.7188 15.2003 17.325 14.8065C16.9313 14.4128 17.1563 13.8878 17.6813 13.9628C17.9625 14.0003 18.1313 14.169 18.1688 14.4503Z" fill="black"/>
<path d="M12.2811 15.3878C11.0999 16.1378 10.9499 17.9003 12.0186 18.8378C12.4874 19.269 12.7686 19.3628 13.5374 19.3628C14.3436 19.3628 14.5686 19.269 15.0374 18.819C15.4874 18.3503 15.5811 18.1253 15.5811 17.319C15.5811 16.5503 15.4874 16.269 15.0561 15.7815C14.3811 15.0315 13.1436 14.844 12.2811 15.3878ZM14.0061 17.019C14.1374 17.3565 13.7624 17.8628 13.3874 17.8628C13.0686 17.8628 12.8811 17.4128 13.0311 17.019C13.1624 16.644 13.8749 16.6628 14.0061 17.019Z" fill="black"/>
<path d="M20.7186 15.3878C19.5374 16.1378 19.3874 17.9003 20.4561 18.8378C20.9249 19.269 21.2061 19.3628 21.9749 19.3628C23.3249 19.3628 24.0186 18.669 24.0186 17.319C24.0186 16.5503 23.9249 16.269 23.4936 15.7815C22.8186 15.0315 21.5811 14.844 20.7186 15.3878ZM22.4436 17.019C22.5749 17.3565 22.1999 17.8628 21.8249 17.8628C21.5061 17.8628 21.3186 17.4128 21.4686 17.019C21.5999 16.644 22.3124 16.6628 22.4436 17.019Z" fill="black"/>
</svg>
