<svg width="24" height="24" viewBox="0 0 24 24" fill="none" xmlns="http://www.w3.org/2000/svg">
<mask id="path-1-outside-1_638_15119" maskUnits="userSpaceOnUse" x="0" y="2" width="24" height="19" fill="black">
<rect fill="white" y="2" width="24" height="19"/>
<path d="M3.8063 2.79842C3.73701 2.85039 3.68504 4.49606 3.68504 6.43622C3.68504 9.20787 3.63307 10.1606 3.40787 10.8189L3.13071 11.6677L2.05669 11.7197L1 11.7717V12.378V12.9843L2.00472 13.0362L2.99213 13.0882V13.7638V14.4394L2.00472 14.4913L1 14.5433V15.1496V15.7559L2.14331 15.8079L3.26929 15.8598L3.51181 16.5008C3.87559 17.5055 5.65984 19.1858 6.85512 19.6189C7.77323 19.9654 8.17165 20 12 20C15.8283 20 16.2268 19.9654 17.1449 19.6189C18.3402 19.1858 20.1244 17.5055 20.4882 16.5008L20.7307 15.8598L21.8567 15.8079L23 15.7559V15.1496V14.5433L22.0126 14.4913L21.0079 14.4394V13.7638V13.0882L22.0126 13.0362L23 12.9843V12.378V11.7717L21.926 11.7197C20.852 11.6677 20.852 11.6677 20.6268 11.0268C20.5055 10.6457 20.3843 8.89606 20.315 6.5748L20.2283 2.76378L19.3449 2.71181C18.115 2.64252 16.7811 3.17953 15.6031 4.23622C14.7024 5.05039 14.6157 5.08504 14.0614 4.92913C13.2992 4.70394 10.7008 4.70394 9.93858 4.92913C9.38425 5.08504 9.29764 5.05039 8.39685 4.23622C7.85984 3.75118 7.01102 3.21417 6.50866 3.02362C5.60787 2.69449 4.0315 2.5559 3.8063 2.79842ZM6.24882 4.56535C6.59528 4.73858 7.08032 5.08504 7.28819 5.32756L7.70394 5.76063L7.34016 5.9685C7.13228 6.07244 6.54331 6.50551 6.02362 6.93858L5.07087 7.70079V5.9685C5.07087 4.02835 5.10551 3.97638 6.24882 4.56535ZM18.9291 5.9685V7.70079L17.9764 6.93858C17.4567 6.50551 16.8677 6.07244 16.6598 5.9685L16.2961 5.76063L16.7118 5.32756C17.1795 4.8252 18.1843 4.25354 18.6346 4.23622C18.8945 4.23622 18.9291 4.42677 18.9291 5.9685ZM13.611 6.40157C14.252 6.54016 15.1701 6.85197 15.6378 7.11181C17.0929 7.90866 18.7213 9.8315 19.1717 11.2866C19.2756 11.6157 19.2236 11.685 18.9638 11.685C18.4787 11.685 18.1843 12.1181 18.3055 12.6378C18.3921 13.0016 18.5134 13.0709 19.0157 13.0709C19.6047 13.0709 19.622 13.0882 19.622 13.7638C19.622 14.4047 19.5874 14.4567 19.1197 14.4567C18.8425 14.4567 18.5307 14.578 18.4094 14.7165C18.0976 15.0803 18.3402 15.8079 18.7732 15.8772C19.137 15.9291 19.1197 15.9638 18.5654 16.6913C18.2362 17.1071 17.5433 17.6961 17.0236 17.9906L16.0709 18.5276H12.0693H8.08504L7.06299 18.0079C6.40472 17.6787 5.81575 17.1937 5.45197 16.7087C4.88031 15.9638 4.86299 15.9291 5.22677 15.8772C5.65984 15.8079 5.90236 15.0803 5.59055 14.7165C5.46929 14.578 5.15748 14.4567 4.88031 14.4567C4.4126 14.4567 4.37795 14.4047 4.37795 13.7638C4.37795 13.0882 4.39528 13.0709 4.98425 13.0709C5.48661 13.0709 5.60787 13.0016 5.69449 12.6378C5.81575 12.1181 5.52126 11.685 5.03622 11.685C4.6378 11.685 4.70709 11.3386 5.38268 10.074C6.33543 8.28976 8.27559 6.85197 10.3197 6.40157C11.7228 6.08976 12.1906 6.08976 13.611 6.40157Z"/>
</mask>
<path d="M3.8063 2.79842C3.73701 2.85039 3.68504 4.49606 3.68504 6.43622C3.68504 9.20787 3.63307 10.1606 3.40787 10.8189L3.13071 11.6677L2.05669 11.7197L1 11.7717V12.378V12.9843L2.00472 13.0362L2.99213 13.0882V13.7638V14.4394L2.00472 14.4913L1 14.5433V15.1496V15.7559L2.14331 15.8079L3.26929 15.8598L3.51181 16.5008C3.87559 17.5055 5.65984 19.1858 6.85512 19.6189C7.77323 19.9654 8.17165 20 12 20C15.8283 20 16.2268 19.9654 17.1449 19.6189C18.3402 19.1858 20.1244 17.5055 20.4882 16.5008L20.7307 15.8598L21.8567 15.8079L23 15.7559V15.1496V14.5433L22.0126 14.4913L21.0079 14.4394V13.7638V13.0882L22.0126 13.0362L23 12.9843V12.378V11.7717L21.926 11.7197C20.852 11.6677 20.852 11.6677 20.6268 11.0268C20.5055 10.6457 20.3843 8.89606 20.315 6.5748L20.2283 2.76378L19.3449 2.71181C18.115 2.64252 16.7811 3.17953 15.6031 4.23622C14.7024 5.05039 14.6157 5.08504 14.0614 4.92913C13.2992 4.70394 10.7008 4.70394 9.93858 4.92913C9.38425 5.08504 9.29764 5.05039 8.39685 4.23622C7.85984 3.75118 7.01102 3.21417 6.50866 3.02362C5.60787 2.69449 4.0315 2.5559 3.8063 2.79842ZM6.24882 4.56535C6.59528 4.73858 7.08032 5.08504 7.28819 5.32756L7.70394 5.76063L7.34016 5.9685C7.13228 6.07244 6.54331 6.50551 6.02362 6.93858L5.07087 7.70079V5.9685C5.07087 4.02835 5.10551 3.97638 6.24882 4.56535ZM18.9291 5.9685V7.70079L17.9764 6.93858C17.4567 6.50551 16.8677 6.07244 16.6598 5.9685L16.2961 5.76063L16.7118 5.32756C17.1795 4.8252 18.1843 4.25354 18.6346 4.23622C18.8945 4.23622 18.9291 4.42677 18.9291 5.9685ZM13.611 6.40157C14.252 6.54016 15.1701 6.85197 15.6378 7.11181C17.0929 7.90866 18.7213 9.8315 19.1717 11.2866C19.2756 11.6157 19.2236 11.685 18.9638 11.685C18.4787 11.685 18.1843 12.1181 18.3055 12.6378C18.3921 13.0016 18.5134 13.0709 19.0157 13.0709C19.6047 13.0709 19.622 13.0882 19.622 13.7638C19.622 14.4047 19.5874 14.4567 19.1197 14.4567C18.8425 14.4567 18.5307 14.578 18.4094 14.7165C18.0976 15.0803 18.3402 15.8079 18.7732 15.8772C19.137 15.9291 19.1197 15.9638 18.5654 16.6913C18.2362 17.1071 17.5433 17.6961 17.0236 17.9906L16.0709 18.5276H12.0693H8.08504L7.06299 18.0079C6.40472 17.6787 5.81575 17.1937 5.45197 16.7087C4.88031 15.9638 4.86299 15.9291 5.22677 15.8772C5.65984 15.8079 5.90236 15.0803 5.59055 14.7165C5.46929 14.578 5.15748 14.4567 4.88031 14.4567C4.4126 14.4567 4.37795 14.4047 4.37795 13.7638C4.37795 13.0882 4.39528 13.0709 4.98425 13.0709C5.48661 13.0709 5.60787 13.0016 5.69449 12.6378C5.81575 12.1181 5.52126 11.685 5.03622 11.685C4.6378 11.685 4.70709 11.3386 5.38268 10.074C6.33543 8.28976 8.27559 6.85197 10.3197 6.40157C11.7228 6.08976 12.1906 6.08976 13.611 6.40157Z" fill="black"/>
<path d="M3.8063 2.79842C3.73701 2.85039 3.68504 4.49606 3.68504 6.43622C3.68504 9.20787 3.63307 10.1606 3.40787 10.8189L3.13071 11.6677L2.05669 11.7197L1 11.7717V12.378V12.9843L2.00472 13.0362L2.99213 13.0882V13.7638V14.4394L2.00472 14.4913L1 14.5433V15.1496V15.7559L2.14331 15.8079L3.26929 15.8598L3.51181 16.5008C3.87559 17.5055 5.65984 19.1858 6.85512 19.6189C7.77323 19.9654 8.17165 20 12 20C15.8283 20 16.2268 19.9654 17.1449 19.6189C18.3402 19.1858 20.1244 17.5055 20.4882 16.5008L20.7307 15.8598L21.8567 15.8079L23 15.7559V15.1496V14.5433L22.0126 14.4913L21.0079 14.4394V13.7638V13.0882L22.0126 13.0362L23 12.9843V12.378V11.7717L21.926 11.7197C20.852 11.6677 20.852 11.6677 20.6268 11.0268C20.5055 10.6457 20.3843 8.89606 20.315 6.5748L20.2283 2.76378L19.3449 2.71181C18.115 2.64252 16.7811 3.17953 15.6031 4.23622C14.7024 5.05039 14.6157 5.08504 14.0614 4.92913C13.2992 4.70394 10.7008 4.70394 9.93858 4.92913C9.38425 5.08504 9.29764 5.05039 8.39685 4.23622C7.85984 3.75118 7.01102 3.21417 6.50866 3.02362C5.60787 2.69449 4.0315 2.5559 3.8063 2.79842ZM6.24882 4.56535C6.59528 4.73858 7.08032 5.08504 7.28819 5.32756L7.70394 5.76063L7.34016 5.9685C7.13228 6.07244 6.54331 6.50551 6.02362 6.93858L5.07087 7.70079V5.9685C5.07087 4.02835 5.10551 3.97638 6.24882 4.56535ZM18.9291 5.9685V7.70079L17.9764 6.93858C17.4567 6.50551 16.8677 6.07244 16.6598 5.9685L16.2961 5.76063L16.7118 5.32756C17.1795 4.8252 18.1843 4.25354 18.6346 4.23622C18.8945 4.23622 18.9291 4.42677 18.9291 5.9685ZM13.611 6.40157C14.252 6.54016 15.1701 6.85197 15.6378 7.11181C17.0929 7.90866 18.7213 9.8315 19.1717 11.2866C19.2756 11.6157 19.2236 11.685 18.9638 11.685C18.4787 11.685 18.1843 12.1181 18.3055 12.6378C18.3921 13.0016 18.5134 13.0709 19.0157 13.0709C19.6047 13.0709 19.622 13.0882 19.622 13.7638C19.622 14.4047 19.5874 14.4567 19.1197 14.4567C18.8425 14.4567 18.5307 14.578 18.4094 14.7165C18.0976 15.0803 18.3402 15.8079 18.7732 15.8772C19.137 15.9291 19.1197 15.9638 18.5654 16.6913C18.2362 17.1071 17.5433 17.6961 17.0236 17.9906L16.0709 18.5276H12.0693H8.08504L7.06299 18.0079C6.40472 17.6787 5.81575 17.1937 5.45197 16.7087C4.88031 15.9638 4.86299 15.9291 5.22677 15.8772C5.65984 15.8079 5.90236 15.0803 5.59055 14.7165C5.46929 14.578 5.15748 14.4567 4.88031 14.4567C4.4126 14.4567 4.37795 14.4047 4.37795 13.7638C4.37795 13.0882 4.39528 13.0709 4.98425 13.0709C5.48661 13.0709 5.60787 13.0016 5.69449 12.6378C5.81575 12.1181 5.52126 11.685 5.03622 11.685C4.6378 11.685 4.70709 11.3386 5.38268 10.074C6.33543 8.28976 8.27559 6.85197 10.3197 6.40157C11.7228 6.08976 12.1906 6.08976 13.611 6.40157Z" stroke="black" stroke-width="0.2" mask="url(#path-1-outside-1_638_15119)"/>
<mask id="path-2-outside-2_638_15119" maskUnits="userSpaceOnUse" x="6.86328" y="8.92742" width="4" height="3" fill="black">
<rect fill="white" x="6.86328" y="8.92742" width="4" height="3"/>
<path d="M8.30999 9.53705C7.91156 9.76224 7.82495 9.90083 7.87692 10.3512L7.92889 10.9055L9.05487 10.9229C10.3021 10.9575 10.6139 10.8016 10.6139 10.1953C10.6139 9.91815 10.4407 9.71027 10.0942 9.51972C9.47062 9.19059 8.93361 9.19059 8.30999 9.53705Z"/>
</mask>
<path d="M8.30999 9.53705C7.91156 9.76224 7.82495 9.90083 7.87692 10.3512L7.92889 10.9055L9.05487 10.9229C10.3021 10.9575 10.6139 10.8016 10.6139 10.1953C10.6139 9.91815 10.4407 9.71027 10.0942 9.51972C9.47062 9.19059 8.93361 9.19059 8.30999 9.53705Z" fill="black"/>
<path d="M8.30999 9.53705C7.91156 9.76224 7.82495 9.90083 7.87692 10.3512L7.92889 10.9055L9.05487 10.9229C10.3021 10.9575 10.6139 10.8016 10.6139 10.1953C10.6139 9.91815 10.4407 9.71027 10.0942 9.51972C9.47062 9.19059 8.93361 9.19059 8.30999 9.53705Z" stroke="black" stroke-width="0.2" mask="url(#path-2-outside-2_638_15119)"/>
<mask id="path-3-outside-3_638_15119" maskUnits="userSpaceOnUse" x="12.3809" y="8.92554" width="4" height="3" fill="black">
<rect fill="white" x="12.3809" y="8.92554" width="4" height="3"/>
<path d="M13.8711 9.53704C13.3514 9.8142 13.2128 10.4725 13.6112 10.7843C13.7152 10.8709 14.3215 10.9402 14.9451 10.9229L16.0711 10.9055L16.1231 10.3512C16.175 9.88349 16.0884 9.76224 15.6553 9.53704C15.0144 9.19058 14.4774 9.19058 13.8711 9.53704Z"/>
</mask>
<path d="M13.8711 9.53704C13.3514 9.8142 13.2128 10.4725 13.6112 10.7843C13.7152 10.8709 14.3215 10.9402 14.9451 10.9229L16.0711 10.9055L16.1231 10.3512C16.175 9.88349 16.0884 9.76224 15.6553 9.53704C15.0144 9.19058 14.4774 9.19058 13.8711 9.53704Z" fill="black"/>
<path d="M13.8711 9.53704C13.3514 9.8142 13.2128 10.4725 13.6112 10.7843C13.7152 10.8709 14.3215 10.9402 14.9451 10.9229L16.0711 10.9055L16.1231 10.3512C16.175 9.88349 16.0884 9.76224 15.6553 9.53704C15.0144 9.19058 14.4774 9.19058 13.8711 9.53704Z" stroke="black" stroke-width="0.2" mask="url(#path-3-outside-3_638_15119)"/>
<mask id="path-4-outside-4_638_15119" maskUnits="userSpaceOnUse" x="7.55566" y="10.8218" width="8" height="6" fill="black">
<rect fill="white" x="7.55566" y="10.8218" width="8" height="6"/>
<path d="M10.7353 11.7891C10.666 11.8583 10.614 12.1528 10.614 12.43C10.614 12.7765 10.718 12.9497 10.9605 13.019C11.3763 13.1229 11.4282 13.7985 11.0298 14.1796C10.5967 14.63 10.2849 14.4914 9.90381 13.6772C9.71326 13.2788 9.54003 13.1576 9.14161 13.1576C8.65657 13.1576 8.62192 13.2095 8.56995 13.9024C8.51799 14.5607 8.58728 14.7166 9.12429 15.2536C9.73058 15.8599 9.78255 15.8772 10.7353 15.7733C11.2896 15.7213 11.8613 15.6694 11.9999 15.6694C12.1385 15.6694 12.7101 15.7213 13.2644 15.7733C14.2172 15.8772 14.2692 15.8599 14.8755 15.2536C15.4125 14.7166 15.4818 14.5607 15.4298 13.9024C15.3778 13.2095 15.3432 13.1576 14.8581 13.1576C14.4597 13.1576 14.2865 13.2788 14.0959 13.6772C13.7148 14.4914 13.403 14.63 12.97 14.1796C12.5715 13.7812 12.6235 13.1229 13.0566 13.019C13.3337 12.9497 13.403 12.8111 13.3511 12.3434L13.2991 11.7717L12.0865 11.7198C11.4109 11.7024 10.8046 11.7198 10.7353 11.7891Z"/>
</mask>
<path d="M10.7353 11.7891C10.666 11.8583 10.614 12.1528 10.614 12.43C10.614 12.7765 10.718 12.9497 10.9605 13.019C11.3763 13.1229 11.4282 13.7985 11.0298 14.1796C10.5967 14.63 10.2849 14.4914 9.90381 13.6772C9.71326 13.2788 9.54003 13.1576 9.14161 13.1576C8.65657 13.1576 8.62192 13.2095 8.56995 13.9024C8.51799 14.5607 8.58728 14.7166 9.12429 15.2536C9.73058 15.8599 9.78255 15.8772 10.7353 15.7733C11.2896 15.7213 11.8613 15.6694 11.9999 15.6694C12.1385 15.6694 12.7101 15.7213 13.2644 15.7733C14.2172 15.8772 14.2692 15.8599 14.8755 15.2536C15.4125 14.7166 15.4818 14.5607 15.4298 13.9024C15.3778 13.2095 15.3432 13.1576 14.8581 13.1576C14.4597 13.1576 14.2865 13.2788 14.0959 13.6772C13.7148 14.4914 13.403 14.63 12.97 14.1796C12.5715 13.7812 12.6235 13.1229 13.0566 13.019C13.3337 12.9497 13.403 12.8111 13.3511 12.3434L13.2991 11.7717L12.0865 11.7198C11.4109 11.7024 10.8046 11.7198 10.7353 11.7891Z" fill="black"/>
<path d="M10.7353 11.7891C10.666 11.8583 10.614 12.1528 10.614 12.43C10.614 12.7765 10.718 12.9497 10.9605 13.019C11.3763 13.1229 11.4282 13.7985 11.0298 14.1796C10.5967 14.63 10.2849 14.4914 9.90381 13.6772C9.71326 13.2788 9.54003 13.1576 9.14161 13.1576C8.65657 13.1576 8.62192 13.2095 8.56995 13.9024C8.51799 14.5607 8.58728 14.7166 9.12429 15.2536C9.73058 15.8599 9.78255 15.8772 10.7353 15.7733C11.2896 15.7213 11.8613 15.6694 11.9999 15.6694C12.1385 15.6694 12.7101 15.7213 13.2644 15.7733C14.2172 15.8772 14.2692 15.8599 14.8755 15.2536C15.4125 14.7166 15.4818 14.5607 15.4298 13.9024C15.3778 13.2095 15.3432 13.1576 14.8581 13.1576C14.4597 13.1576 14.2865 13.2788 14.0959 13.6772C13.7148 14.4914 13.403 14.63 12.97 14.1796C12.5715 13.7812 12.6235 13.1229 13.0566 13.019C13.3337 12.9497 13.403 12.8111 13.3511 12.3434L13.2991 11.7717L12.0865 11.7198C11.4109 11.7024 10.8046 11.7198 10.7353 11.7891Z" stroke="black" stroke-width="0.2" mask="url(#path-4-outside-4_638_15119)"/>
</svg>
