<svg width="24" height="25" viewBox="0 0 24 25" fill="none" xmlns="http://www.w3.org/2000/svg">
<path d="M12.0547 6.03846C13.138 6.03846 14.4959 5.3061 15.3045 4.32962C16.0369 3.44469 16.5709 2.20884 16.5709 0.972982C16.5709 0.80515 16.5556 0.637317 16.5251 0.5C15.3198 0.545772 13.8703 1.30865 13.0006 2.3309C12.3141 3.10903 11.6885 4.32963 11.6885 5.58074C11.6885 5.76383 11.719 5.94692 11.7343 6.00795C11.8106 6.0232 11.9326 6.03846 12.0547 6.03846ZM8.2403 24.5C9.72028 24.5 10.3764 23.5083 12.2225 23.5083C14.0992 23.5083 14.5111 24.4695 16.1589 24.4695C17.7762 24.4695 18.8595 22.9743 19.8818 21.5095C21.0261 19.8312 21.499 18.1834 21.5296 18.1071C21.4228 18.0766 18.3255 16.8102 18.3255 13.2552C18.3255 10.1732 20.7667 8.78481 20.904 8.678C19.2867 6.35887 16.8303 6.29784 16.1589 6.29784C14.3433 6.29784 12.8633 7.39638 11.9326 7.39638C10.9256 7.39638 9.59822 6.35887 8.0267 6.35887C5.03624 6.35887 2 8.83058 2 13.4994C2 16.3983 3.12905 19.465 4.51748 21.4485C5.70756 23.1268 6.74507 24.5 8.2403 24.5Z" fill="black"/>
</svg>
