<svg width="24" height="24" viewBox="0 0 24 24" fill="none" xmlns="http://www.w3.org/2000/svg">
<path d="M6.7125 2.28757C4.25625 5.21257 2.56875 7.40632 2.41875 7.85632C2.11875 8.73757 2.475 9.24382 4.3875 10.5938C5.45625 11.3438 6.13125 11.9438 6.05625 12.0751C5.98125 12.1876 5.68125 12.6188 5.4 13.0126C4.81875 13.8188 4.70625 14.7001 5.175 14.8876C6 15.2063 4.10625 16.1063 2.5875 16.1251H1.5V15.3188C1.5 14.2876 1.29375 14.0251 0.6375 14.1001L0.09375 14.1563V18.3751V22.5938L0.525 22.6501C1.18125 22.7438 1.5 22.3688 1.5 21.4501V20.6251H2.4C4.48125 20.6251 7.275 19.5188 8.5125 18.2063C9.0375 17.6626 9.09375 17.6438 9.4875 17.9063C10.2563 18.4126 10.6313 18.2626 11.3625 17.1563C12.15 15.9751 11.8688 15.9563 13.9688 17.4188C14.5688 17.8501 15.2063 18.1876 15.3938 18.1876C15.5813 18.1876 15.975 17.9813 16.275 17.7188L16.8188 17.2688L18.2812 18.2813C19.0875 18.8438 19.9125 19.3126 20.1 19.3126C20.2875 19.3126 21.1313 18.4501 22.2188 17.0813C24.3 14.4938 24.3938 14.1376 23.25 13.3876C22.5375 12.9188 22.5188 12.8813 22.8 12.4688C23.0063 12.1501 23.0438 11.9251 22.8938 11.6626C22.8 11.4751 19.5938 9.05632 15.7875 6.31882C7.74375 0.506323 8.08125 0.656322 6.7125 2.28757ZM14.625 7.51882C17.925 9.90007 20.625 11.9063 20.625 12.0001C20.625 12.3188 15.375 16.3313 15.15 16.2001C15.0188 16.1251 12.4688 14.3251 9.50625 12.2063C6.16875 9.82507 4.14375 8.26882 4.2 8.11882C4.44375 7.51882 8.175 3.01882 8.4 3.09382C8.53125 3.15007 11.325 5.11882 14.625 7.51882ZM9.24375 14.0438C10.0312 14.6063 10.6875 15.1126 10.6875 15.1688C10.6875 15.2251 10.5188 15.4876 10.3313 15.7501L9.975 16.2001L8.3625 15.1126C7.4625 14.4751 6.80625 13.9126 6.88125 13.8001C7.10625 13.4063 7.575 12.9376 7.6875 12.9751C7.74375 13.0126 8.4375 13.4813 9.24375 14.0438ZM21.9375 14.6438C21.9375 14.7376 21.45 15.3938 20.8688 16.1251L19.8188 17.4188L19.05 16.8376C18.6188 16.5001 18.2625 16.2188 18.225 16.2188C18.2063 16.2001 18.825 15.6751 19.6313 15.0563C21 13.9501 21.075 13.9126 21.5063 14.1938C21.75 14.3438 21.9375 14.5501 21.9375 14.6438ZM7.40625 16.4251C7.78125 16.7063 7.78125 16.7251 7.21875 17.1938C6.09375 18.1313 4.33125 18.8251 2.86875 18.9001L1.5 18.9751V18.3938C1.5 17.8313 1.51875 17.8126 2.34375 17.8126C3.7125 17.8126 5.025 17.4376 5.9625 16.7813C6.99375 16.0313 6.91875 16.0501 7.40625 16.4251Z" fill="black"/>
<path d="M17.0625 10.7625C16.95 10.9125 16.875 11.2312 16.9125 11.475C16.95 11.8312 17.0812 11.9062 17.625 11.9062C18.1687 11.9062 18.3 11.8312 18.3375 11.475C18.4125 10.95 18.075 10.5 17.625 10.5C17.4375 10.5 17.1937 10.6312 17.0625 10.7625Z" fill="black"/>
</svg>
