<svg width="28" height="28" viewBox="0 0 28 28" fill="none" xmlns="http://www.w3.org/2000/svg">
<rect width="28" height="28" rx="14" fill="url(#paint0_linear_3050_9801)"/>
<path d="M16.7922 7.39108C16.4793 7.48077 16.1066 7.67855 15.911 7.85334C15.2553 8.44668 7.98923 15.7278 7.77986 16.0015C7.66021 16.1602 7.49916 16.4845 7.41403 16.7374L7.3473 16.9329L7.3404 18.5635L7.3335 20.194L7.39332 20.3136C7.46234 20.4585 7.59809 20.5873 7.72004 20.6264C7.83508 20.6632 9.75167 20.6816 10.5455 20.6517C11.0793 20.631 11.1345 20.6264 11.3047 20.5689C11.544 20.4884 11.8868 20.3067 12.0847 20.1595C12.255 20.0308 19.0747 13.228 19.7419 12.5219C20.2343 11.9999 20.3539 11.8458 20.4736 11.5698C20.6415 11.188 20.6645 11.0616 20.6668 10.5395C20.6668 10.1002 20.6645 10.0703 20.6024 9.87256C20.5127 9.58278 20.3792 9.30681 20.2274 9.10443C20.0594 8.87905 19.2288 8.03732 18.9872 7.84644C18.6766 7.60266 18.3108 7.43017 17.9703 7.36348C17.8621 7.34278 17.6527 7.33128 17.395 7.33358C17.0315 7.33358 16.9671 7.34048 16.7922 7.39108ZM17.6527 8.65367C17.869 8.69506 18.0232 8.76866 18.2233 8.93194C18.4327 9.10443 19.0608 9.75297 19.1667 9.90705C19.3439 10.1646 19.4106 10.5142 19.3369 10.804C19.2656 11.08 19.1989 11.1834 18.8584 11.5284L18.5432 11.8504L17.3444 10.6545L16.1457 9.45859L16.4632 9.14812C16.8106 8.80775 16.9625 8.70886 17.2133 8.65367C17.4019 8.61227 17.4457 8.61227 17.6527 8.65367ZM16.408 11.6043L17.5975 12.7933L14.7261 15.6634L11.8569 18.5313L10.6605 17.3354L9.46407 16.1395L12.3286 13.2763C13.9047 11.7009 15.1977 10.413 15.2046 10.413C15.2116 10.413 15.7522 10.9489 16.408 11.6043ZM10.0922 18.6532L10.7686 19.3293L10.5202 19.3431C10.3844 19.3523 9.90123 19.3592 9.44566 19.3592H8.61736L8.63117 18.6302C8.64037 18.23 8.64727 17.754 8.64727 17.57V17.2388L9.03381 17.6068C9.24549 17.8092 9.72176 18.2806 10.0922 18.6532Z" fill="white"/>
<defs>
<linearGradient id="paint0_linear_3050_9801" x1="14" y1="0" x2="14" y2="28" gradientUnits="userSpaceOnUse">
<stop stop-color="#E38046"/>
<stop offset="1" stop-color="#F3803D"/>
</linearGradient>
</defs>
</svg>
